{"glyphs":{"0":{"ha":535,"x_min":0,"x_max":0,"o":"m 479 833 b 442 927 479 870 467 902 b 354 965 418 953 388 965 l 181 965 b 92 927 146 965 117 953 b 56 833 68 902 56 870 l 56 132 b 92 39 56 96 68 65 b 181 0 117 13 146 0 l 354 0 b 442 38 388 0 418 13 b 479 132 467 64 479 95 z m 326 146 l 208 146 l 208 819 l 326 819 z "},"1":{"ha":389,"x_min":0,"x_max":0,"o":"m 181 778 l 181 0 l 333 0 l 333 965 l 222 965 l 42 875 l 42 708 z "},"2":{"ha":521,"x_min":0,"x_max":0,"o":"m 56 0 l 479 0 l 479 146 l 208 146 l 208 378 l 406 479 b 463 533 432 493 451 511 b 479 611 474 554 479 581 l 479 833 b 442 927 479 870 467 902 b 354 965 418 953 388 965 l 181 965 b 92 927 146 965 117 953 b 56 833 68 902 56 870 l 56 653 l 208 729 l 208 819 l 326 819 l 326 611 l 129 510 b 72 456 102 496 83 478 b 56 378 61 434 56 408 z "},"3":{"ha":521,"x_min":0,"x_max":0,"o":"m 201 569 l 201 396 l 313 453 l 313 146 l 194 146 l 194 292 l 42 215 l 42 132 b 78 38 42 95 54 64 b 167 0 103 13 132 0 l 340 0 b 428 38 375 0 404 13 b 465 132 453 64 465 95 l 465 507 l 414 507 b 449 547 429 518 441 531 b 465 625 460 568 465 594 l 465 833 b 428 927 465 870 453 902 b 340 965 404 953 375 965 l 167 965 b 78 927 132 965 103 953 b 42 833 54 902 42 870 l 42 653 l 194 729 l 194 819 l 313 819 l 313 625 z "},"4":{"ha":535,"x_min":0,"x_max":0,"o":"m 479 0 l 479 778 l 326 701 l 326 516 l 208 456 l 208 965 l 56 965 l 56 208 l 326 347 l 326 0 z "},"5":{"ha":535,"x_min":0,"x_max":0,"o":"m 479 965 l 56 965 l 56 313 l 326 451 l 326 146 l 208 146 l 208 243 l 56 167 l 56 132 b 92 38 56 95 68 64 b 181 0 117 13 146 0 l 354 0 b 442 39 388 0 418 13 b 479 132 467 65 479 96 l 479 699 l 208 560 l 208 819 l 479 819 z "},"6":{"ha":535,"x_min":0,"x_max":0,"o":"m 56 833 l 56 132 b 92 38 56 95 68 64 b 181 0 117 13 146 0 l 354 0 b 442 39 388 0 418 13 b 479 132 467 65 479 96 l 479 669 l 208 530 l 208 819 l 326 819 l 326 683 l 479 759 l 479 833 b 442 927 479 870 467 902 b 354 965 418 953 388 965 l 181 965 b 92 928 146 965 117 953 b 56 833 68 903 56 871 z m 208 361 l 326 422 l 326 146 l 208 146 z "},"7":{"ha":500,"x_min":0,"x_max":0,"o":"m 42 819 l 291 819 l 146 0 l 301 0 l 458 889 l 458 965 l 42 965 z "},"8":{"ha":535,"x_min":0,"x_max":0,"o":"m 181 0 l 354 0 b 442 38 388 0 418 13 b 479 132 467 64 479 95 l 479 507 l 428 507 b 463 547 444 518 455 531 b 479 625 474 568 479 594 l 479 833 b 442 927 479 870 467 902 b 354 965 418 953 388 965 l 181 965 b 92 927 146 965 117 953 b 56 833 68 902 56 870 l 56 510 l 107 510 b 72 470 91 498 80 485 b 56 392 61 448 56 422 l 56 132 b 92 38 56 95 68 64 b 181 0 117 13 146 0 z m 326 452 l 326 146 l 208 146 l 208 392 z m 208 564 l 208 819 l 326 819 l 326 625 z "},"9":{"ha":535,"x_min":0,"x_max":0,"o":"m 479 132 l 479 833 b 442 927 479 870 467 902 b 354 965 418 953 388 965 l 181 965 b 92 926 146 965 117 952 b 56 833 68 900 56 869 l 56 296 l 326 435 l 326 146 l 208 146 l 208 283 l 56 206 l 56 132 b 92 38 56 95 68 64 b 181 0 117 13 146 0 l 354 0 b 442 38 388 0 418 13 b 479 132 467 63 479 94 z m 326 604 l 208 544 l 208 819 l 326 819 z "}," ":{"ha":264,"x_min":0,"x_max":0,"o":""},"!":{"ha":264,"x_min":0,"x_max":0,"o":"m 56 222 l 208 222 l 208 965 l 56 965 z m 56 0 l 208 0 l 208 153 l 56 153 z "},"\"":{"ha":431,"x_min":0,"x_max":0,"o":"m 375 674 l 375 965 l 271 965 l 271 674 z m 160 674 l 160 965 l 56 965 l 56 674 z "},"#":{"ha":726,"x_min":0,"x_max":0,"o":"m 223 0 l 268 256 l 390 317 l 334 0 l 443 0 l 509 377 l 694 469 l 694 586 l 532 505 l 556 641 l 727 727 l 727 843 l 578 769 l 613 965 l 504 965 l 459 709 l 337 648 l 393 965 l 284 965 l 217 588 l 32 496 l 32 379 l 195 461 l 171 324 l 0 239 l 0 122 l 148 196 l 114 0 z m 436 581 l 412 445 l 290 384 l 314 520 z "},"$":{"ha":535,"x_min":0,"x_max":0,"o":"m 56 792 l 56 299 l 326 438 l 326 194 l 208 194 l 208 285 l 56 208 l 56 181 b 92 87 56 144 68 112 b 181 49 117 61 146 49 l 215 49 l 215 -49 l 319 -49 l 319 49 l 354 49 b 442 88 388 49 418 62 b 479 181 467 113 479 144 l 479 681 l 208 542 l 208 778 l 326 778 l 326 694 l 479 771 l 479 792 b 442 885 479 829 467 860 b 354 924 418 911 388 924 l 319 924 l 319 1021 l 215 1021 l 215 924 l 181 924 b 92 886 146 924 117 911 b 56 792 68 861 56 830 z "},"%":{"ha":840,"x_min":0,"x_max":0,"o":"m 236 0 l 344 0 l 603 965 l 495 965 z m 715 104 l 646 104 l 646 472 l 715 472 z m 729 576 l 632 576 b 569 549 608 576 587 567 b 542 486 551 531 542 510 l 542 90 b 569 27 542 67 551 46 b 632 0 587 9 608 0 l 729 0 b 792 27 753 0 774 9 b 819 90 810 46 819 67 l 819 486 b 792 549 819 510 810 531 b 729 576 774 567 753 576 z m 194 493 l 125 493 l 125 861 l 194 861 z m 208 965 l 111 965 b 48 938 88 965 67 956 b 21 875 30 920 21 899 l 21 479 b 48 416 21 456 30 435 b 111 389 67 398 88 389 l 208 389 b 271 416 232 389 253 398 b 299 479 289 435 299 456 l 299 875 b 271 938 299 899 289 920 b 208 965 253 956 232 965 z "},"&":{"ha":563,"x_min":0,"x_max":0,"o":"m 542 560 l 264 421 l 264 250 l 326 281 l 326 146 l 208 146 l 208 494 l 319 553 l 319 724 l 208 665 l 208 819 l 424 819 l 424 965 l 181 965 b 92 927 146 965 117 953 b 56 833 68 902 56 870 l 56 132 b 92 39 56 96 68 65 b 181 0 117 13 146 0 l 354 0 b 442 38 388 0 418 13 b 479 132 467 64 479 95 l 479 358 l 542 389 z "},"'":{"ha":215,"x_min":0,"x_max":0,"o":"m 160 674 l 160 965 l 56 965 l 56 674 z "},"(":{"ha":375,"x_min":0,"x_max":0,"o":"m 354 -194 l 354 -49 l 243 -49 l 243 819 l 354 819 l 354 965 l 215 965 b 127 927 181 965 152 953 b 90 833 103 902 90 870 l 90 -62 b 127 -156 90 -99 103 -130 b 215 -194 152 -181 181 -194 z "},")":{"ha":375,"x_min":0,"x_max":0,"o":"m 21 965 l 21 819 l 132 819 l 132 -49 l 21 -49 l 21 -194 l 160 -194 b 248 -156 194 -194 223 -182 b 285 -62 272 -131 285 -100 l 285 833 b 248 926 285 869 272 900 b 160 965 223 952 194 965 z "},"*":{"ha":681,"x_min":0,"x_max":0,"o":"m 398 753 l 413 965 l 267 965 l 283 753 l 85 833 l 40 694 l 247 643 l 110 481 l 228 395 l 340 575 l 453 395 l 571 481 l 434 643 l 640 694 l 595 833 z "},"+":{"ha":792,"x_min":0,"x_max":0,"o":"m 472 14 l 472 278 l 736 278 l 736 424 l 472 424 l 472 688 l 319 688 l 319 424 l 56 424 l 56 278 l 319 278 l 319 14 z "},",":{"ha":264,"x_min":0,"x_max":0,"o":"m 111 -125 l 167 -125 l 208 0 l 208 153 l 56 153 l 56 0 l 111 0 z "},"-":{"ha":347,"x_min":0,"x_max":0,"o":"m 56 411 l 56 286 l 292 404 l 292 529 z "},".":{"ha":264,"x_min":0,"x_max":0,"o":"m 56 0 l 208 0 l 208 153 l 56 153 z "},"/":{"ha":413,"x_min":0,"x_max":0,"o":"m -52 -194 l 101 -194 l 413 972 l 261 972 z "},":":{"ha":264,"x_min":0,"x_max":0,"o":"m 56 486 l 208 486 l 208 639 l 56 639 z m 56 0 l 208 0 l 208 153 l 56 153 z "},";":{"ha":264,"x_min":0,"x_max":0,"o":"m 56 486 l 208 486 l 208 639 l 56 639 z m 111 -125 l 167 -125 l 208 0 l 208 153 l 56 153 l 56 0 l 111 0 z "},"<":{"ha":792,"x_min":0,"x_max":0,"o":"m 736 614 l 56 424 l 56 278 l 736 87 l 736 239 l 285 351 l 736 462 z "},"=":{"ha":792,"x_min":0,"x_max":0,"o":"m 56 417 l 736 417 l 736 563 l 56 563 z m 56 139 l 736 139 l 736 285 l 56 285 z "},">":{"ha":792,"x_min":0,"x_max":0,"o":"m 56 87 l 736 278 l 736 424 l 56 614 l 56 462 l 507 351 l 56 239 z "},"?":{"ha":507,"x_min":0,"x_max":0,"o":"m 174 222 l 326 222 l 326 464 l 392 500 b 449 554 419 515 438 533 b 465 632 460 575 465 601 l 465 833 b 428 927 465 870 453 902 b 340 965 404 953 375 965 l 167 965 b 78 927 132 965 103 953 b 42 833 54 902 42 870 l 42 649 l 194 725 l 194 819 l 313 819 l 313 632 l 249 597 b 191 543 222 583 203 564 b 174 464 179 521 174 494 z m 174 0 l 326 0 l 326 153 l 174 153 z "},"@":{"ha":736,"x_min":0,"x_max":0,"o":"m 319 250 l 372 250 b 436 279 397 250 419 260 b 455 308 444 288 451 298 b 474 279 459 298 465 288 b 538 250 491 260 513 250 l 590 250 b 655 279 616 250 638 260 b 681 340 672 299 681 319 l 681 875 b 651 940 681 901 671 922 b 590 965 632 957 612 965 l 146 965 b 81 936 120 965 98 956 b 56 875 64 917 56 896 l 56 167 b 85 102 56 141 65 119 b 146 76 104 85 125 76 l 556 76 l 576 181 l 160 181 l 160 861 l 576 861 l 576 354 l 507 354 l 507 792 l 403 792 l 403 736 b 381 766 398 747 391 757 b 319 792 361 783 341 792 b 255 763 294 792 272 782 b 229 701 238 743 229 723 l 229 340 b 258 276 229 314 239 293 b 319 250 278 259 298 250 z m 403 688 l 403 354 l 333 354 l 333 688 z "},"A":{"ha":535,"x_min":0,"x_max":0,"o":"m 56 0 l 208 0 l 208 347 l 326 410 l 326 0 l 479 0 l 479 833 b 442 927 479 870 467 902 b 354 965 418 953 388 965 l 181 965 b 92 927 146 965 117 953 b 56 833 68 902 56 870 z m 208 518 l 208 819 l 326 819 l 326 581 z "},"B":{"ha":535,"x_min":0,"x_max":0,"o":"m 56 0 l 354 0 b 442 38 388 0 418 13 b 479 132 467 64 479 95 l 479 507 l 428 507 b 463 547 444 518 455 531 b 479 625 474 568 479 594 l 479 833 b 442 927 479 870 467 902 b 354 965 418 953 388 965 l 56 965 z m 326 624 l 208 565 l 208 819 l 326 819 z m 326 453 l 326 146 l 208 146 l 208 394 z "},"C":{"ha":521,"x_min":0,"x_max":0,"o":"m 326 264 l 326 146 l 208 146 l 208 819 l 326 819 l 326 674 l 479 750 l 479 833 b 442 927 479 870 467 902 b 354 965 418 953 388 965 l 181 965 b 92 927 146 965 117 953 b 56 833 68 902 56 870 l 56 132 b 92 39 56 96 68 65 b 181 0 117 13 146 0 l 354 0 b 442 38 388 0 418 13 b 479 132 467 64 479 95 l 479 340 z "},"D":{"ha":535,"x_min":0,"x_max":0,"o":"m 56 0 l 354 0 b 442 38 388 0 418 13 b 479 132 467 64 479 95 l 479 833 b 442 927 479 870 467 902 b 354 965 418 953 388 965 l 56 965 z m 326 146 l 208 146 l 208 819 l 326 819 z "},"E":{"ha":465,"x_min":0,"x_max":0,"o":"m 424 819 l 424 965 l 181 965 b 92 927 146 965 117 953 b 56 833 68 902 56 870 l 56 0 l 424 0 l 424 146 l 208 146 l 208 389 l 424 500 l 424 671 l 208 560 l 208 819 z "},"F":{"ha":444,"x_min":0,"x_max":0,"o":"m 208 0 l 208 389 l 424 500 l 424 671 l 208 560 l 208 819 l 424 819 l 424 965 l 181 965 b 92 927 146 965 117 953 b 56 833 68 902 56 870 l 56 0 z "},"G":{"ha":535,"x_min":0,"x_max":0,"o":"m 181 0 l 479 0 l 479 636 l 264 525 l 264 354 l 326 386 l 326 146 l 208 146 l 208 819 l 326 819 l 326 646 l 479 726 l 479 833 b 442 927 479 870 467 902 b 354 965 418 953 388 965 l 181 965 b 92 927 146 965 117 953 b 56 833 68 902 56 870 l 56 132 b 92 39 56 96 68 65 b 181 0 117 13 146 0 z "},"H":{"ha":535,"x_min":0,"x_max":0,"o":"m 326 446 l 326 0 l 479 0 l 479 965 l 326 965 l 326 617 l 208 554 l 208 965 l 56 965 l 56 0 l 208 0 l 208 383 z "},"I":{"ha":264,"x_min":0,"x_max":0,"o":"m 56 0 l 208 0 l 208 965 l 56 965 z "},"J":{"ha":500,"x_min":0,"x_max":0,"o":"m 444 965 l 292 965 l 292 146 l 174 146 l 174 389 l 21 313 l 21 132 b 58 38 21 95 33 64 b 146 0 82 13 112 0 l 319 0 b 408 38 354 0 383 13 b 444 132 432 64 444 95 z "},"K":{"ha":563,"x_min":0,"x_max":0,"o":"m 590 0 l 357 574 l 538 965 l 372 965 l 208 585 l 208 965 l 56 965 l 56 0 l 208 0 l 208 260 l 278 404 l 428 0 z "},"L":{"ha":451,"x_min":0,"x_max":0,"o":"m 56 0 l 431 0 l 431 146 l 208 146 l 208 965 l 56 965 z "},"M":{"ha":806,"x_min":0,"x_max":0,"o":"m 403 895 b 380 926 397 906 390 916 b 292 965 355 952 326 965 l 181 965 b 92 927 146 965 117 953 b 56 833 68 902 56 870 l 56 0 l 208 0 l 208 819 l 326 819 l 326 0 l 479 0 l 479 819 l 597 819 l 597 0 l 750 0 l 750 833 b 713 926 750 869 738 900 b 625 965 689 952 659 965 l 514 965 b 426 927 480 965 450 953 b 403 895 416 917 408 907 z "},"N":{"ha":535,"x_min":0,"x_max":0,"o":"m 208 0 l 208 819 l 326 819 l 326 0 l 479 0 l 479 833 b 442 927 479 870 467 902 b 354 965 418 953 388 965 l 319 965 b 231 927 285 965 256 953 b 208 895 222 917 214 907 l 208 965 l 56 965 l 56 0 z "},"O":{"ha":535,"x_min":0,"x_max":0,"o":"m 479 833 b 442 927 479 870 467 902 b 354 965 418 953 388 965 l 181 965 b 92 927 146 965 117 953 b 56 833 68 902 56 870 l 56 132 b 92 39 56 96 68 65 b 181 0 117 13 146 0 l 354 0 b 442 38 388 0 418 13 b 479 132 467 64 479 95 z m 326 146 l 208 146 l 208 819 l 326 819 z "},"P":{"ha":521,"x_min":0,"x_max":0,"o":"m 326 563 l 208 500 l 208 819 l 326 819 z m 208 0 l 208 329 l 479 468 l 479 833 b 442 927 479 870 467 902 b 354 965 418 953 388 965 l 56 965 l 56 0 z "},"Q":{"ha":535,"x_min":0,"x_max":0,"o":"m 278 0 l 278 -69 l 528 56 l 528 220 l 479 196 l 479 833 b 442 927 479 870 467 902 b 354 965 418 953 388 965 l 181 965 b 92 927 146 965 117 953 b 56 833 68 902 56 870 l 56 132 b 92 39 56 96 68 65 b 181 0 117 13 146 0 z m 326 146 l 208 146 l 208 819 l 326 819 z "},"R":{"ha":535,"x_min":0,"x_max":0,"o":"m 403 0 l 569 0 l 378 430 l 479 482 l 479 833 b 442 927 479 870 467 902 b 354 965 418 953 388 965 l 56 965 l 56 0 l 208 0 l 208 343 l 243 361 z m 326 576 l 208 514 l 208 819 l 326 819 z "},"S":{"ha":535,"x_min":0,"x_max":0,"o":"m 56 833 l 56 313 l 326 451 l 326 146 l 208 146 l 208 299 l 56 222 l 56 132 b 92 38 56 95 68 64 b 181 0 117 13 146 0 l 354 0 b 442 39 388 0 418 13 b 479 132 467 65 479 96 l 479 701 l 208 563 l 208 819 l 326 819 l 326 715 l 479 792 l 479 833 b 442 927 479 870 467 902 b 354 965 418 953 388 965 l 181 965 b 92 928 146 965 117 953 b 56 833 68 903 56 871 z "},"T":{"ha":500,"x_min":0,"x_max":0,"o":"m 174 0 l 326 0 l 326 819 l 479 819 l 479 965 l 21 965 l 21 819 l 174 819 z "},"U":{"ha":535,"x_min":0,"x_max":0,"o":"m 479 965 l 326 965 l 326 146 l 208 146 l 208 965 l 56 965 l 56 132 b 92 39 56 96 68 65 b 181 0 117 13 146 0 l 354 0 b 442 38 388 0 418 13 b 479 132 467 64 479 95 z "},"V":{"ha":507,"x_min":0,"x_max":0,"o":"m 343 0 l 514 965 l 359 965 l 253 256 l 148 965 l -7 965 l 164 0 z "},"W":{"ha":806,"x_min":0,"x_max":0,"o":"m 403 71 b 425 39 408 60 416 49 b 514 0 450 13 480 0 l 625 0 b 713 38 659 0 689 13 b 750 132 738 64 750 95 l 750 965 l 597 965 l 597 146 l 479 146 l 479 965 l 326 965 l 326 146 l 208 146 l 208 965 l 56 965 l 56 132 b 92 39 56 96 68 65 b 181 0 117 13 146 0 l 291 0 b 380 38 326 0 355 13 b 403 71 390 48 397 59 z "},"X":{"ha":476,"x_min":0,"x_max":0,"o":"m 477 0 l 338 495 l 470 965 l 312 965 l 238 703 l 164 965 l 6 965 l 138 495 l -1 0 l 158 0 l 238 287 l 319 0 z "},"Y":{"ha":535,"x_min":0,"x_max":0,"o":"m 56 965 l 56 313 l 326 451 l 326 146 l 208 146 l 208 257 l 56 181 l 56 132 b 92 39 56 96 68 65 b 181 0 117 13 146 0 l 354 0 b 442 38 388 0 418 13 b 479 132 467 64 479 95 l 479 965 l 326 965 l 326 622 l 208 560 l 208 965 z "},"Z":{"ha":486,"x_min":0,"x_max":0,"o":"m 444 965 l 42 965 l 42 819 l 292 819 l 42 146 l 42 0 l 444 0 l 444 146 l 194 146 l 444 819 z "},"[":{"ha":375,"x_min":0,"x_max":0,"o":"m 90 -194 l 354 -194 l 354 -49 l 243 -49 l 243 819 l 354 819 l 354 965 l 90 965 z "},"\\":{"ha":413,"x_min":0,"x_max":0,"o":"m 465 -194 l 153 972 l 0 972 l 313 -194 z "},"]":{"ha":375,"x_min":0,"x_max":0,"o":"m 285 965 l 21 965 l 21 819 l 132 819 l 132 -49 l 21 -49 l 21 -194 l 285 -194 z "},"^":{"ha":556,"x_min":0,"x_max":0,"o":"m 201 965 l 21 792 l 125 792 l 278 868 l 431 792 l 535 792 l 354 965 z "},"_":{"ha":264,"x_min":0,"x_max":0,"o":"m -7 -90 l -7 -194 l 271 -194 l 271 -90 z "},"`":{"ha":290,"x_min":0,"x_max":0,"o":"m 181 722 l 269 722 l 151 958 l 21 958 z "},"a":{"ha":528,"x_min":0,"x_max":0,"o":"m 181 0 l 208 0 b 297 38 243 0 272 13 b 319 70 306 48 314 59 l 319 0 l 472 0 l 472 639 b 435 733 472 676 460 707 b 347 771 411 758 381 771 l 181 771 b 92 732 146 771 117 758 b 56 639 68 706 56 675 l 56 479 l 208 556 l 208 625 l 319 625 l 319 521 l 56 389 l 56 132 b 92 38 56 95 68 64 b 181 0 117 13 146 0 z m 208 326 l 319 382 l 319 146 l 208 146 z "},"b":{"ha":528,"x_min":0,"x_max":0,"o":"m 208 625 l 319 625 l 319 146 l 208 146 z m 208 70 b 231 38 214 59 222 48 b 319 0 256 13 285 0 l 347 0 b 435 39 381 0 411 13 b 472 132 460 65 472 96 l 472 639 b 435 733 472 676 460 707 b 347 771 411 758 381 771 l 319 771 b 231 733 285 771 256 758 b 208 701 222 723 214 712 l 208 1000 l 56 924 l 56 0 l 208 0 z "},"c":{"ha":514,"x_min":0,"x_max":0,"o":"m 319 257 l 319 146 l 208 146 l 208 625 l 319 625 l 319 479 l 472 556 l 472 639 b 435 733 472 676 460 707 b 347 771 411 758 381 771 l 181 771 b 92 733 146 771 117 758 b 56 639 68 707 56 676 l 56 132 b 92 39 56 96 68 65 b 181 0 117 13 146 0 l 347 0 b 435 38 381 0 411 13 b 472 132 460 64 472 95 l 472 333 z "},"d":{"ha":528,"x_min":0,"x_max":0,"o":"m 319 625 l 319 146 l 208 146 l 208 625 z m 319 70 l 319 0 l 472 0 l 472 1000 l 319 924 l 319 701 b 297 733 314 712 306 723 b 208 771 272 758 243 771 l 181 771 b 92 733 146 771 117 758 b 56 639 68 707 56 676 l 56 132 b 92 39 56 96 68 65 b 181 0 117 13 146 0 l 208 0 b 297 38 243 0 272 13 b 319 70 306 48 314 59 z "},"e":{"ha":528,"x_min":0,"x_max":0,"o":"m 56 639 l 56 132 b 92 38 56 95 68 64 b 181 0 117 13 146 0 l 347 0 b 435 39 381 0 411 13 b 472 132 460 65 472 96 l 472 361 l 319 285 l 319 146 l 208 146 l 208 319 l 472 451 l 472 639 b 435 733 472 676 460 707 b 347 771 411 758 381 771 l 181 771 b 92 733 146 771 117 758 b 56 639 68 708 56 677 z m 319 514 l 208 458 l 208 625 l 319 625 z "},"f":{"ha":444,"x_min":0,"x_max":0,"o":"m 208 819 l 306 819 l 306 692 l 458 768 l 458 833 b 422 927 458 870 446 902 b 333 965 397 953 368 965 l 181 965 b 92 927 146 965 117 953 b 56 833 68 902 56 870 l 56 0 l 208 0 l 208 389 l 424 500 l 424 671 l 208 560 z "},"g":{"ha":528,"x_min":0,"x_max":0,"o":"m 208 299 l 208 625 l 319 625 l 319 354 z m 472 -62 l 472 771 l 319 771 l 319 701 b 297 733 314 712 306 723 b 208 771 272 758 243 771 l 181 771 b 92 732 146 771 117 758 b 56 639 68 706 56 675 l 56 76 l 319 208 l 319 -49 l 208 -49 l 208 62 l 56 -14 l 56 -62 b 92 -156 56 -99 68 -130 b 181 -194 117 -181 146 -194 l 347 -194 b 435 -156 381 -194 411 -182 b 472 -62 460 -131 472 -100 z "},"h":{"ha":528,"x_min":0,"x_max":0,"o":"m 208 0 l 208 625 l 319 625 l 319 0 l 472 0 l 472 639 b 435 733 472 676 460 707 b 347 771 411 758 381 771 l 319 771 b 231 733 285 771 256 758 b 208 701 222 723 214 712 l 208 1000 l 56 924 l 56 0 z "},"i":{"ha":264,"x_min":0,"x_max":0,"o":"m 56 924 l 56 785 l 208 861 l 208 1000 z m 56 0 l 208 0 l 208 792 l 56 715 z "},"j":{"ha":264,"x_min":0,"x_max":0,"o":"m 56 924 l 56 785 l 208 861 l 208 1000 z m 56 715 l 56 -49 l -56 -49 l -56 -194 l 83 -194 b 172 -156 118 -194 147 -182 b 208 -62 196 -131 208 -100 l 208 792 z "},"k":{"ha":493,"x_min":0,"x_max":0,"o":"m 56 0 l 208 0 l 208 351 l 354 0 l 521 0 l 321 428 l 507 771 l 337 771 l 208 496 l 208 1000 l 56 924 z "},"l":{"ha":264,"x_min":0,"x_max":0,"o":"m 56 0 l 208 0 l 208 1000 l 56 924 z "},"m":{"ha":792,"x_min":0,"x_max":0,"o":"m 208 0 l 208 625 l 319 625 l 319 0 l 472 0 l 472 625 l 583 625 l 583 0 l 736 0 l 736 639 b 699 733 736 676 724 707 b 611 771 675 758 645 771 l 583 771 b 495 733 549 771 520 758 b 465 684 481 718 471 702 b 435 733 459 702 449 718 b 347 771 411 758 381 771 l 319 771 b 231 733 285 771 256 758 b 208 701 222 723 214 712 l 208 771 l 56 771 l 56 0 z "},"n":{"ha":528,"x_min":0,"x_max":0,"o":"m 208 0 l 208 625 l 319 625 l 319 0 l 472 0 l 472 639 b 435 733 472 676 460 707 b 347 771 411 758 381 771 l 319 771 b 231 733 285 771 256 758 b 208 701 222 723 214 712 l 208 771 l 56 771 l 56 0 z "},"o":{"ha":528,"x_min":0,"x_max":0,"o":"m 472 639 b 435 733 472 676 460 707 b 347 771 411 758 381 771 l 181 771 b 92 733 146 771 117 758 b 56 639 68 707 56 676 l 56 132 b 92 39 56 96 68 65 b 181 0 117 13 146 0 l 347 0 b 435 38 381 0 411 13 b 472 132 460 64 472 95 z m 319 146 l 208 146 l 208 625 l 319 625 z "},"p":{"ha":528,"x_min":0,"x_max":0,"o":"m 208 146 l 208 625 l 319 625 l 319 146 z m 208 701 l 208 771 l 56 771 l 56 -194 l 208 -194 l 208 70 b 231 38 214 59 222 48 b 319 0 256 13 285 0 l 347 0 b 435 38 381 0 411 13 b 472 132 460 64 472 95 l 472 639 b 435 732 472 675 460 706 b 347 771 411 758 381 771 l 319 771 b 231 733 285 771 256 758 b 208 701 222 723 214 712 z "},"q":{"ha":528,"x_min":0,"x_max":0,"o":"m 319 146 l 208 146 l 208 625 l 319 625 z m 319 701 b 297 733 314 712 306 723 b 208 771 272 758 243 771 l 181 771 b 92 732 146 771 117 758 b 56 639 68 706 56 675 l 56 132 b 92 38 56 95 68 64 b 181 0 117 13 146 0 l 208 0 b 297 38 243 0 272 13 b 319 70 306 48 314 59 l 319 -194 l 472 -194 l 472 771 l 319 771 z "},"r":{"ha":493,"x_min":0,"x_max":0,"o":"m 208 0 l 208 625 l 319 625 l 319 458 l 472 535 l 472 639 b 435 733 472 676 460 707 b 347 771 411 758 381 771 l 319 771 b 231 733 285 771 256 758 b 208 701 222 723 214 712 l 208 771 l 56 771 l 56 0 z "},"s":{"ha":528,"x_min":0,"x_max":0,"o":"m 56 639 l 56 229 l 319 361 l 319 146 l 208 146 l 208 236 l 56 160 l 56 132 b 92 38 56 95 68 64 b 181 0 117 13 146 0 l 347 0 b 435 39 381 0 411 13 b 472 132 460 65 472 96 l 472 567 l 208 435 l 208 625 l 319 625 l 319 560 l 472 636 l 472 639 b 435 733 472 676 460 707 b 347 771 411 758 381 771 l 181 771 b 92 733 146 771 117 758 b 56 639 68 708 56 677 z "},"t":{"ha":410,"x_min":0,"x_max":0,"o":"m 264 146 l 264 559 l 389 622 l 389 792 l 264 730 l 264 903 l 111 826 l 111 656 l 21 608 l 21 438 l 111 485 l 111 132 b 148 39 111 96 123 65 b 236 0 172 13 202 0 l 410 0 l 410 146 z "},"u":{"ha":528,"x_min":0,"x_max":0,"o":"m 319 771 l 319 146 l 208 146 l 208 771 l 56 771 l 56 132 b 92 38 56 95 68 64 b 181 0 117 13 146 0 l 208 0 b 297 38 243 0 272 13 b 319 70 306 48 314 59 l 319 0 l 472 0 l 472 771 z "},"v":{"ha":444,"x_min":0,"x_max":0,"o":"m 313 0 l 451 771 l 297 771 l 222 243 l 148 771 l -7 771 l 132 0 z "},"w":{"ha":792,"x_min":0,"x_max":0,"o":"m 396 71 b 419 39 402 59 409 49 b 507 0 443 13 473 0 l 611 0 b 699 38 646 0 675 13 b 736 132 724 64 736 95 l 736 771 l 583 771 l 583 146 l 472 146 l 472 771 l 319 771 l 319 146 l 208 146 l 208 771 l 56 771 l 56 132 b 92 39 56 96 68 65 b 181 0 117 13 146 0 l 285 0 b 373 38 319 0 348 13 b 396 71 383 48 390 59 z "},"x":{"ha":488,"x_min":0,"x_max":0,"o":"m 488 0 l 326 402 l 482 771 l 318 771 l 244 566 l 169 771 l 6 771 l 162 402 l -1 0 l 162 0 l 244 233 l 326 0 z "},"y":{"ha":528,"x_min":0,"x_max":0,"o":"m 319 771 l 319 361 l 208 306 l 208 771 l 56 771 l 56 76 l 319 208 l 319 -49 l 208 -49 l 208 62 l 56 -14 l 56 -62 b 92 -156 56 -99 68 -130 b 181 -194 117 -181 146 -194 l 347 -194 b 435 -156 381 -194 411 -182 b 472 -62 460 -131 472 -100 l 472 771 z "},"z":{"ha":438,"x_min":0,"x_max":0,"o":"m 396 771 l 42 771 l 42 625 l 236 625 l 42 146 l 42 0 l 396 0 l 396 146 l 201 146 l 396 625 z "},"{":{"ha":403,"x_min":0,"x_max":0,"o":"m 271 -49 l 271 819 l 382 819 l 382 965 l 243 965 b 155 927 209 965 179 953 b 118 833 130 902 118 870 l 118 458 l 63 458 l 63 313 l 118 313 l 118 -62 b 155 -156 118 -99 130 -130 b 243 -194 179 -181 209 -194 l 382 -194 l 382 -49 z "},"|":{"ha":264,"x_min":0,"x_max":0,"o":"m 56 -194 l 208 -194 l 208 972 l 56 972 z "},"}":{"ha":403,"x_min":0,"x_max":0,"o":"m 132 819 l 132 -49 l 21 -49 l 21 -194 l 160 -194 b 248 -156 194 -194 223 -182 b 285 -62 272 -131 285 -100 l 285 313 l 340 313 l 340 458 l 285 458 l 285 833 b 248 926 285 869 272 900 b 160 965 223 952 194 965 l 21 965 l 21 819 z "},"~":{"ha":500,"x_min":0,"x_max":0,"o":"m 56 411 l 56 286 l 250 383 l 250 258 l 444 356 l 444 481 l 250 383 l 250 508 z "}," ":{"ha":264,"x_min":0,"x_max":0,"o":""},"¡":{"ha":264,"x_min":0,"x_max":0,"o":"m 208 743 l 56 743 l 56 0 l 208 0 z m 208 965 l 56 965 l 56 813 l 208 813 z "},"¢":{"ha":535,"x_min":0,"x_max":0,"o":"m 326 347 l 326 243 l 208 243 l 208 722 l 326 722 l 326 574 l 479 650 l 479 736 b 442 830 479 773 467 804 b 354 868 418 855 388 868 l 319 868 l 319 965 l 215 965 l 215 868 l 181 868 b 92 830 146 868 117 855 b 56 736 68 804 56 773 l 56 229 b 92 136 56 193 68 162 b 181 97 117 110 146 97 l 215 97 l 215 0 l 319 0 l 319 97 l 354 97 b 442 135 388 97 418 110 b 479 229 467 161 479 192 l 479 424 z "},"£":{"ha":556,"x_min":0,"x_max":0,"o":"m 250 819 l 361 819 l 361 699 l 514 775 l 514 833 b 477 927 514 870 502 902 b 389 965 453 953 423 965 l 222 965 b 134 927 188 965 159 953 b 97 833 109 902 97 870 l 97 518 l 42 490 l 42 319 l 97 347 l 97 146 l 42 146 l 42 0 l 514 0 l 514 146 l 250 146 l 250 396 l 389 465 l 389 636 l 250 567 z "},"¤":{"ha":493,"x_min":0,"x_max":0,"o":"m 472 361 l 423 386 b 424 396 423 389 424 392 l 424 569 b 423 580 424 573 423 576 l 472 604 l 472 729 l 333 660 l 160 660 l 21 729 l 21 604 l 70 580 b 69 569 70 576 69 573 l 69 396 b 70 386 69 392 70 389 l 21 361 l 21 236 l 160 306 l 333 306 l 472 236 z m 319 556 l 319 410 l 174 410 l 174 556 z "},"¥":{"ha":479,"x_min":0,"x_max":0,"o":"m 14 354 l 163 354 l 163 0 l 316 0 l 316 354 l 444 354 l 465 458 l 344 458 l 486 965 l 328 965 l 240 581 l 151 965 l -7 965 l 135 458 l 35 458 z "},"¦":{"ha":264,"x_min":0,"x_max":0,"o":"m 56 -194 l 208 -194 l 208 361 l 56 285 z m 56 417 l 208 493 l 208 972 l 56 972 z "},"§":{"ha":535,"x_min":0,"x_max":0,"o":"m 326 194 l 326 -49 l 208 -49 l 208 42 l 56 -35 l 56 -62 b 92 -156 56 -100 68 -131 b 181 -194 117 -182 146 -194 l 354 -194 b 442 -156 388 -194 418 -181 b 479 -62 467 -130 479 -99 l 479 715 l 208 576 l 208 819 l 326 819 l 326 729 l 479 806 l 479 833 b 442 927 479 870 467 902 b 354 965 418 953 388 965 l 181 965 b 92 928 146 965 117 953 b 56 833 68 903 56 871 l 56 56 z m 326 340 l 208 281 l 208 430 l 326 490 z "},"¨":{"ha":389,"x_min":0,"x_max":0,"o":"m 222 910 l 222 771 l 347 833 l 347 972 z m 42 910 l 42 771 l 167 833 l 167 972 z "},"©":{"ha":736,"x_min":0,"x_max":0,"o":"m 576 181 l 160 181 l 160 861 l 576 861 z m 590 965 l 146 965 b 81 936 120 965 98 956 b 56 875 64 917 56 896 l 56 167 b 85 102 56 141 65 119 b 146 76 104 85 125 76 l 590 76 b 655 106 616 76 638 86 b 681 167 672 125 681 145 l 681 875 b 651 940 681 901 671 922 b 590 965 632 957 612 965 z m 507 340 l 507 453 l 403 397 l 403 354 l 333 354 l 333 688 l 403 688 l 403 604 l 507 660 l 507 701 b 478 766 507 727 497 749 b 417 792 458 783 438 792 l 319 792 b 255 763 294 792 272 782 b 229 701 238 743 229 723 l 229 340 b 258 276 229 314 239 293 b 319 250 278 259 298 250 l 417 250 b 481 279 443 250 464 260 b 507 340 498 299 507 319 z "},"ª":{"ha":361,"x_min":0,"x_max":0,"o":"m 146 646 l 215 681 l 215 528 l 146 528 z m 215 785 l 42 694 l 42 514 b 71 449 42 488 51 466 b 132 424 90 432 111 424 b 197 453 157 424 178 433 b 215 481 204 462 211 472 l 215 424 l 319 424 l 319 875 b 290 940 319 901 310 922 b 229 965 271 957 250 965 l 132 965 b 67 936 106 965 84 956 b 42 875 50 917 42 896 l 42 764 l 146 819 l 146 861 l 215 861 z "},"«":{"ha":625,"x_min":0,"x_max":0,"o":"m 553 646 l 482 646 l 313 354 l 479 125 l 604 125 l 490 367 z m 261 646 l 190 646 l 21 354 l 188 125 l 313 125 l 199 367 z "},"¬":{"ha":792,"x_min":0,"x_max":0,"o":"m 736 139 l 736 563 l 56 563 l 56 417 l 583 417 l 583 139 z "},"­":{"ha":347,"x_min":0,"x_max":0,"o":"m 56 411 l 56 286 l 292 404 l 292 529 z "},"®":{"ha":736,"x_min":0,"x_max":0,"o":"m 590 965 l 146 965 b 81 936 120 965 98 956 b 56 875 64 917 56 896 l 56 167 b 85 102 56 141 65 119 b 146 76 104 85 125 76 l 590 76 b 655 106 616 76 638 86 b 681 167 672 125 681 145 l 681 875 b 651 940 681 901 671 922 b 590 965 632 957 612 965 z m 507 514 l 507 701 b 478 766 507 727 497 749 b 417 792 458 783 438 792 l 229 792 l 229 250 l 333 250 l 333 427 l 356 439 l 463 250 l 576 250 l 576 181 l 160 181 l 160 861 l 576 861 l 576 260 l 450 486 z m 333 537 l 333 688 l 403 688 l 403 571 z "},"¯":{"ha":347,"x_min":0,"x_max":0,"o":"m 42 965 l 42 861 l 306 861 l 306 965 z "},"°":{"ha":431,"x_min":0,"x_max":0,"o":"m 285 722 l 146 722 l 146 861 l 285 861 z m 299 965 l 132 965 b 67 936 106 965 84 956 b 42 875 50 917 42 896 l 42 708 b 71 644 42 682 51 661 b 132 618 90 627 111 618 l 299 618 b 363 647 325 618 346 628 b 389 708 380 667 389 687 l 389 875 b 360 940 389 901 379 922 b 299 965 340 957 320 965 z "},"±":{"ha":792,"x_min":0,"x_max":0,"o":"m 56 14 l 736 14 l 736 118 l 56 118 z m 448 215 l 448 431 l 736 431 l 736 535 l 448 535 l 448 750 l 344 750 l 344 535 l 56 535 l 56 431 l 344 431 l 344 215 z "},"²":{"ha":319,"x_min":0,"x_max":0,"o":"m 299 847 l 299 972 b 271 1035 299 996 289 1017 b 208 1063 253 1053 232 1063 l 111 1063 b 48 1035 87 1063 66 1053 b 21 972 30 1017 21 996 l 21 867 l 125 908 l 125 958 l 194 958 l 194 856 l 71 793 b 32 760 52 784 39 773 b 21 713 25 747 21 731 l 21 486 l 299 486 l 299 590 l 125 590 l 125 703 l 249 765 b 288 799 267 775 280 786 b 299 847 295 812 299 828 z "},"³":{"ha":319,"x_min":0,"x_max":0,"o":"m 21 628 l 21 576 b 48 514 21 553 30 532 b 111 486 67 495 88 486 l 208 486 b 271 514 232 486 253 495 b 299 576 289 532 299 553 l 299 788 l 264 788 b 288 811 274 794 282 802 b 299 858 295 824 299 840 l 299 972 b 271 1035 299 996 289 1017 b 208 1063 253 1053 232 1063 l 111 1063 b 48 1035 88 1063 67 1053 b 21 972 30 1017 21 996 l 21 867 l 125 908 l 125 958 l 194 958 l 194 853 l 129 821 l 129 726 l 194 758 l 194 590 l 125 590 l 125 669 z "},"´":{"ha":290,"x_min":0,"x_max":0,"o":"m 110 722 l 269 958 l 139 958 l 21 722 z "},"µ":{"ha":528,"x_min":0,"x_max":0,"o":"m 208 0 b 297 38 243 0 272 13 b 319 70 306 48 314 59 l 319 0 l 472 0 l 472 771 l 319 771 l 319 146 l 208 146 l 208 771 l 56 771 l 56 -229 l 208 -153 z "},"¶":{"ha":563,"x_min":0,"x_max":0,"o":"m 299 819 l 403 819 l 403 0 l 507 0 l 507 965 l 167 965 b 78 926 132 965 103 952 b 42 833 54 900 42 869 l 42 271 l 194 347 l 194 0 l 299 0 z "},"·":{"ha":264,"x_min":0,"x_max":0,"o":"m 56 403 l 208 403 l 208 556 l 56 556 z "},"¸":{"ha":222,"x_min":0,"x_max":0,"o":"m 146 -243 l 180 -49 l 76 -49 l 42 -243 z "},"¹":{"ha":215,"x_min":0,"x_max":0,"o":"m 90 943 l 90 486 l 194 486 l 194 1063 l 118 1063 l 21 1014 l 21 908 z "},"º":{"ha":361,"x_min":0,"x_max":0,"o":"m 215 528 l 146 528 l 146 861 l 215 861 z m 229 965 l 132 965 b 67 936 106 965 84 956 b 42 875 50 917 42 896 l 42 514 b 71 449 42 488 51 466 b 132 424 90 432 111 424 l 229 424 b 294 453 255 424 277 433 b 319 514 311 472 319 493 l 319 875 b 290 940 319 901 310 922 b 229 965 271 957 250 965 z "},"»":{"ha":625,"x_min":0,"x_max":0,"o":"m 364 646 l 426 367 l 313 125 l 438 125 l 604 354 l 435 646 z m 72 646 l 135 367 l 21 125 l 146 125 l 313 354 l 143 646 z "},"¼":{"ha":764,"x_min":0,"x_max":0,"o":"m 743 0 l 743 457 l 639 414 l 639 318 l 569 283 l 569 576 l 465 576 l 465 132 l 639 222 l 639 0 z m 90 846 l 90 389 l 194 389 l 194 965 l 118 965 l 21 917 l 21 811 z m 146 0 l 254 0 l 513 965 l 404 965 z "},"½":{"ha":764,"x_min":0,"x_max":0,"o":"m 90 846 l 90 389 l 194 389 l 194 965 l 118 965 l 21 917 l 21 811 z m 153 0 l 261 0 l 520 965 l 411 965 z m 743 361 l 743 486 b 716 549 743 510 734 531 b 653 576 698 567 677 576 l 556 576 b 493 549 531 576 511 567 b 465 486 474 531 465 510 l 465 381 l 569 422 l 569 472 l 639 472 l 639 369 l 515 307 b 476 274 497 298 484 286 b 465 226 469 261 465 245 l 465 0 l 743 0 l 743 104 l 569 104 l 569 217 l 693 279 b 732 313 712 289 725 300 b 743 361 739 325 743 342 z "},"¾":{"ha":854,"x_min":0,"x_max":0,"o":"m 21 531 l 21 479 b 48 416 21 456 30 435 b 111 389 67 398 88 389 l 208 389 b 271 416 232 389 253 398 b 299 479 289 435 299 456 l 299 690 l 264 690 b 288 714 274 697 282 705 b 299 761 295 727 299 743 l 299 875 b 271 938 299 899 289 920 b 208 965 253 956 232 965 l 111 965 b 48 938 88 965 67 956 b 21 875 30 920 21 899 l 21 769 l 125 811 l 125 861 l 194 861 l 194 756 l 129 724 l 129 629 l 194 661 l 194 493 l 125 493 l 125 572 z m 833 0 l 833 457 l 729 414 l 729 318 l 660 283 l 660 576 l 556 576 l 556 132 l 729 222 l 729 0 z m 236 0 l 344 0 l 603 965 l 495 965 z "},"¿":{"ha":507,"x_min":0,"x_max":0,"o":"m 333 743 l 181 743 l 181 501 l 115 465 b 58 412 88 450 69 433 b 42 333 47 390 42 364 l 42 132 b 78 38 42 95 54 64 b 167 0 103 13 132 0 l 340 0 b 428 38 375 0 404 13 b 465 132 453 64 465 95 l 465 317 l 313 240 l 313 146 l 194 146 l 194 333 l 258 368 b 316 423 285 383 304 401 b 333 501 328 445 333 471 z m 333 965 l 181 965 l 181 813 l 333 813 z "},"À":{"ha":535,"x_min":0,"x_max":0,"o":"m 267 1000 l 356 1000 l 238 1236 l 108 1236 z m 56 0 l 208 0 l 208 347 l 326 410 l 326 0 l 479 0 l 479 833 b 442 927 479 870 467 902 b 354 965 418 953 388 965 l 181 965 b 92 927 146 965 117 953 b 56 833 68 902 56 870 z m 208 518 l 208 819 l 326 819 l 326 581 z "},"Á":{"ha":535,"x_min":0,"x_max":0,"o":"m 267 1000 l 427 1236 l 297 1236 l 178 1000 z m 56 0 l 208 0 l 208 347 l 326 410 l 326 0 l 479 0 l 479 833 b 442 927 479 870 467 902 b 354 965 418 953 388 965 l 181 965 b 92 927 146 965 117 953 b 56 833 68 902 56 870 z m 208 518 l 208 819 l 326 819 l 326 581 z "},"Â":{"ha":535,"x_min":0,"x_max":0,"o":"m 212 1188 l 87 1014 l 177 1014 l 267 1104 l 358 1014 l 448 1014 l 323 1188 z m 56 0 l 208 0 l 208 347 l 326 410 l 326 0 l 479 0 l 479 833 b 442 927 479 870 467 902 b 354 965 418 953 388 965 l 181 965 b 92 927 146 965 117 953 b 56 833 68 902 56 870 z m 208 518 l 208 819 l 326 819 l 326 581 z "},"Ã":{"ha":535,"x_min":0,"x_max":0,"o":"m 128 1125 l 128 1007 l 267 1076 l 267 1007 l 406 1076 l 406 1194 l 267 1125 l 267 1194 z m 56 0 l 208 0 l 208 347 l 326 410 l 326 0 l 479 0 l 479 833 b 442 927 479 870 467 902 b 354 965 418 953 388 965 l 181 965 b 92 927 146 965 117 953 b 56 833 68 902 56 870 z m 208 518 l 208 819 l 326 819 l 326 581 z "},"Ä":{"ha":535,"x_min":0,"x_max":0,"o":"m 295 1139 l 295 1000 l 420 1063 l 420 1201 z m 115 1139 l 115 1000 l 240 1063 l 240 1201 z m 56 0 l 208 0 l 208 347 l 326 410 l 326 0 l 479 0 l 479 833 b 442 927 479 870 467 902 b 354 965 418 953 388 965 l 181 965 b 92 927 146 965 117 953 b 56 833 68 902 56 870 z m 208 518 l 208 819 l 326 819 l 326 581 z "},"Å":{"ha":535,"x_min":0,"x_max":0,"o":"m 309 1069 l 226 1069 l 226 1153 l 309 1153 z m 323 1222 l 212 1222 b 147 1193 186 1222 164 1213 b 122 1132 130 1174 122 1153 l 122 1090 b 147 1029 122 1069 130 1049 b 212 1000 164 1010 186 1000 l 323 1000 b 388 1029 349 1000 370 1010 b 413 1090 405 1049 413 1069 l 413 1132 b 388 1193 413 1153 405 1174 b 323 1222 370 1213 349 1222 z m 56 0 l 208 0 l 208 347 l 326 410 l 326 0 l 479 0 l 479 833 b 442 927 479 870 467 902 b 354 965 418 953 388 965 l 181 965 b 92 927 146 965 117 953 b 56 833 68 902 56 870 z m 208 518 l 208 819 l 326 819 l 326 581 z "},"Æ":{"ha":736,"x_min":0,"x_max":0,"o":"m 326 0 l 694 0 l 694 146 l 479 146 l 479 403 l 694 514 l 694 685 l 479 574 l 479 819 l 694 819 l 694 965 l 514 965 b 426 927 480 965 450 953 b 403 895 416 917 408 907 b 380 926 397 906 390 916 b 292 965 355 952 326 965 l 181 965 b 92 927 146 965 117 953 b 56 833 68 902 56 870 l 56 0 l 208 0 l 208 264 l 326 326 z m 326 819 l 326 497 l 208 435 l 208 819 z "},"Ç":{"ha":521,"x_min":0,"x_max":0,"o":"m 302 -243 l 337 -49 l 232 -49 l 198 -243 z m 326 264 l 326 146 l 208 146 l 208 819 l 326 819 l 326 674 l 479 750 l 479 833 b 442 927 479 870 467 902 b 354 965 418 953 388 965 l 181 965 b 92 927 146 965 117 953 b 56 833 68 902 56 870 l 56 132 b 92 39 56 96 68 65 b 181 0 117 13 146 0 l 354 0 b 442 38 388 0 418 13 b 479 132 467 64 479 95 l 479 340 z "},"È":{"ha":465,"x_min":0,"x_max":0,"o":"m 240 1000 l 328 1000 l 210 1236 l 80 1236 z m 424 819 l 424 965 l 181 965 b 92 927 146 965 117 953 b 56 833 68 902 56 870 l 56 0 l 424 0 l 424 146 l 208 146 l 208 389 l 424 500 l 424 671 l 208 560 l 208 819 z "},"É":{"ha":465,"x_min":0,"x_max":0,"o":"m 240 1000 l 399 1236 l 269 1236 l 151 1000 z m 424 819 l 424 965 l 181 965 b 92 927 146 965 117 953 b 56 833 68 902 56 870 l 56 0 l 424 0 l 424 146 l 208 146 l 208 389 l 424 500 l 424 671 l 208 560 l 208 819 z "},"Ê":{"ha":465,"x_min":0,"x_max":0,"o":"m 184 1188 l 59 1014 l 149 1014 l 240 1104 l 330 1014 l 420 1014 l 295 1188 z m 424 819 l 424 965 l 181 965 b 92 927 146 965 117 953 b 56 833 68 902 56 870 l 56 0 l 424 0 l 424 146 l 208 146 l 208 389 l 424 500 l 424 671 l 208 560 l 208 819 z "},"Ë":{"ha":465,"x_min":0,"x_max":0,"o":"m 267 1139 l 267 1000 l 392 1063 l 392 1201 z m 87 1139 l 87 1000 l 212 1063 l 212 1201 z m 424 819 l 424 965 l 181 965 b 92 927 146 965 117 953 b 56 833 68 902 56 870 l 56 0 l 424 0 l 424 146 l 208 146 l 208 389 l 424 500 l 424 671 l 208 560 l 208 819 z "},"Ì":{"ha":264,"x_min":0,"x_max":0,"o":"m 132 1000 l 221 1000 l 103 1236 l -28 1236 z m 56 0 l 208 0 l 208 965 l 56 965 z "},"Í":{"ha":264,"x_min":0,"x_max":0,"o":"m 132 1000 l 292 1236 l 161 1236 l 43 1000 z m 56 0 l 208 0 l 208 965 l 56 965 z "},"Î":{"ha":264,"x_min":0,"x_max":0,"o":"m 76 1188 l -49 1014 l 42 1014 l 132 1104 l 222 1014 l 313 1014 l 188 1188 z m 56 0 l 208 0 l 208 965 l 56 965 z "},"Ï":{"ha":264,"x_min":0,"x_max":0,"o":"m 160 1139 l 160 1000 l 285 1063 l 285 1201 z m -21 1139 l -21 1000 l 104 1063 l 104 1201 z m 56 0 l 208 0 l 208 965 l 56 965 z "},"Ð":{"ha":556,"x_min":0,"x_max":0,"o":"m 76 560 l 21 532 l 21 361 l 76 389 l 76 0 l 375 0 b 463 38 409 0 439 13 b 500 132 488 64 500 95 l 500 833 b 463 927 500 870 488 902 b 375 965 439 953 409 965 l 76 965 z m 347 146 l 229 146 l 229 431 l 285 458 l 285 629 l 229 601 l 229 819 l 347 819 z "},"Ñ":{"ha":535,"x_min":0,"x_max":0,"o":"m 128 1125 l 128 1007 l 267 1076 l 267 1007 l 406 1076 l 406 1194 l 267 1125 l 267 1194 z m 208 0 l 208 819 l 326 819 l 326 0 l 479 0 l 479 833 b 442 927 479 870 467 902 b 354 965 418 953 388 965 l 319 965 b 231 927 285 965 256 953 b 208 895 222 917 214 907 l 208 965 l 56 965 l 56 0 z "},"Ò":{"ha":535,"x_min":0,"x_max":0,"o":"m 267 1000 l 356 1000 l 238 1236 l 108 1236 z m 479 833 b 442 927 479 870 467 902 b 354 965 418 953 388 965 l 181 965 b 92 927 146 965 117 953 b 56 833 68 902 56 870 l 56 132 b 92 39 56 96 68 65 b 181 0 117 13 146 0 l 354 0 b 442 38 388 0 418 13 b 479 132 467 64 479 95 z m 326 146 l 208 146 l 208 819 l 326 819 z "},"Ó":{"ha":535,"x_min":0,"x_max":0,"o":"m 267 1000 l 427 1236 l 297 1236 l 178 1000 z m 479 833 b 442 927 479 870 467 902 b 354 965 418 953 388 965 l 181 965 b 92 927 146 965 117 953 b 56 833 68 902 56 870 l 56 132 b 92 39 56 96 68 65 b 181 0 117 13 146 0 l 354 0 b 442 38 388 0 418 13 b 479 132 467 64 479 95 z m 326 146 l 208 146 l 208 819 l 326 819 z "},"Ô":{"ha":535,"x_min":0,"x_max":0,"o":"m 212 1188 l 87 1014 l 177 1014 l 267 1104 l 358 1014 l 448 1014 l 323 1188 z m 479 833 b 442 927 479 870 467 902 b 354 965 418 953 388 965 l 181 965 b 92 927 146 965 117 953 b 56 833 68 902 56 870 l 56 132 b 92 39 56 96 68 65 b 181 0 117 13 146 0 l 354 0 b 442 38 388 0 418 13 b 479 132 467 64 479 95 z m 326 146 l 208 146 l 208 819 l 326 819 z "},"Õ":{"ha":535,"x_min":0,"x_max":0,"o":"m 128 1125 l 128 1007 l 267 1076 l 267 1007 l 406 1076 l 406 1194 l 267 1125 l 267 1194 z m 479 833 b 442 927 479 870 467 902 b 354 965 418 953 388 965 l 181 965 b 92 927 146 965 117 953 b 56 833 68 902 56 870 l 56 132 b 92 39 56 96 68 65 b 181 0 117 13 146 0 l 354 0 b 442 38 388 0 418 13 b 479 132 467 64 479 95 z m 326 146 l 208 146 l 208 819 l 326 819 z "},"Ö":{"ha":535,"x_min":0,"x_max":0,"o":"m 295 1139 l 295 1000 l 420 1063 l 420 1201 z m 115 1139 l 115 1000 l 240 1063 l 240 1201 z m 479 833 b 442 927 479 870 467 902 b 354 965 418 953 388 965 l 181 965 b 92 927 146 965 117 953 b 56 833 68 902 56 870 l 56 132 b 92 39 56 96 68 65 b 181 0 117 13 146 0 l 354 0 b 442 38 388 0 418 13 b 479 132 467 64 479 95 z m 326 146 l 208 146 l 208 819 l 326 819 z "},"×":{"ha":792,"x_min":0,"x_max":0,"o":"m 319 278 l 472 278 l 472 431 l 319 431 z "},"Ø":{"ha":535,"x_min":0,"x_max":0,"o":"m 326 146 l 208 146 l 208 819 l 326 819 z m 479 833 b 449 920 479 867 469 896 l 479 1035 l 371 1035 l 352 965 l 181 965 b 92 927 146 965 117 953 b 56 833 68 902 56 870 l 56 132 b 86 46 56 99 66 70 l 56 -69 l 164 -69 l 182 0 l 354 0 b 442 38 388 0 418 13 b 479 132 467 64 479 95 z "},"Ù":{"ha":535,"x_min":0,"x_max":0,"o":"m 267 1000 l 356 1000 l 238 1236 l 108 1236 z m 479 965 l 326 965 l 326 146 l 208 146 l 208 965 l 56 965 l 56 132 b 92 39 56 96 68 65 b 181 0 117 13 146 0 l 354 0 b 442 38 388 0 418 13 b 479 132 467 64 479 95 z "},"Ú":{"ha":535,"x_min":0,"x_max":0,"o":"m 267 1000 l 427 1236 l 297 1236 l 178 1000 z m 479 965 l 326 965 l 326 146 l 208 146 l 208 965 l 56 965 l 56 132 b 92 39 56 96 68 65 b 181 0 117 13 146 0 l 354 0 b 442 38 388 0 418 13 b 479 132 467 64 479 95 z "},"Û":{"ha":535,"x_min":0,"x_max":0,"o":"m 212 1188 l 87 1014 l 177 1014 l 267 1104 l 358 1014 l 448 1014 l 323 1188 z m 479 965 l 326 965 l 326 146 l 208 146 l 208 965 l 56 965 l 56 132 b 92 39 56 96 68 65 b 181 0 117 13 146 0 l 354 0 b 442 38 388 0 418 13 b 479 132 467 64 479 95 z "},"Ü":{"ha":535,"x_min":0,"x_max":0,"o":"m 295 1139 l 295 1000 l 420 1063 l 420 1201 z m 115 1139 l 115 1000 l 240 1063 l 240 1201 z m 479 965 l 326 965 l 326 146 l 208 146 l 208 965 l 56 965 l 56 132 b 92 39 56 96 68 65 b 181 0 117 13 146 0 l 354 0 b 442 38 388 0 418 13 b 479 132 467 64 479 95 z "},"Ý":{"ha":535,"x_min":0,"x_max":0,"o":"m 267 1000 l 427 1236 l 297 1236 l 178 1000 z m 56 965 l 56 313 l 326 451 l 326 146 l 208 146 l 208 257 l 56 181 l 56 132 b 92 39 56 96 68 65 b 181 0 117 13 146 0 l 354 0 b 442 38 388 0 418 13 b 479 132 467 64 479 95 l 479 965 l 326 965 l 326 622 l 208 560 l 208 965 z "},"Þ":{"ha":521,"x_min":0,"x_max":0,"o":"m 326 442 l 208 379 l 208 625 l 326 625 z m 208 0 l 208 208 l 479 352 l 479 639 b 442 733 479 676 467 707 b 354 771 418 758 388 771 l 208 771 l 208 965 l 56 965 l 56 0 z "},"ß":{"ha":792,"x_min":0,"x_max":0,"o":"m 56 833 l 56 0 l 208 0 l 208 819 l 611 819 l 389 708 b 336 650 365 696 347 676 b 319 569 325 623 319 596 l 319 250 l 583 382 l 583 146 l 472 146 l 472 236 l 319 160 l 319 132 b 356 38 319 95 332 64 b 444 0 381 13 410 0 l 611 0 b 699 39 645 0 675 13 b 736 132 724 65 736 96 l 736 601 l 472 469 l 472 583 l 667 681 b 719 736 688 693 706 712 b 736 819 731 756 736 784 l 736 833 b 699 927 736 870 724 902 b 611 965 675 953 645 965 l 181 965 b 92 927 146 965 117 953 b 56 833 68 902 56 870 z "},"à":{"ha":528,"x_min":0,"x_max":0,"o":"m 264 826 l 353 826 l 235 1063 l 104 1063 z m 181 0 l 208 0 b 297 38 243 0 272 13 b 319 70 306 48 314 59 l 319 0 l 472 0 l 472 639 b 435 733 472 676 460 707 b 347 771 411 758 381 771 l 181 771 b 92 732 146 771 117 758 b 56 639 68 706 56 675 l 56 479 l 208 556 l 208 625 l 319 625 l 319 521 l 56 389 l 56 132 b 92 38 56 95 68 64 b 181 0 117 13 146 0 z m 208 326 l 319 382 l 319 146 l 208 146 z "},"á":{"ha":528,"x_min":0,"x_max":0,"o":"m 264 826 l 424 1063 l 293 1063 l 175 826 z m 181 0 l 208 0 b 297 38 243 0 272 13 b 319 70 306 48 314 59 l 319 0 l 472 0 l 472 639 b 435 733 472 676 460 707 b 347 771 411 758 381 771 l 181 771 b 92 732 146 771 117 758 b 56 639 68 706 56 675 l 56 479 l 208 556 l 208 625 l 319 625 l 319 521 l 56 389 l 56 132 b 92 38 56 95 68 64 b 181 0 117 13 146 0 z m 208 326 l 319 382 l 319 146 l 208 146 z "},"â":{"ha":528,"x_min":0,"x_max":0,"o":"m 208 1014 l 83 840 l 174 840 l 264 931 l 354 840 l 444 840 l 319 1014 z m 181 0 l 208 0 b 297 38 243 0 272 13 b 319 70 306 48 314 59 l 319 0 l 472 0 l 472 639 b 435 733 472 676 460 707 b 347 771 411 758 381 771 l 181 771 b 92 732 146 771 117 758 b 56 639 68 706 56 675 l 56 479 l 208 556 l 208 625 l 319 625 l 319 521 l 56 389 l 56 132 b 92 38 56 95 68 64 b 181 0 117 13 146 0 z m 208 326 l 319 382 l 319 146 l 208 146 z "},"ã":{"ha":528,"x_min":0,"x_max":0,"o":"m 125 951 l 125 833 l 264 903 l 264 833 l 403 903 l 403 1021 l 264 951 l 264 1021 z m 181 0 l 208 0 b 297 38 243 0 272 13 b 319 70 306 48 314 59 l 319 0 l 472 0 l 472 639 b 435 733 472 676 460 707 b 347 771 411 758 381 771 l 181 771 b 92 732 146 771 117 758 b 56 639 68 706 56 675 l 56 479 l 208 556 l 208 625 l 319 625 l 319 521 l 56 389 l 56 132 b 92 38 56 95 68 64 b 181 0 117 13 146 0 z m 208 326 l 319 382 l 319 146 l 208 146 z "},"ä":{"ha":528,"x_min":0,"x_max":0,"o":"m 292 965 l 292 826 l 417 889 l 417 1028 z m 111 965 l 111 826 l 236 889 l 236 1028 z m 181 0 l 208 0 b 297 38 243 0 272 13 b 319 70 306 48 314 59 l 319 0 l 472 0 l 472 639 b 435 733 472 676 460 707 b 347 771 411 758 381 771 l 181 771 b 92 732 146 771 117 758 b 56 639 68 706 56 675 l 56 479 l 208 556 l 208 625 l 319 625 l 319 521 l 56 389 l 56 132 b 92 38 56 95 68 64 b 181 0 117 13 146 0 z m 208 326 l 319 382 l 319 146 l 208 146 z "},"å":{"ha":528,"x_min":0,"x_max":0,"o":"m 306 896 l 222 896 l 222 979 l 306 979 z m 319 1049 l 208 1049 b 144 1019 182 1049 161 1039 b 118 958 127 1000 118 980 l 118 917 b 144 856 118 895 127 875 b 208 826 161 836 182 826 l 319 826 b 384 856 345 826 367 836 b 410 917 401 875 410 895 l 410 958 b 384 1019 410 980 401 1000 b 319 1049 367 1039 345 1049 z m 181 0 l 208 0 b 297 38 243 0 272 13 b 319 70 306 48 314 59 l 319 0 l 472 0 l 472 639 b 435 733 472 676 460 707 b 347 771 411 758 381 771 l 181 771 b 92 732 146 771 117 758 b 56 639 68 706 56 675 l 56 479 l 208 556 l 208 625 l 319 625 l 319 521 l 56 389 l 56 132 b 92 38 56 95 68 64 b 181 0 117 13 146 0 z m 208 326 l 319 382 l 319 146 l 208 146 z "},"æ":{"ha":792,"x_min":0,"x_max":0,"o":"m 736 639 b 699 732 736 675 724 706 b 611 771 675 758 645 771 l 507 771 b 419 732 473 771 443 758 b 396 700 409 722 401 711 b 373 733 390 712 383 723 b 284 771 348 758 319 771 l 181 771 b 92 733 146 771 117 758 b 56 639 68 707 56 676 l 56 479 l 208 556 l 208 625 l 319 625 l 319 521 l 56 389 l 56 132 b 92 38 56 95 68 64 b 181 0 117 13 146 0 l 257 0 b 345 38 291 0 321 13 b 368 71 355 48 363 59 b 391 39 374 60 381 49 b 479 0 415 13 445 0 l 611 0 b 699 39 645 0 675 13 b 736 132 724 65 736 96 l 736 361 l 583 285 l 583 146 l 472 146 l 472 319 l 736 451 z m 472 458 l 472 625 l 583 625 l 583 514 z m 208 146 l 208 326 l 319 382 l 319 146 z "},"ç":{"ha":514,"x_min":0,"x_max":0,"o":"m 299 -243 l 333 -49 l 229 -49 l 195 -243 z m 319 257 l 319 146 l 208 146 l 208 625 l 319 625 l 319 479 l 472 556 l 472 639 b 435 733 472 676 460 707 b 347 771 411 758 381 771 l 181 771 b 92 733 146 771 117 758 b 56 639 68 707 56 676 l 56 132 b 92 39 56 96 68 65 b 181 0 117 13 146 0 l 347 0 b 435 38 381 0 411 13 b 472 132 460 64 472 95 l 472 333 z "},"è":{"ha":528,"x_min":0,"x_max":0,"o":"m 264 826 l 353 826 l 235 1063 l 104 1063 z m 56 639 l 56 132 b 92 38 56 95 68 64 b 181 0 117 13 146 0 l 347 0 b 435 39 381 0 411 13 b 472 132 460 65 472 96 l 472 361 l 319 285 l 319 146 l 208 146 l 208 319 l 472 451 l 472 639 b 435 733 472 676 460 707 b 347 771 411 758 381 771 l 181 771 b 92 733 146 771 117 758 b 56 639 68 708 56 677 z m 319 514 l 208 458 l 208 625 l 319 625 z "},"é":{"ha":528,"x_min":0,"x_max":0,"o":"m 264 826 l 424 1063 l 293 1063 l 175 826 z m 56 639 l 56 132 b 92 38 56 95 68 64 b 181 0 117 13 146 0 l 347 0 b 435 39 381 0 411 13 b 472 132 460 65 472 96 l 472 361 l 319 285 l 319 146 l 208 146 l 208 319 l 472 451 l 472 639 b 435 733 472 676 460 707 b 347 771 411 758 381 771 l 181 771 b 92 733 146 771 117 758 b 56 639 68 708 56 677 z m 319 514 l 208 458 l 208 625 l 319 625 z "},"ê":{"ha":528,"x_min":0,"x_max":0,"o":"m 208 1014 l 83 840 l 174 840 l 264 931 l 354 840 l 444 840 l 319 1014 z m 56 639 l 56 132 b 92 38 56 95 68 64 b 181 0 117 13 146 0 l 347 0 b 435 39 381 0 411 13 b 472 132 460 65 472 96 l 472 361 l 319 285 l 319 146 l 208 146 l 208 319 l 472 451 l 472 639 b 435 733 472 676 460 707 b 347 771 411 758 381 771 l 181 771 b 92 733 146 771 117 758 b 56 639 68 708 56 677 z m 319 514 l 208 458 l 208 625 l 319 625 z "},"ë":{"ha":528,"x_min":0,"x_max":0,"o":"m 292 965 l 292 826 l 417 889 l 417 1028 z m 111 965 l 111 826 l 236 889 l 236 1028 z m 56 639 l 56 132 b 92 38 56 95 68 64 b 181 0 117 13 146 0 l 347 0 b 435 39 381 0 411 13 b 472 132 460 65 472 96 l 472 361 l 319 285 l 319 146 l 208 146 l 208 319 l 472 451 l 472 639 b 435 733 472 676 460 707 b 347 771 411 758 381 771 l 181 771 b 92 733 146 771 117 758 b 56 639 68 708 56 677 z m 319 514 l 208 458 l 208 625 l 319 625 z "},"ì":{"ha":264,"x_min":0,"x_max":0,"o":"m 132 826 l 221 826 l 103 1063 l -28 1063 z m 56 0 l 208 0 l 208 771 l 56 771 z "},"í":{"ha":264,"x_min":0,"x_max":0,"o":"m 132 826 l 292 1063 l 161 1063 l 43 826 z m 56 0 l 208 0 l 208 771 l 56 771 z "},"î":{"ha":264,"x_min":0,"x_max":0,"o":"m 76 1014 l -49 840 l 42 840 l 132 931 l 222 840 l 313 840 l 188 1014 z m 56 0 l 208 0 l 208 771 l 56 771 z "},"ï":{"ha":306,"x_min":0,"x_max":0,"o":"m 181 947 l 181 808 l 306 871 l 306 1010 z m 0 858 l 0 719 l 125 782 l 125 921 z m 76 0 l 229 0 l 229 764 l 76 688 z "},"ð":{"ha":528,"x_min":0,"x_max":0,"o":"m 208 146 l 208 701 l 56 625 l 56 132 b 92 39 56 97 68 66 b 181 0 117 13 146 0 l 347 0 b 435 38 381 0 411 13 b 472 132 460 64 472 95 l 472 639 b 435 733 472 676 460 707 b 347 771 411 758 381 771 l 347 771 l 472 833 l 472 972 l 208 840 l 208 625 l 319 625 l 319 146 z "},"ñ":{"ha":528,"x_min":0,"x_max":0,"o":"m 125 951 l 125 833 l 264 903 l 264 833 l 403 903 l 403 1021 l 264 951 l 264 1021 z m 208 0 l 208 625 l 319 625 l 319 0 l 472 0 l 472 639 b 435 733 472 676 460 707 b 347 771 411 758 381 771 l 319 771 b 231 733 285 771 256 758 b 208 701 222 723 214 712 l 208 771 l 56 771 l 56 0 z "},"ò":{"ha":528,"x_min":0,"x_max":0,"o":"m 264 826 l 353 826 l 235 1063 l 104 1063 z m 472 639 b 435 733 472 676 460 707 b 347 771 411 758 381 771 l 181 771 b 92 733 146 771 117 758 b 56 639 68 707 56 676 l 56 132 b 92 39 56 96 68 65 b 181 0 117 13 146 0 l 347 0 b 435 38 381 0 411 13 b 472 132 460 64 472 95 z m 319 146 l 208 146 l 208 625 l 319 625 z "},"ó":{"ha":528,"x_min":0,"x_max":0,"o":"m 264 826 l 424 1063 l 293 1063 l 175 826 z m 472 639 b 435 733 472 676 460 707 b 347 771 411 758 381 771 l 181 771 b 92 733 146 771 117 758 b 56 639 68 707 56 676 l 56 132 b 92 39 56 96 68 65 b 181 0 117 13 146 0 l 347 0 b 435 38 381 0 411 13 b 472 132 460 64 472 95 z m 319 146 l 208 146 l 208 625 l 319 625 z "},"ô":{"ha":528,"x_min":0,"x_max":0,"o":"m 208 1014 l 83 840 l 174 840 l 264 931 l 354 840 l 444 840 l 319 1014 z m 472 639 b 435 733 472 676 460 707 b 347 771 411 758 381 771 l 181 771 b 92 733 146 771 117 758 b 56 639 68 707 56 676 l 56 132 b 92 39 56 96 68 65 b 181 0 117 13 146 0 l 347 0 b 435 38 381 0 411 13 b 472 132 460 64 472 95 z m 319 146 l 208 146 l 208 625 l 319 625 z "},"õ":{"ha":528,"x_min":0,"x_max":0,"o":"m 125 951 l 125 833 l 264 903 l 264 833 l 403 903 l 403 1021 l 264 951 l 264 1021 z m 472 639 b 435 733 472 676 460 707 b 347 771 411 758 381 771 l 181 771 b 92 733 146 771 117 758 b 56 639 68 707 56 676 l 56 132 b 92 39 56 96 68 65 b 181 0 117 13 146 0 l 347 0 b 435 38 381 0 411 13 b 472 132 460 64 472 95 z m 319 146 l 208 146 l 208 625 l 319 625 z "},"ö":{"ha":528,"x_min":0,"x_max":0,"o":"m 292 965 l 292 826 l 417 889 l 417 1028 z m 111 965 l 111 826 l 236 889 l 236 1028 z m 472 639 b 435 733 472 676 460 707 b 347 771 411 758 381 771 l 181 771 b 92 733 146 771 117 758 b 56 639 68 707 56 676 l 56 132 b 92 39 56 96 68 65 b 181 0 117 13 146 0 l 347 0 b 435 38 381 0 411 13 b 472 132 460 64 472 95 z m 319 146 l 208 146 l 208 625 l 319 625 z "},"÷":{"ha":792,"x_min":0,"x_max":0,"o":"m 319 14 l 472 14 l 472 167 l 319 167 z m 319 535 l 472 535 l 472 688 l 319 688 z m 56 278 l 736 278 l 736 424 l 56 424 z "},"ø":{"ha":528,"x_min":0,"x_max":0,"o":"m 319 146 l 208 146 l 208 625 l 319 625 z m 472 639 b 442 726 472 673 462 702 l 472 840 l 364 840 l 345 771 l 181 771 b 92 733 146 771 117 758 b 56 639 68 707 56 676 l 56 132 b 86 46 56 99 66 70 l 56 -69 l 164 -69 l 182 0 l 347 0 b 435 38 381 0 411 13 b 472 132 460 64 472 95 z "},"ù":{"ha":528,"x_min":0,"x_max":0,"o":"m 264 826 l 353 826 l 235 1063 l 104 1063 z m 319 771 l 319 146 l 208 146 l 208 771 l 56 771 l 56 132 b 92 38 56 95 68 64 b 181 0 117 13 146 0 l 208 0 b 297 38 243 0 272 13 b 319 70 306 48 314 59 l 319 0 l 472 0 l 472 771 z "},"ú":{"ha":528,"x_min":0,"x_max":0,"o":"m 264 826 l 424 1063 l 293 1063 l 175 826 z m 319 771 l 319 146 l 208 146 l 208 771 l 56 771 l 56 132 b 92 38 56 95 68 64 b 181 0 117 13 146 0 l 208 0 b 297 38 243 0 272 13 b 319 70 306 48 314 59 l 319 0 l 472 0 l 472 771 z "},"û":{"ha":528,"x_min":0,"x_max":0,"o":"m 208 1014 l 83 840 l 174 840 l 264 931 l 354 840 l 444 840 l 319 1014 z m 319 771 l 319 146 l 208 146 l 208 771 l 56 771 l 56 132 b 92 38 56 95 68 64 b 181 0 117 13 146 0 l 208 0 b 297 38 243 0 272 13 b 319 70 306 48 314 59 l 319 0 l 472 0 l 472 771 z "},"ü":{"ha":528,"x_min":0,"x_max":0,"o":"m 292 965 l 292 826 l 417 889 l 417 1028 z m 111 965 l 111 826 l 236 889 l 236 1028 z m 319 771 l 319 146 l 208 146 l 208 771 l 56 771 l 56 132 b 92 38 56 95 68 64 b 181 0 117 13 146 0 l 208 0 b 297 38 243 0 272 13 b 319 70 306 48 314 59 l 319 0 l 472 0 l 472 771 z "},"ý":{"ha":528,"x_min":0,"x_max":0,"o":"m 264 826 l 424 1063 l 293 1063 l 175 826 z m 319 771 l 319 361 l 208 306 l 208 771 l 56 771 l 56 76 l 319 208 l 319 -49 l 208 -49 l 208 62 l 56 -14 l 56 -62 b 92 -156 56 -99 68 -130 b 181 -194 117 -181 146 -194 l 347 -194 b 435 -156 381 -194 411 -182 b 472 -62 460 -131 472 -100 l 472 771 z "},"þ":{"ha":528,"x_min":0,"x_max":0,"o":"m 208 146 l 208 625 l 319 625 l 319 146 z m 208 701 l 208 1000 l 56 924 l 56 -194 l 208 -194 l 208 70 b 231 38 214 59 222 48 b 319 0 256 13 285 0 l 347 0 b 435 38 381 0 411 13 b 472 132 460 64 472 95 l 472 639 b 435 732 472 675 460 706 b 347 771 411 758 381 771 l 319 771 b 231 733 285 771 256 758 b 208 701 222 723 214 712 z "},"ÿ":{"ha":528,"x_min":0,"x_max":0,"o":"m 292 965 l 292 826 l 417 889 l 417 1028 z m 111 965 l 111 826 l 236 889 l 236 1028 z m 319 771 l 319 361 l 208 306 l 208 771 l 56 771 l 56 76 l 319 208 l 319 -49 l 208 -49 l 208 62 l 56 -14 l 56 -62 b 92 -156 56 -99 68 -130 b 181 -194 117 -181 146 -194 l 347 -194 b 435 -156 381 -194 411 -182 b 472 -62 460 -131 472 -100 l 472 771 z "},"Ā":{"ha":535,"x_min":0,"x_max":0,"o":"m 135 1153 l 135 1049 l 399 1049 l 399 1153 z m 56 0 l 208 0 l 208 347 l 326 410 l 326 0 l 479 0 l 479 833 b 442 927 479 870 467 902 b 354 965 418 953 388 965 l 181 965 b 92 927 146 965 117 953 b 56 833 68 902 56 870 z m 208 518 l 208 819 l 326 819 l 326 581 z "},"ā":{"ha":528,"x_min":0,"x_max":0,"o":"m 132 979 l 132 875 l 396 875 l 396 979 z m 181 0 l 208 0 b 297 38 243 0 272 13 b 319 70 306 48 314 59 l 319 0 l 472 0 l 472 639 b 435 733 472 676 460 707 b 347 771 411 758 381 771 l 181 771 b 92 732 146 771 117 758 b 56 639 68 706 56 675 l 56 479 l 208 556 l 208 625 l 319 625 l 319 521 l 56 389 l 56 132 b 92 38 56 95 68 64 b 181 0 117 13 146 0 z m 208 326 l 319 382 l 319 146 l 208 146 z "},"Ă":{"ha":535,"x_min":0,"x_max":0,"o":"m 191 1153 l 191 1208 l 87 1208 l 87 1153 b 142 1052 87 1106 105 1073 b 267 1021 178 1031 220 1021 b 393 1052 315 1021 356 1031 b 448 1153 430 1073 448 1106 l 448 1208 l 344 1208 l 344 1153 z m 56 0 l 208 0 l 208 347 l 326 410 l 326 0 l 479 0 l 479 833 b 442 927 479 870 467 902 b 354 965 418 953 388 965 l 181 965 b 92 927 146 965 117 953 b 56 833 68 902 56 870 z m 208 518 l 208 819 l 326 819 l 326 581 z "},"ă":{"ha":528,"x_min":0,"x_max":0,"o":"m 188 979 l 188 1035 l 83 1035 l 83 979 b 138 878 83 933 102 899 b 264 847 175 858 217 847 b 390 878 311 847 353 858 b 444 979 426 899 444 933 l 444 1035 l 340 1035 l 340 979 z m 181 0 l 208 0 b 297 38 243 0 272 13 b 319 70 306 48 314 59 l 319 0 l 472 0 l 472 639 b 435 733 472 676 460 707 b 347 771 411 758 381 771 l 181 771 b 92 732 146 771 117 758 b 56 639 68 706 56 675 l 56 479 l 208 556 l 208 625 l 319 625 l 319 521 l 56 389 l 56 132 b 92 38 56 95 68 64 b 181 0 117 13 146 0 z m 208 326 l 319 382 l 319 146 l 208 146 z "},"Ą":{"ha":535,"x_min":0,"x_max":0,"o":"m 302 -243 l 378 -243 l 378 -139 l 316 -139 l 316 0 l 212 0 l 212 -153 b 241 -217 212 -179 222 -200 b 302 -243 260 -234 281 -243 z m 56 0 l 208 0 l 208 347 l 326 410 l 326 0 l 479 0 l 479 833 b 442 927 479 870 467 902 b 354 965 418 953 388 965 l 181 965 b 92 927 146 965 117 953 b 56 833 68 902 56 870 z m 208 518 l 208 819 l 326 819 l 326 581 z "},"ą":{"ha":528,"x_min":0,"x_max":0,"o":"m 299 -243 l 375 -243 l 375 -139 l 313 -139 l 313 0 l 208 0 l 208 -153 b 238 -217 208 -179 218 -200 b 299 -243 257 -234 277 -243 z m 181 0 l 208 0 b 297 38 243 0 272 13 b 319 70 306 48 314 59 l 319 0 l 472 0 l 472 639 b 435 733 472 676 460 707 b 347 771 411 758 381 771 l 181 771 b 92 732 146 771 117 758 b 56 639 68 706 56 675 l 56 479 l 208 556 l 208 625 l 319 625 l 319 521 l 56 389 l 56 132 b 92 38 56 95 68 64 b 181 0 117 13 146 0 z m 208 326 l 319 382 l 319 146 l 208 146 z "},"Ć":{"ha":521,"x_min":0,"x_max":0,"o":"m 267 1000 l 427 1236 l 297 1236 l 178 1000 z m 326 264 l 326 146 l 208 146 l 208 819 l 326 819 l 326 674 l 479 750 l 479 833 b 442 927 479 870 467 902 b 354 965 418 953 388 965 l 181 965 b 92 927 146 965 117 953 b 56 833 68 902 56 870 l 56 132 b 92 39 56 96 68 65 b 181 0 117 13 146 0 l 354 0 b 442 38 388 0 418 13 b 479 132 467 64 479 95 l 479 340 z "},"ć":{"ha":514,"x_min":0,"x_max":0,"o":"m 264 826 l 424 1063 l 293 1063 l 175 826 z m 319 257 l 319 146 l 208 146 l 208 625 l 319 625 l 319 479 l 472 556 l 472 639 b 435 733 472 676 460 707 b 347 771 411 758 381 771 l 181 771 b 92 733 146 771 117 758 b 56 639 68 707 56 676 l 56 132 b 92 39 56 96 68 65 b 181 0 117 13 146 0 l 347 0 b 435 38 381 0 411 13 b 472 132 460 64 472 95 l 472 333 z "},"Ĉ":{"ha":521,"x_min":0,"x_max":0,"o":"m 212 1188 l 87 1014 l 177 1014 l 267 1104 l 358 1014 l 448 1014 l 323 1188 z m 326 264 l 326 146 l 208 146 l 208 819 l 326 819 l 326 674 l 479 750 l 479 833 b 442 927 479 870 467 902 b 354 965 418 953 388 965 l 181 965 b 92 927 146 965 117 953 b 56 833 68 902 56 870 l 56 132 b 92 39 56 96 68 65 b 181 0 117 13 146 0 l 354 0 b 442 38 388 0 418 13 b 479 132 467 64 479 95 l 479 340 z "},"ĉ":{"ha":514,"x_min":0,"x_max":0,"o":"m 208 1014 l 83 840 l 174 840 l 264 931 l 354 840 l 444 840 l 319 1014 z m 319 257 l 319 146 l 208 146 l 208 625 l 319 625 l 319 479 l 472 556 l 472 639 b 435 733 472 676 460 707 b 347 771 411 758 381 771 l 181 771 b 92 733 146 771 117 758 b 56 639 68 707 56 676 l 56 132 b 92 39 56 96 68 65 b 181 0 117 13 146 0 l 347 0 b 435 38 381 0 411 13 b 472 132 460 64 472 95 l 472 333 z "},"Ċ":{"ha":521,"x_min":0,"x_max":0,"o":"m 191 1132 l 191 993 l 344 1069 l 344 1208 z m 326 264 l 326 146 l 208 146 l 208 819 l 326 819 l 326 674 l 479 750 l 479 833 b 442 927 479 870 467 902 b 354 965 418 953 388 965 l 181 965 b 92 927 146 965 117 953 b 56 833 68 902 56 870 l 56 132 b 92 39 56 96 68 65 b 181 0 117 13 146 0 l 354 0 b 442 38 388 0 418 13 b 479 132 467 64 479 95 l 479 340 z "},"ċ":{"ha":514,"x_min":0,"x_max":0,"o":"m 188 958 l 188 819 l 340 896 l 340 1035 z m 319 257 l 319 146 l 208 146 l 208 625 l 319 625 l 319 479 l 472 556 l 472 639 b 435 733 472 676 460 707 b 347 771 411 758 381 771 l 181 771 b 92 733 146 771 117 758 b 56 639 68 707 56 676 l 56 132 b 92 39 56 96 68 65 b 181 0 117 13 146 0 l 347 0 b 435 38 381 0 411 13 b 472 132 460 64 472 95 l 472 333 z "},"Č":{"ha":521,"x_min":0,"x_max":0,"o":"m 323 1014 l 448 1188 l 358 1188 l 267 1097 l 177 1188 l 87 1188 l 212 1014 z m 326 264 l 326 146 l 208 146 l 208 819 l 326 819 l 326 674 l 479 750 l 479 833 b 442 927 479 870 467 902 b 354 965 418 953 388 965 l 181 965 b 92 927 146 965 117 953 b 56 833 68 902 56 870 l 56 132 b 92 39 56 96 68 65 b 181 0 117 13 146 0 l 354 0 b 442 38 388 0 418 13 b 479 132 467 64 479 95 l 479 340 z "},"č":{"ha":514,"x_min":0,"x_max":0,"o":"m 319 840 l 444 1014 l 354 1014 l 264 924 l 174 1014 l 83 1014 l 208 840 z m 319 257 l 319 146 l 208 146 l 208 625 l 319 625 l 319 479 l 472 556 l 472 639 b 435 733 472 676 460 707 b 347 771 411 758 381 771 l 181 771 b 92 733 146 771 117 758 b 56 639 68 707 56 676 l 56 132 b 92 39 56 96 68 65 b 181 0 117 13 146 0 l 347 0 b 435 38 381 0 411 13 b 472 132 460 64 472 95 l 472 333 z "},"Ď":{"ha":535,"x_min":0,"x_max":0,"o":"m 323 1014 l 448 1188 l 358 1188 l 267 1097 l 177 1188 l 87 1188 l 212 1014 z m 56 0 l 354 0 b 442 38 388 0 418 13 b 479 132 467 64 479 95 l 479 833 b 442 927 479 870 467 902 b 354 965 418 953 388 965 l 56 965 z m 326 146 l 208 146 l 208 819 l 326 819 z "},"ď":{"ha":660,"x_min":0,"x_max":0,"o":"m 569 688 l 625 688 l 667 813 l 667 965 l 514 965 l 514 813 l 569 813 z m 319 625 l 319 146 l 208 146 l 208 625 z m 319 70 l 319 0 l 472 0 l 472 1000 l 319 924 l 319 701 b 297 733 314 712 306 723 b 208 771 272 758 243 771 l 181 771 b 92 733 146 771 117 758 b 56 639 68 707 56 676 l 56 132 b 92 39 56 96 68 65 b 181 0 117 13 146 0 l 208 0 b 297 38 243 0 272 13 b 319 70 306 48 314 59 z "},"Đ":{"ha":556,"x_min":0,"x_max":0,"o":"m 76 560 l 21 532 l 21 361 l 76 389 l 76 0 l 375 0 b 463 38 409 0 439 13 b 500 132 488 64 500 95 l 500 833 b 463 927 500 870 488 902 b 375 965 439 953 409 965 l 76 965 z m 347 146 l 229 146 l 229 431 l 285 458 l 285 629 l 229 601 l 229 819 l 347 819 z "},"đ":{"ha":528,"x_min":0,"x_max":0,"o":"m 278 813 l 319 813 l 319 701 b 297 733 314 712 306 723 b 208 771 272 758 243 771 l 181 771 b 92 733 146 771 117 758 b 56 639 68 707 56 676 l 56 132 b 92 39 56 96 68 65 b 181 0 117 13 146 0 l 208 0 b 297 38 243 0 272 13 b 319 70 306 48 314 59 l 319 0 l 472 0 l 472 813 l 514 813 l 514 917 l 472 917 l 472 965 l 319 965 l 319 917 l 278 917 z m 319 625 l 319 146 l 208 146 l 208 625 z "},"Ē":{"ha":465,"x_min":0,"x_max":0,"o":"m 108 1153 l 108 1049 l 372 1049 l 372 1153 z m 424 819 l 424 965 l 181 965 b 92 927 146 965 117 953 b 56 833 68 902 56 870 l 56 0 l 424 0 l 424 146 l 208 146 l 208 389 l 424 500 l 424 671 l 208 560 l 208 819 z "},"ē":{"ha":528,"x_min":0,"x_max":0,"o":"m 132 979 l 132 875 l 396 875 l 396 979 z m 56 639 l 56 132 b 92 38 56 95 68 64 b 181 0 117 13 146 0 l 347 0 b 435 39 381 0 411 13 b 472 132 460 65 472 96 l 472 361 l 319 285 l 319 146 l 208 146 l 208 319 l 472 451 l 472 639 b 435 733 472 676 460 707 b 347 771 411 758 381 771 l 181 771 b 92 733 146 771 117 758 b 56 639 68 708 56 677 z m 319 514 l 208 458 l 208 625 l 319 625 z "},"Ĕ":{"ha":465,"x_min":0,"x_max":0,"o":"m 163 1153 l 163 1208 l 59 1208 l 59 1153 b 114 1052 59 1106 77 1073 b 240 1021 150 1031 192 1021 b 365 1052 287 1021 329 1031 b 420 1153 402 1073 420 1106 l 420 1208 l 316 1208 l 316 1153 z m 424 819 l 424 965 l 181 965 b 92 927 146 965 117 953 b 56 833 68 902 56 870 l 56 0 l 424 0 l 424 146 l 208 146 l 208 389 l 424 500 l 424 671 l 208 560 l 208 819 z "},"ĕ":{"ha":528,"x_min":0,"x_max":0,"o":"m 188 979 l 188 1035 l 83 1035 l 83 979 b 138 878 83 933 102 899 b 264 847 175 858 217 847 b 390 878 311 847 353 858 b 444 979 426 899 444 933 l 444 1035 l 340 1035 l 340 979 z m 56 639 l 56 132 b 92 38 56 95 68 64 b 181 0 117 13 146 0 l 347 0 b 435 39 381 0 411 13 b 472 132 460 65 472 96 l 472 361 l 319 285 l 319 146 l 208 146 l 208 319 l 472 451 l 472 639 b 435 733 472 676 460 707 b 347 771 411 758 381 771 l 181 771 b 92 733 146 771 117 758 b 56 639 68 708 56 677 z m 319 514 l 208 458 l 208 625 l 319 625 z "},"Ė":{"ha":465,"x_min":0,"x_max":0,"o":"m 163 1132 l 163 993 l 316 1069 l 316 1208 z m 424 819 l 424 965 l 181 965 b 92 927 146 965 117 953 b 56 833 68 902 56 870 l 56 0 l 424 0 l 424 146 l 208 146 l 208 389 l 424 500 l 424 671 l 208 560 l 208 819 z "},"ė":{"ha":528,"x_min":0,"x_max":0,"o":"m 188 958 l 188 819 l 340 896 l 340 1035 z m 56 639 l 56 132 b 92 38 56 95 68 64 b 181 0 117 13 146 0 l 347 0 b 435 39 381 0 411 13 b 472 132 460 65 472 96 l 472 361 l 319 285 l 319 146 l 208 146 l 208 319 l 472 451 l 472 639 b 435 733 472 676 460 707 b 347 771 411 758 381 771 l 181 771 b 92 733 146 771 117 758 b 56 639 68 708 56 677 z m 319 514 l 208 458 l 208 625 l 319 625 z "},"Ę":{"ha":465,"x_min":0,"x_max":0,"o":"m 274 -243 l 351 -243 l 351 -139 l 288 -139 l 288 0 l 184 0 l 184 -153 b 213 -217 184 -179 194 -200 b 274 -243 233 -234 253 -243 z m 424 819 l 424 965 l 181 965 b 92 927 146 965 117 953 b 56 833 68 902 56 870 l 56 0 l 424 0 l 424 146 l 208 146 l 208 389 l 424 500 l 424 671 l 208 560 l 208 819 z "},"ę":{"ha":528,"x_min":0,"x_max":0,"o":"m 299 -243 l 375 -243 l 375 -139 l 313 -139 l 313 0 l 208 0 l 208 -153 b 238 -217 208 -179 218 -200 b 299 -243 257 -234 277 -243 z m 56 639 l 56 132 b 92 38 56 95 68 64 b 181 0 117 13 146 0 l 347 0 b 435 39 381 0 411 13 b 472 132 460 65 472 96 l 472 361 l 319 285 l 319 146 l 208 146 l 208 319 l 472 451 l 472 639 b 435 733 472 676 460 707 b 347 771 411 758 381 771 l 181 771 b 92 733 146 771 117 758 b 56 639 68 708 56 677 z m 319 514 l 208 458 l 208 625 l 319 625 z "},"Ě":{"ha":465,"x_min":0,"x_max":0,"o":"m 295 1014 l 420 1188 l 330 1188 l 240 1097 l 149 1188 l 59 1188 l 184 1014 z m 424 819 l 424 965 l 181 965 b 92 927 146 965 117 953 b 56 833 68 902 56 870 l 56 0 l 424 0 l 424 146 l 208 146 l 208 389 l 424 500 l 424 671 l 208 560 l 208 819 z "},"ě":{"ha":528,"x_min":0,"x_max":0,"o":"m 319 840 l 444 1014 l 354 1014 l 264 924 l 174 1014 l 83 1014 l 208 840 z m 56 639 l 56 132 b 92 38 56 95 68 64 b 181 0 117 13 146 0 l 347 0 b 435 39 381 0 411 13 b 472 132 460 65 472 96 l 472 361 l 319 285 l 319 146 l 208 146 l 208 319 l 472 451 l 472 639 b 435 733 472 676 460 707 b 347 771 411 758 381 771 l 181 771 b 92 733 146 771 117 758 b 56 639 68 708 56 677 z m 319 514 l 208 458 l 208 625 l 319 625 z "},"Ĝ":{"ha":535,"x_min":0,"x_max":0,"o":"m 212 1188 l 87 1014 l 177 1014 l 267 1104 l 358 1014 l 448 1014 l 323 1188 z m 181 0 l 479 0 l 479 636 l 264 525 l 264 354 l 326 386 l 326 146 l 208 146 l 208 819 l 326 819 l 326 646 l 479 726 l 479 833 b 442 927 479 870 467 902 b 354 965 418 953 388 965 l 181 965 b 92 927 146 965 117 953 b 56 833 68 902 56 870 l 56 132 b 92 39 56 96 68 65 b 181 0 117 13 146 0 z "},"ĝ":{"ha":528,"x_min":0,"x_max":0,"o":"m 208 1014 l 83 840 l 174 840 l 264 931 l 354 840 l 444 840 l 319 1014 z m 208 299 l 208 625 l 319 625 l 319 354 z m 472 -62 l 472 771 l 319 771 l 319 701 b 297 733 314 712 306 723 b 208 771 272 758 243 771 l 181 771 b 92 732 146 771 117 758 b 56 639 68 706 56 675 l 56 76 l 319 208 l 319 -49 l 208 -49 l 208 62 l 56 -14 l 56 -62 b 92 -156 56 -99 68 -130 b 181 -194 117 -181 146 -194 l 347 -194 b 435 -156 381 -194 411 -182 b 472 -62 460 -131 472 -100 z "},"Ğ":{"ha":535,"x_min":0,"x_max":0,"o":"m 191 1153 l 191 1208 l 87 1208 l 87 1153 b 142 1052 87 1106 105 1073 b 267 1021 178 1031 220 1021 b 393 1052 315 1021 356 1031 b 448 1153 430 1073 448 1106 l 448 1208 l 344 1208 l 344 1153 z m 181 0 l 479 0 l 479 636 l 264 525 l 264 354 l 326 386 l 326 146 l 208 146 l 208 819 l 326 819 l 326 646 l 479 726 l 479 833 b 442 927 479 870 467 902 b 354 965 418 953 388 965 l 181 965 b 92 927 146 965 117 953 b 56 833 68 902 56 870 l 56 132 b 92 39 56 96 68 65 b 181 0 117 13 146 0 z "},"ğ":{"ha":528,"x_min":0,"x_max":0,"o":"m 188 979 l 188 1035 l 83 1035 l 83 979 b 138 878 83 933 102 899 b 264 847 175 858 217 847 b 390 878 311 847 353 858 b 444 979 426 899 444 933 l 444 1035 l 340 1035 l 340 979 z m 208 299 l 208 625 l 319 625 l 319 354 z m 472 -62 l 472 771 l 319 771 l 319 701 b 297 733 314 712 306 723 b 208 771 272 758 243 771 l 181 771 b 92 732 146 771 117 758 b 56 639 68 706 56 675 l 56 76 l 319 208 l 319 -49 l 208 -49 l 208 62 l 56 -14 l 56 -62 b 92 -156 56 -99 68 -130 b 181 -194 117 -181 146 -194 l 347 -194 b 435 -156 381 -194 411 -182 b 472 -62 460 -131 472 -100 z "},"Ġ":{"ha":535,"x_min":0,"x_max":0,"o":"m 191 1132 l 191 993 l 344 1069 l 344 1208 z m 181 0 l 479 0 l 479 636 l 264 525 l 264 354 l 326 386 l 326 146 l 208 146 l 208 819 l 326 819 l 326 646 l 479 726 l 479 833 b 442 927 479 870 467 902 b 354 965 418 953 388 965 l 181 965 b 92 927 146 965 117 953 b 56 833 68 902 56 870 l 56 132 b 92 39 56 96 68 65 b 181 0 117 13 146 0 z "},"ġ":{"ha":528,"x_min":0,"x_max":0,"o":"m 188 958 l 188 819 l 340 896 l 340 1035 z m 208 299 l 208 625 l 319 625 l 319 354 z m 472 -62 l 472 771 l 319 771 l 319 701 b 297 733 314 712 306 723 b 208 771 272 758 243 771 l 181 771 b 92 732 146 771 117 758 b 56 639 68 706 56 675 l 56 76 l 319 208 l 319 -49 l 208 -49 l 208 62 l 56 -14 l 56 -62 b 92 -156 56 -99 68 -130 b 181 -194 117 -181 146 -194 l 347 -194 b 435 -156 381 -194 411 -182 b 472 -62 460 -131 472 -100 z "},"Ģ":{"ha":535,"x_min":0,"x_max":0,"o":"m 191 -278 l 344 -201 l 344 -49 l 191 -49 z m 181 0 l 479 0 l 479 636 l 264 525 l 264 354 l 326 386 l 326 146 l 208 146 l 208 819 l 326 819 l 326 646 l 479 726 l 479 833 b 442 927 479 870 467 902 b 354 965 418 953 388 965 l 181 965 b 92 927 146 965 117 953 b 56 833 68 902 56 870 l 56 132 b 92 39 56 96 68 65 b 181 0 117 13 146 0 z "},"ģ":{"ha":528,"x_min":0,"x_max":0,"o":"m 340 1056 l 188 979 l 188 826 l 340 826 z m 208 299 l 208 625 l 319 625 l 319 354 z m 472 -62 l 472 771 l 319 771 l 319 701 b 297 733 314 712 306 723 b 208 771 272 758 243 771 l 181 771 b 92 732 146 771 117 758 b 56 639 68 706 56 675 l 56 76 l 319 208 l 319 -49 l 208 -49 l 208 62 l 56 -14 l 56 -62 b 92 -156 56 -99 68 -130 b 181 -194 117 -181 146 -194 l 347 -194 b 435 -156 381 -194 411 -182 b 472 -62 460 -131 472 -100 z "},"Ĥ":{"ha":535,"x_min":0,"x_max":0,"o":"m 212 1188 l 87 1014 l 177 1014 l 267 1104 l 358 1014 l 448 1014 l 323 1188 z m 326 446 l 326 0 l 479 0 l 479 965 l 326 965 l 326 617 l 208 554 l 208 965 l 56 965 l 56 0 l 208 0 l 208 383 z "},"ĥ":{"ha":528,"x_min":0,"x_max":0,"o":"m 285 1014 l 208 908 l 208 1000 l 56 924 l 56 0 l 208 0 l 208 625 l 319 625 l 319 0 l 472 0 l 472 639 b 435 733 472 676 460 707 b 347 771 411 758 381 771 l 319 771 b 231 733 285 771 256 758 b 208 701 222 723 214 712 l 208 840 l 250 840 l 340 931 l 431 840 l 521 840 l 396 1014 z "},"Ħ":{"ha":535,"x_min":0,"x_max":0,"o":"m 326 446 l 326 0 l 479 0 l 479 720 l 510 736 l 510 861 l 479 845 l 479 965 l 326 965 l 326 769 l 208 710 l 208 965 l 56 965 l 56 634 l 24 618 l 24 493 l 56 509 l 56 0 l 208 0 l 208 383 z m 326 644 l 326 617 l 208 554 l 208 585 z "},"ħ":{"ha":528,"x_min":0,"x_max":0,"o":"m 208 0 l 208 625 l 319 625 l 319 0 l 472 0 l 472 639 b 435 733 472 676 460 707 b 347 771 411 758 381 771 l 319 771 b 231 733 285 771 256 758 b 208 701 222 723 214 712 l 208 781 l 257 806 l 257 931 l 208 906 l 208 1000 l 56 924 l 56 830 l 21 813 l 21 688 l 56 705 l 56 0 z "},"Ĩ":{"ha":264,"x_min":0,"x_max":0,"o":"m -7 1125 l -7 1007 l 132 1076 l 132 1007 l 271 1076 l 271 1194 l 132 1125 l 132 1194 z m 56 0 l 208 0 l 208 965 l 56 965 z "},"ĩ":{"ha":264,"x_min":0,"x_max":0,"o":"m -7 951 l -7 833 l 132 903 l 132 833 l 271 903 l 271 1021 l 132 951 l 132 1021 z m 56 0 l 208 0 l 208 771 l 56 771 z "},"Ī":{"ha":264,"x_min":0,"x_max":0,"o":"m 0 1153 l 0 1049 l 264 1049 l 264 1153 z m 56 0 l 208 0 l 208 965 l 56 965 z "},"ī":{"ha":264,"x_min":0,"x_max":0,"o":"m 0 979 l 0 875 l 264 875 l 264 979 z m 56 0 l 208 0 l 208 771 l 56 771 z "},"Ĭ":{"ha":264,"x_min":0,"x_max":0,"o":"m 56 1153 l 56 1208 l -49 1208 l -49 1153 b 6 1052 -49 1106 -30 1073 b 132 1021 43 1031 85 1021 b 258 1052 179 1021 221 1031 b 313 1153 294 1073 313 1106 l 313 1208 l 208 1208 l 208 1153 z m 56 0 l 208 0 l 208 965 l 56 965 z "},"ĭ":{"ha":264,"x_min":0,"x_max":0,"o":"m 56 979 l 56 1035 l -49 1035 l -49 979 b 6 878 -49 933 -30 899 b 132 847 43 858 85 847 b 258 878 179 847 221 858 b 313 979 294 899 313 933 l 313 1035 l 208 1035 l 208 979 z m 56 0 l 208 0 l 208 771 l 56 771 z "},"Į":{"ha":264,"x_min":0,"x_max":0,"o":"m 167 -243 l 243 -243 l 243 -139 l 181 -139 l 181 0 l 76 0 l 76 -153 b 106 -217 76 -179 86 -200 b 167 -243 125 -234 145 -243 z m 56 0 l 208 0 l 208 965 l 56 965 z "},"į":{"ha":264,"x_min":0,"x_max":0,"o":"m 167 -243 l 243 -243 l 243 -139 l 181 -139 l 181 0 l 76 0 l 76 -153 b 106 -217 76 -179 86 -200 b 167 -243 125 -234 145 -243 z m 56 924 l 56 785 l 208 861 l 208 1000 z m 56 0 l 208 0 l 208 792 l 56 715 z "},"İ":{"ha":264,"x_min":0,"x_max":0,"o":"m 56 1132 l 56 993 l 208 1069 l 208 1208 z m 56 0 l 208 0 l 208 965 l 56 965 z "},"ı":{"ha":264,"x_min":0,"x_max":0,"o":"m 56 0 l 208 0 l 208 771 l 56 771 z "},"Ĳ":{"ha":764,"x_min":0,"x_max":0,"o":"m 708 965 l 556 965 l 556 146 l 438 146 l 438 389 l 285 313 l 285 132 b 322 38 285 95 297 64 b 410 0 346 13 375 0 l 583 0 b 672 38 618 0 647 13 b 708 132 696 64 708 95 z m 56 0 l 208 0 l 208 965 l 56 965 z "},"ĳ":{"ha":528,"x_min":0,"x_max":0,"o":"m 319 924 l 319 785 l 472 861 l 472 1000 z m 319 715 l 319 -49 l 208 -49 l 208 -194 l 347 -194 b 435 -156 381 -194 411 -182 b 472 -62 460 -131 472 -100 l 472 792 z m 56 924 l 56 785 l 208 861 l 208 1000 z m 56 0 l 208 0 l 208 792 l 56 715 z "},"Ĵ":{"ha":500,"x_min":0,"x_max":0,"o":"m 208 1188 l 83 1014 l 174 1014 l 264 1104 l 354 1014 l 444 1014 l 319 1188 z m 444 965 l 292 965 l 292 146 l 174 146 l 174 389 l 21 313 l 21 132 b 58 38 21 95 33 64 b 146 0 82 13 112 0 l 319 0 b 408 38 354 0 383 13 b 444 132 432 64 444 95 z "},"ĵ":{"ha":264,"x_min":0,"x_max":0,"o":"m 76 1014 l -49 840 l 42 840 l 132 931 l 222 840 l 313 840 l 188 1014 z m 56 771 l 56 -49 l -56 -49 l -56 -194 l 83 -194 b 172 -156 118 -194 147 -182 b 208 -62 196 -131 208 -100 l 208 771 z "},"Ķ":{"ha":563,"x_min":0,"x_max":0,"o":"m 191 -278 l 344 -201 l 344 -49 l 191 -49 z m 590 0 l 357 574 l 538 965 l 372 965 l 208 585 l 208 965 l 56 965 l 56 0 l 208 0 l 208 260 l 278 404 l 428 0 z "},"ķ":{"ha":493,"x_min":0,"x_max":0,"o":"m 188 -278 l 340 -201 l 340 -49 l 188 -49 z m 56 0 l 208 0 l 208 351 l 354 0 l 521 0 l 321 428 l 507 771 l 337 771 l 208 496 l 208 1000 l 56 924 z "},"ĸ":{"ha":493,"x_min":0,"x_max":0,"o":"m 56 0 l 208 0 l 208 351 l 354 0 l 521 0 l 321 428 l 507 771 l 337 771 l 208 496 l 208 771 l 56 771 z "},"Ĺ":{"ha":451,"x_min":0,"x_max":0,"o":"m 236 1000 l 396 1236 l 265 1236 l 147 1000 z m 56 0 l 431 0 l 431 146 l 208 146 l 208 965 l 56 965 z "},"ĺ":{"ha":264,"x_min":0,"x_max":0,"o":"m 132 1000 l 292 1236 l 161 1236 l 43 1000 z m 56 0 l 208 0 l 208 1000 l 56 924 z "},"Ļ":{"ha":451,"x_min":0,"x_max":0,"o":"m 167 -278 l 319 -201 l 319 -49 l 167 -49 z m 56 0 l 431 0 l 431 146 l 208 146 l 208 965 l 56 965 z "},"ļ":{"ha":264,"x_min":0,"x_max":0,"o":"m 56 -278 l 208 -201 l 208 -49 l 56 -49 z m 56 0 l 208 0 l 208 1000 l 56 924 z "},"Ľ":{"ha":451,"x_min":0,"x_max":0,"o":"m 306 688 l 361 688 l 403 813 l 403 965 l 250 965 l 250 813 l 306 813 z m 56 0 l 431 0 l 431 146 l 208 146 l 208 965 l 56 965 z "},"ľ":{"ha":396,"x_min":0,"x_max":0,"o":"m 306 688 l 361 688 l 403 813 l 403 965 l 250 965 l 250 813 l 306 813 z m 56 0 l 208 0 l 208 1000 l 56 924 z "},"Ŀ":{"ha":451,"x_min":0,"x_max":0,"o":"m 278 483 l 431 483 l 431 635 l 278 635 z m 56 0 l 431 0 l 431 146 l 208 146 l 208 965 l 56 965 z "},"ŀ":{"ha":451,"x_min":0,"x_max":0,"o":"m 278 406 l 431 406 l 431 559 l 278 559 z m 56 0 l 208 0 l 208 1000 l 56 924 z "},"Ł":{"ha":451,"x_min":0,"x_max":0,"o":"m 208 646 l 208 965 l 56 965 l 56 569 l 42 563 l 42 438 l 56 444 l 56 0 l 431 0 l 431 146 l 208 146 l 208 521 l 278 556 l 278 681 z "},"ł":{"ha":264,"x_min":0,"x_max":0,"o":"m 208 583 l 208 1000 l 56 924 l 56 507 l 14 486 l 14 361 l 56 382 l 56 0 l 208 0 l 208 458 l 250 479 l 250 604 z "},"Ń":{"ha":535,"x_min":0,"x_max":0,"o":"m 267 1000 l 427 1236 l 297 1236 l 178 1000 z m 208 0 l 208 819 l 326 819 l 326 0 l 479 0 l 479 833 b 442 927 479 870 467 902 b 354 965 418 953 388 965 l 319 965 b 231 927 285 965 256 953 b 208 895 222 917 214 907 l 208 965 l 56 965 l 56 0 z "},"ń":{"ha":528,"x_min":0,"x_max":0,"o":"m 264 826 l 424 1063 l 293 1063 l 175 826 z m 208 0 l 208 625 l 319 625 l 319 0 l 472 0 l 472 639 b 435 733 472 676 460 707 b 347 771 411 758 381 771 l 319 771 b 231 733 285 771 256 758 b 208 701 222 723 214 712 l 208 771 l 56 771 l 56 0 z "},"Ņ":{"ha":535,"x_min":0,"x_max":0,"o":"m 191 -278 l 344 -201 l 344 -49 l 191 -49 z m 208 0 l 208 819 l 326 819 l 326 0 l 479 0 l 479 833 b 442 927 479 870 467 902 b 354 965 418 953 388 965 l 319 965 b 231 927 285 965 256 953 b 208 895 222 917 214 907 l 208 965 l 56 965 l 56 0 z "},"ņ":{"ha":528,"x_min":0,"x_max":0,"o":"m 188 -278 l 340 -201 l 340 -49 l 188 -49 z m 208 0 l 208 625 l 319 625 l 319 0 l 472 0 l 472 639 b 435 733 472 676 460 707 b 347 771 411 758 381 771 l 319 771 b 231 733 285 771 256 758 b 208 701 222 723 214 712 l 208 771 l 56 771 l 56 0 z "},"Ň":{"ha":535,"x_min":0,"x_max":0,"o":"m 323 1014 l 448 1188 l 358 1188 l 267 1097 l 177 1188 l 87 1188 l 212 1014 z m 208 0 l 208 819 l 326 819 l 326 0 l 479 0 l 479 833 b 442 927 479 870 467 902 b 354 965 418 953 388 965 l 319 965 b 231 927 285 965 256 953 b 208 895 222 917 214 907 l 208 965 l 56 965 l 56 0 z "},"ň":{"ha":528,"x_min":0,"x_max":0,"o":"m 319 840 l 444 1014 l 354 1014 l 264 924 l 174 1014 l 83 1014 l 208 840 z m 208 0 l 208 625 l 319 625 l 319 0 l 472 0 l 472 639 b 435 733 472 676 460 707 b 347 771 411 758 381 771 l 319 771 b 231 733 285 771 256 758 b 208 701 222 723 214 712 l 208 771 l 56 771 l 56 0 z "},"ŉ":{"ha":646,"x_min":0,"x_max":0,"o":"m 97 674 l 97 965 l -7 965 l -7 674 z m 326 0 l 326 625 l 438 625 l 438 0 l 590 0 l 590 639 b 553 733 590 676 578 707 b 465 771 529 758 500 771 l 438 771 b 349 733 403 771 374 758 b 326 701 340 723 332 712 l 326 771 l 174 771 l 174 0 z "},"Ŋ":{"ha":535,"x_min":0,"x_max":0,"o":"m 326 819 l 326 -49 l 208 -49 l 208 62 l 56 -14 l 56 -62 b 92 -156 56 -99 68 -130 b 181 -194 117 -181 146 -194 l 354 -194 b 442 -156 388 -194 418 -182 b 479 -62 467 -131 479 -100 l 479 833 b 442 927 479 870 467 902 b 354 965 418 953 388 965 l 319 965 b 231 927 285 965 256 953 b 208 895 222 917 214 907 l 208 965 l 56 965 l 56 118 l 208 194 l 208 819 z "},"ŋ":{"ha":528,"x_min":0,"x_max":0,"o":"m 319 625 l 319 -49 l 208 -49 l 208 62 l 56 -14 l 56 -62 b 92 -156 56 -99 68 -130 b 181 -194 117 -181 146 -194 l 347 -194 b 435 -156 381 -194 411 -182 b 472 -62 460 -131 472 -100 l 472 639 b 435 733 472 676 460 707 b 347 771 411 758 381 771 l 319 771 b 231 733 285 771 256 758 b 208 701 222 723 214 712 l 208 771 l 56 771 l 56 56 l 208 132 l 208 625 z "},"Ō":{"ha":535,"x_min":0,"x_max":0,"o":"m 135 1153 l 135 1049 l 399 1049 l 399 1153 z m 479 833 b 442 927 479 870 467 902 b 354 965 418 953 388 965 l 181 965 b 92 927 146 965 117 953 b 56 833 68 902 56 870 l 56 132 b 92 39 56 96 68 65 b 181 0 117 13 146 0 l 354 0 b 442 38 388 0 418 13 b 479 132 467 64 479 95 z m 326 146 l 208 146 l 208 819 l 326 819 z "},"ō":{"ha":528,"x_min":0,"x_max":0,"o":"m 132 979 l 132 875 l 396 875 l 396 979 z m 472 639 b 435 733 472 676 460 707 b 347 771 411 758 381 771 l 181 771 b 92 733 146 771 117 758 b 56 639 68 707 56 676 l 56 132 b 92 39 56 96 68 65 b 181 0 117 13 146 0 l 347 0 b 435 38 381 0 411 13 b 472 132 460 64 472 95 z m 319 146 l 208 146 l 208 625 l 319 625 z "},"Ŏ":{"ha":535,"x_min":0,"x_max":0,"o":"m 191 1153 l 191 1208 l 87 1208 l 87 1153 b 142 1052 87 1106 105 1073 b 267 1021 178 1031 220 1021 b 393 1052 315 1021 356 1031 b 448 1153 430 1073 448 1106 l 448 1208 l 344 1208 l 344 1153 z m 479 833 b 442 927 479 870 467 902 b 354 965 418 953 388 965 l 181 965 b 92 927 146 965 117 953 b 56 833 68 902 56 870 l 56 132 b 92 39 56 96 68 65 b 181 0 117 13 146 0 l 354 0 b 442 38 388 0 418 13 b 479 132 467 64 479 95 z m 326 146 l 208 146 l 208 819 l 326 819 z "},"ŏ":{"ha":528,"x_min":0,"x_max":0,"o":"m 188 979 l 188 1035 l 83 1035 l 83 979 b 138 878 83 933 102 899 b 264 847 175 858 217 847 b 390 878 311 847 353 858 b 444 979 426 899 444 933 l 444 1035 l 340 1035 l 340 979 z m 472 639 b 435 733 472 676 460 707 b 347 771 411 758 381 771 l 181 771 b 92 733 146 771 117 758 b 56 639 68 707 56 676 l 56 132 b 92 39 56 96 68 65 b 181 0 117 13 146 0 l 347 0 b 435 38 381 0 411 13 b 472 132 460 64 472 95 z m 319 146 l 208 146 l 208 625 l 319 625 z "},"Ő":{"ha":535,"x_min":0,"x_max":0,"o":"m 378 1000 l 538 1236 l 408 1236 l 290 1000 z m 156 1000 l 316 1236 l 185 1236 l 67 1000 z m 479 833 b 442 927 479 870 467 902 b 354 965 418 953 388 965 l 181 965 b 92 927 146 965 117 953 b 56 833 68 902 56 870 l 56 132 b 92 39 56 96 68 65 b 181 0 117 13 146 0 l 354 0 b 442 38 388 0 418 13 b 479 132 467 64 479 95 z m 326 146 l 208 146 l 208 819 l 326 819 z "},"ő":{"ha":528,"x_min":0,"x_max":0,"o":"m 375 826 l 535 1063 l 404 1063 l 286 826 z m 153 826 l 313 1063 l 182 1063 l 64 826 z m 472 639 b 435 733 472 676 460 707 b 347 771 411 758 381 771 l 181 771 b 92 733 146 771 117 758 b 56 639 68 707 56 676 l 56 132 b 92 39 56 96 68 65 b 181 0 117 13 146 0 l 347 0 b 435 38 381 0 411 13 b 472 132 460 64 472 95 z m 319 146 l 208 146 l 208 625 l 319 625 z "},"Œ":{"ha":736,"x_min":0,"x_max":0,"o":"m 181 0 l 694 0 l 694 146 l 479 146 l 479 389 l 694 500 l 694 671 l 479 560 l 479 819 l 694 819 l 694 965 l 514 965 b 426 927 480 965 450 953 b 403 895 416 917 408 907 b 380 926 397 906 390 916 b 292 965 355 952 326 965 l 181 965 b 92 927 146 965 117 953 b 56 833 68 902 56 870 l 56 132 b 92 39 56 96 68 65 b 181 0 117 13 146 0 z m 326 819 l 326 146 l 208 146 l 208 819 z "},"œ":{"ha":792,"x_min":0,"x_max":0,"o":"m 56 639 l 56 132 b 92 38 56 95 68 64 b 181 0 117 13 146 0 l 284 0 b 373 38 319 0 348 13 b 396 71 383 48 390 59 b 419 39 401 60 409 49 b 507 0 443 13 473 0 l 611 0 b 699 39 645 0 675 13 b 736 132 724 65 736 96 l 736 361 l 583 285 l 583 146 l 472 146 l 472 319 l 736 451 l 736 639 b 699 732 736 675 724 706 b 611 771 675 758 645 771 l 507 771 b 419 732 473 771 443 758 b 396 700 409 722 401 711 b 373 733 390 712 383 723 b 284 771 348 758 319 771 l 181 771 b 92 733 146 771 117 758 b 56 639 68 707 56 676 z m 472 458 l 472 625 l 583 625 l 583 514 z m 319 625 l 319 146 l 208 146 l 208 625 z "},"Ŕ":{"ha":535,"x_min":0,"x_max":0,"o":"m 267 1000 l 427 1236 l 297 1236 l 178 1000 z m 403 0 l 569 0 l 378 430 l 479 482 l 479 833 b 442 927 479 870 467 902 b 354 965 418 953 388 965 l 56 965 l 56 0 l 208 0 l 208 343 l 243 361 z m 326 576 l 208 514 l 208 819 l 326 819 z "},"ŕ":{"ha":493,"x_min":0,"x_max":0,"o":"m 264 826 l 424 1063 l 293 1063 l 175 826 z m 208 0 l 208 625 l 319 625 l 319 458 l 472 535 l 472 639 b 435 733 472 676 460 707 b 347 771 411 758 381 771 l 319 771 b 231 733 285 771 256 758 b 208 701 222 723 214 712 l 208 771 l 56 771 l 56 0 z "},"Ŗ":{"ha":535,"x_min":0,"x_max":0,"o":"m 191 -278 l 344 -201 l 344 -49 l 191 -49 z m 403 0 l 569 0 l 378 430 l 479 482 l 479 833 b 442 927 479 870 467 902 b 354 965 418 953 388 965 l 56 965 l 56 0 l 208 0 l 208 343 l 243 361 z m 326 576 l 208 514 l 208 819 l 326 819 z "},"ŗ":{"ha":493,"x_min":0,"x_max":0,"o":"m 160 -278 l 313 -201 l 313 -49 l 160 -49 z m 208 0 l 208 625 l 319 625 l 319 458 l 472 535 l 472 639 b 435 733 472 676 460 707 b 347 771 411 758 381 771 l 319 771 b 231 733 285 771 256 758 b 208 701 222 723 214 712 l 208 771 l 56 771 l 56 0 z "},"Ř":{"ha":535,"x_min":0,"x_max":0,"o":"m 323 1014 l 448 1188 l 358 1188 l 267 1097 l 177 1188 l 87 1188 l 212 1014 z m 403 0 l 569 0 l 378 430 l 479 482 l 479 833 b 442 927 479 870 467 902 b 354 965 418 953 388 965 l 56 965 l 56 0 l 208 0 l 208 343 l 243 361 z m 326 576 l 208 514 l 208 819 l 326 819 z "},"ř":{"ha":493,"x_min":0,"x_max":0,"o":"m 319 840 l 444 1014 l 354 1014 l 264 924 l 174 1014 l 83 1014 l 208 840 z m 208 0 l 208 625 l 319 625 l 319 458 l 472 535 l 472 639 b 435 733 472 676 460 707 b 347 771 411 758 381 771 l 319 771 b 231 733 285 771 256 758 b 208 701 222 723 214 712 l 208 771 l 56 771 l 56 0 z "},"Ś":{"ha":535,"x_min":0,"x_max":0,"o":"m 267 1000 l 427 1236 l 297 1236 l 178 1000 z m 56 833 l 56 313 l 326 451 l 326 146 l 208 146 l 208 299 l 56 222 l 56 132 b 92 38 56 95 68 64 b 181 0 117 13 146 0 l 354 0 b 442 39 388 0 418 13 b 479 132 467 65 479 96 l 479 701 l 208 563 l 208 819 l 326 819 l 326 715 l 479 792 l 479 833 b 442 927 479 870 467 902 b 354 965 418 953 388 965 l 181 965 b 92 928 146 965 117 953 b 56 833 68 903 56 871 z "},"ś":{"ha":528,"x_min":0,"x_max":0,"o":"m 264 826 l 424 1063 l 293 1063 l 175 826 z m 56 639 l 56 229 l 319 361 l 319 146 l 208 146 l 208 236 l 56 160 l 56 132 b 92 38 56 95 68 64 b 181 0 117 13 146 0 l 347 0 b 435 39 381 0 411 13 b 472 132 460 65 472 96 l 472 567 l 208 435 l 208 625 l 319 625 l 319 560 l 472 636 l 472 639 b 435 733 472 676 460 707 b 347 771 411 758 381 771 l 181 771 b 92 733 146 771 117 758 b 56 639 68 708 56 677 z "},"Ŝ":{"ha":535,"x_min":0,"x_max":0,"o":"m 212 1188 l 87 1014 l 177 1014 l 267 1104 l 358 1014 l 448 1014 l 323 1188 z m 56 833 l 56 313 l 326 451 l 326 146 l 208 146 l 208 299 l 56 222 l 56 132 b 92 38 56 95 68 64 b 181 0 117 13 146 0 l 354 0 b 442 39 388 0 418 13 b 479 132 467 65 479 96 l 479 701 l 208 563 l 208 819 l 326 819 l 326 715 l 479 792 l 479 833 b 442 927 479 870 467 902 b 354 965 418 953 388 965 l 181 965 b 92 928 146 965 117 953 b 56 833 68 903 56 871 z "},"ŝ":{"ha":528,"x_min":0,"x_max":0,"o":"m 208 1014 l 83 840 l 174 840 l 264 931 l 354 840 l 444 840 l 319 1014 z m 56 639 l 56 229 l 319 361 l 319 146 l 208 146 l 208 236 l 56 160 l 56 132 b 92 38 56 95 68 64 b 181 0 117 13 146 0 l 347 0 b 435 39 381 0 411 13 b 472 132 460 65 472 96 l 472 567 l 208 435 l 208 625 l 319 625 l 319 560 l 472 636 l 472 639 b 435 733 472 676 460 707 b 347 771 411 758 381 771 l 181 771 b 92 733 146 771 117 758 b 56 639 68 708 56 677 z "},"Ş":{"ha":535,"x_min":0,"x_max":0,"o":"m 302 -243 l 337 -49 l 232 -49 l 198 -243 z m 56 833 l 56 313 l 326 451 l 326 146 l 208 146 l 208 299 l 56 222 l 56 132 b 92 38 56 95 68 64 b 181 0 117 13 146 0 l 354 0 b 442 39 388 0 418 13 b 479 132 467 65 479 96 l 479 701 l 208 563 l 208 819 l 326 819 l 326 715 l 479 792 l 479 833 b 442 927 479 870 467 902 b 354 965 418 953 388 965 l 181 965 b 92 928 146 965 117 953 b 56 833 68 903 56 871 z "},"ş":{"ha":528,"x_min":0,"x_max":0,"o":"m 299 -243 l 333 -49 l 229 -49 l 195 -243 z m 56 639 l 56 229 l 319 361 l 319 146 l 208 146 l 208 236 l 56 160 l 56 132 b 92 38 56 95 68 64 b 181 0 117 13 146 0 l 347 0 b 435 39 381 0 411 13 b 472 132 460 65 472 96 l 472 567 l 208 435 l 208 625 l 319 625 l 319 560 l 472 636 l 472 639 b 435 733 472 676 460 707 b 347 771 411 758 381 771 l 181 771 b 92 733 146 771 117 758 b 56 639 68 708 56 677 z "},"Š":{"ha":535,"x_min":0,"x_max":0,"o":"m 323 1014 l 448 1188 l 358 1188 l 267 1097 l 177 1188 l 87 1188 l 212 1014 z m 56 833 l 56 313 l 326 451 l 326 146 l 208 146 l 208 299 l 56 222 l 56 132 b 92 38 56 95 68 64 b 181 0 117 13 146 0 l 354 0 b 442 39 388 0 418 13 b 479 132 467 65 479 96 l 479 701 l 208 563 l 208 819 l 326 819 l 326 715 l 479 792 l 479 833 b 442 927 479 870 467 902 b 354 965 418 953 388 965 l 181 965 b 92 928 146 965 117 953 b 56 833 68 903 56 871 z "},"š":{"ha":528,"x_min":0,"x_max":0,"o":"m 319 840 l 444 1014 l 354 1014 l 264 924 l 174 1014 l 83 1014 l 208 840 z m 56 639 l 56 229 l 319 361 l 319 146 l 208 146 l 208 236 l 56 160 l 56 132 b 92 38 56 95 68 64 b 181 0 117 13 146 0 l 347 0 b 435 39 381 0 411 13 b 472 132 460 65 472 96 l 472 567 l 208 435 l 208 625 l 319 625 l 319 560 l 472 636 l 472 639 b 435 733 472 676 460 707 b 347 771 411 758 381 771 l 181 771 b 92 733 146 771 117 758 b 56 639 68 708 56 677 z "},"Ţ":{"ha":500,"x_min":0,"x_max":0,"o":"m 285 -243 l 319 -49 l 215 -49 l 181 -243 z m 174 0 l 326 0 l 326 819 l 479 819 l 479 965 l 21 965 l 21 819 l 174 819 z "},"ţ":{"ha":410,"x_min":0,"x_max":0,"o":"m 250 -243 l 285 -49 l 180 -49 l 146 -243 z m 264 146 l 264 559 l 389 622 l 389 792 l 264 730 l 264 903 l 111 826 l 111 656 l 21 608 l 21 438 l 111 485 l 111 132 b 148 39 111 96 123 65 b 236 0 172 13 202 0 l 410 0 l 410 146 z "},"Ť":{"ha":500,"x_min":0,"x_max":0,"o":"m 306 1014 l 431 1188 l 340 1188 l 250 1097 l 160 1188 l 69 1188 l 194 1014 z m 174 0 l 326 0 l 326 819 l 479 819 l 479 965 l 21 965 l 21 819 l 174 819 z "},"ť":{"ha":451,"x_min":0,"x_max":0,"o":"m 306 819 l 458 896 l 458 1049 l 306 1049 z m 264 146 l 264 559 l 389 622 l 389 792 l 264 730 l 264 903 l 111 826 l 111 656 l 21 608 l 21 438 l 111 485 l 111 132 b 148 39 111 96 123 65 b 236 0 172 13 202 0 l 410 0 l 410 146 z "},"Ŧ":{"ha":500,"x_min":0,"x_max":0,"o":"m 174 306 l 174 0 l 326 0 l 326 382 l 368 403 l 368 528 l 326 507 l 326 819 l 479 819 l 479 965 l 21 965 l 21 819 l 174 819 l 174 431 l 132 410 l 132 285 z "},"ŧ":{"ha":410,"x_min":0,"x_max":0,"o":"m 264 146 l 264 285 l 306 306 l 306 431 l 264 410 l 264 559 l 389 622 l 389 792 l 264 730 l 264 903 l 111 826 l 111 656 l 21 608 l 21 438 l 111 485 l 111 333 l 69 313 l 69 188 l 111 208 l 111 132 b 148 39 111 96 123 65 b 236 0 172 13 202 0 l 410 0 l 410 146 z "},"Ũ":{"ha":535,"x_min":0,"x_max":0,"o":"m 128 1125 l 128 1007 l 267 1076 l 267 1007 l 406 1076 l 406 1194 l 267 1125 l 267 1194 z m 479 965 l 326 965 l 326 146 l 208 146 l 208 965 l 56 965 l 56 132 b 92 39 56 96 68 65 b 181 0 117 13 146 0 l 354 0 b 442 38 388 0 418 13 b 479 132 467 64 479 95 z "},"ũ":{"ha":528,"x_min":0,"x_max":0,"o":"m 125 951 l 125 833 l 264 903 l 264 833 l 403 903 l 403 1021 l 264 951 l 264 1021 z m 319 771 l 319 146 l 208 146 l 208 771 l 56 771 l 56 132 b 92 38 56 95 68 64 b 181 0 117 13 146 0 l 208 0 b 297 38 243 0 272 13 b 319 70 306 48 314 59 l 319 0 l 472 0 l 472 771 z "},"Ū":{"ha":535,"x_min":0,"x_max":0,"o":"m 135 1153 l 135 1049 l 399 1049 l 399 1153 z m 479 965 l 326 965 l 326 146 l 208 146 l 208 965 l 56 965 l 56 132 b 92 39 56 96 68 65 b 181 0 117 13 146 0 l 354 0 b 442 38 388 0 418 13 b 479 132 467 64 479 95 z "},"ū":{"ha":528,"x_min":0,"x_max":0,"o":"m 132 979 l 132 875 l 396 875 l 396 979 z m 319 771 l 319 146 l 208 146 l 208 771 l 56 771 l 56 132 b 92 38 56 95 68 64 b 181 0 117 13 146 0 l 208 0 b 297 38 243 0 272 13 b 319 70 306 48 314 59 l 319 0 l 472 0 l 472 771 z "},"Ŭ":{"ha":535,"x_min":0,"x_max":0,"o":"m 191 1153 l 191 1208 l 87 1208 l 87 1153 b 142 1052 87 1106 105 1073 b 267 1021 178 1031 220 1021 b 393 1052 315 1021 356 1031 b 448 1153 430 1073 448 1106 l 448 1208 l 344 1208 l 344 1153 z m 479 965 l 326 965 l 326 146 l 208 146 l 208 965 l 56 965 l 56 132 b 92 39 56 96 68 65 b 181 0 117 13 146 0 l 354 0 b 442 38 388 0 418 13 b 479 132 467 64 479 95 z "},"ŭ":{"ha":528,"x_min":0,"x_max":0,"o":"m 188 979 l 188 1035 l 83 1035 l 83 979 b 138 878 83 933 102 899 b 264 847 175 858 217 847 b 390 878 311 847 353 858 b 444 979 426 899 444 933 l 444 1035 l 340 1035 l 340 979 z m 319 771 l 319 146 l 208 146 l 208 771 l 56 771 l 56 132 b 92 38 56 95 68 64 b 181 0 117 13 146 0 l 208 0 b 297 38 243 0 272 13 b 319 70 306 48 314 59 l 319 0 l 472 0 l 472 771 z "},"Ů":{"ha":535,"x_min":0,"x_max":0,"o":"m 309 1069 l 226 1069 l 226 1153 l 309 1153 z m 323 1222 l 212 1222 b 147 1193 186 1222 164 1213 b 122 1132 130 1174 122 1153 l 122 1090 b 147 1029 122 1069 130 1049 b 212 1000 164 1010 186 1000 l 323 1000 b 388 1029 349 1000 370 1010 b 413 1090 405 1049 413 1069 l 413 1132 b 388 1193 413 1153 405 1174 b 323 1222 370 1213 349 1222 z m 479 965 l 326 965 l 326 146 l 208 146 l 208 965 l 56 965 l 56 132 b 92 39 56 96 68 65 b 181 0 117 13 146 0 l 354 0 b 442 38 388 0 418 13 b 479 132 467 64 479 95 z "},"ů":{"ha":528,"x_min":0,"x_max":0,"o":"m 306 896 l 222 896 l 222 979 l 306 979 z m 319 1049 l 208 1049 b 144 1019 182 1049 161 1039 b 118 958 127 1000 118 980 l 118 917 b 144 856 118 895 127 875 b 208 826 161 836 182 826 l 319 826 b 384 856 345 826 367 836 b 410 917 401 875 410 895 l 410 958 b 384 1019 410 980 401 1000 b 319 1049 367 1039 345 1049 z m 319 771 l 319 146 l 208 146 l 208 771 l 56 771 l 56 132 b 92 38 56 95 68 64 b 181 0 117 13 146 0 l 208 0 b 297 38 243 0 272 13 b 319 70 306 48 314 59 l 319 0 l 472 0 l 472 771 z "},"Ű":{"ha":535,"x_min":0,"x_max":0,"o":"m 378 1000 l 538 1236 l 408 1236 l 290 1000 z m 156 1000 l 316 1236 l 185 1236 l 67 1000 z m 479 965 l 326 965 l 326 146 l 208 146 l 208 965 l 56 965 l 56 132 b 92 39 56 96 68 65 b 181 0 117 13 146 0 l 354 0 b 442 38 388 0 418 13 b 479 132 467 64 479 95 z "},"ű":{"ha":528,"x_min":0,"x_max":0,"o":"m 375 826 l 535 1063 l 404 1063 l 286 826 z m 153 826 l 313 1063 l 182 1063 l 64 826 z m 319 771 l 319 146 l 208 146 l 208 771 l 56 771 l 56 132 b 92 38 56 95 68 64 b 181 0 117 13 146 0 l 208 0 b 297 38 243 0 272 13 b 319 70 306 48 314 59 l 319 0 l 472 0 l 472 771 z "},"Ų":{"ha":535,"x_min":0,"x_max":0,"o":"m 302 -243 l 378 -243 l 378 -139 l 316 -139 l 316 0 l 212 0 l 212 -153 b 241 -217 212 -179 222 -200 b 302 -243 260 -234 281 -243 z m 479 965 l 326 965 l 326 146 l 208 146 l 208 965 l 56 965 l 56 132 b 92 39 56 96 68 65 b 181 0 117 13 146 0 l 354 0 b 442 38 388 0 418 13 b 479 132 467 64 479 95 z "},"ų":{"ha":528,"x_min":0,"x_max":0,"o":"m 299 -243 l 375 -243 l 375 -139 l 313 -139 l 313 0 l 208 0 l 208 -153 b 238 -217 208 -179 218 -200 b 299 -243 257 -234 277 -243 z m 319 771 l 319 146 l 208 146 l 208 771 l 56 771 l 56 132 b 92 38 56 95 68 64 b 181 0 117 13 146 0 l 208 0 b 297 38 243 0 272 13 b 319 70 306 48 314 59 l 319 0 l 472 0 l 472 771 z "},"Ŵ":{"ha":806,"x_min":0,"x_max":0,"o":"m 347 1188 l 222 1014 l 313 1014 l 403 1104 l 493 1014 l 583 1014 l 458 1188 z m 403 71 b 425 39 408 60 416 49 b 514 0 450 13 480 0 l 625 0 b 713 38 659 0 689 13 b 750 132 738 64 750 95 l 750 965 l 597 965 l 597 146 l 479 146 l 479 965 l 326 965 l 326 146 l 208 146 l 208 965 l 56 965 l 56 132 b 92 39 56 96 68 65 b 181 0 117 13 146 0 l 291 0 b 380 38 326 0 355 13 b 403 71 390 48 397 59 z "},"ŵ":{"ha":792,"x_min":0,"x_max":0,"o":"m 340 1014 l 215 840 l 306 840 l 396 931 l 486 840 l 576 840 l 451 1014 z m 396 71 b 419 39 402 59 409 49 b 507 0 443 13 473 0 l 611 0 b 699 38 646 0 675 13 b 736 132 724 64 736 95 l 736 771 l 583 771 l 583 146 l 472 146 l 472 771 l 319 771 l 319 146 l 208 146 l 208 771 l 56 771 l 56 132 b 92 39 56 96 68 65 b 181 0 117 13 146 0 l 285 0 b 373 38 319 0 348 13 b 396 71 383 48 390 59 z "},"Ŷ":{"ha":535,"x_min":0,"x_max":0,"o":"m 212 1188 l 87 1014 l 177 1014 l 267 1104 l 358 1014 l 448 1014 l 323 1188 z m 56 965 l 56 313 l 326 451 l 326 146 l 208 146 l 208 257 l 56 181 l 56 132 b 92 39 56 96 68 65 b 181 0 117 13 146 0 l 354 0 b 442 38 388 0 418 13 b 479 132 467 64 479 95 l 479 965 l 326 965 l 326 622 l 208 560 l 208 965 z "},"ŷ":{"ha":528,"x_min":0,"x_max":0,"o":"m 208 1014 l 83 840 l 174 840 l 264 931 l 354 840 l 444 840 l 319 1014 z m 319 771 l 319 361 l 208 306 l 208 771 l 56 771 l 56 76 l 319 208 l 319 -49 l 208 -49 l 208 62 l 56 -14 l 56 -62 b 92 -156 56 -99 68 -130 b 181 -194 117 -181 146 -194 l 347 -194 b 435 -156 381 -194 411 -182 b 472 -62 460 -131 472 -100 l 472 771 z "},"Ÿ":{"ha":535,"x_min":0,"x_max":0,"o":"m 295 1139 l 295 1000 l 420 1063 l 420 1201 z m 115 1139 l 115 1000 l 240 1063 l 240 1201 z m 56 965 l 56 313 l 326 451 l 326 146 l 208 146 l 208 257 l 56 181 l 56 132 b 92 39 56 96 68 65 b 181 0 117 13 146 0 l 354 0 b 442 38 388 0 418 13 b 479 132 467 64 479 95 l 479 965 l 326 965 l 326 622 l 208 560 l 208 965 z "},"Ź":{"ha":486,"x_min":0,"x_max":0,"o":"m 243 1000 l 403 1236 l 272 1236 l 154 1000 z m 444 965 l 42 965 l 42 819 l 292 819 l 42 146 l 42 0 l 444 0 l 444 146 l 194 146 l 444 819 z "},"ź":{"ha":438,"x_min":0,"x_max":0,"o":"m 218 826 l 378 1063 l 247 1063 l 129 826 z m 396 771 l 42 771 l 42 625 l 236 625 l 42 146 l 42 0 l 396 0 l 396 146 l 201 146 l 396 625 z "},"Ż":{"ha":486,"x_min":0,"x_max":0,"o":"m 167 1132 l 167 993 l 319 1069 l 319 1208 z m 444 965 l 42 965 l 42 819 l 292 819 l 42 146 l 42 0 l 444 0 l 444 146 l 194 146 l 444 819 z "},"ż":{"ha":438,"x_min":0,"x_max":0,"o":"m 142 958 l 142 819 l 294 896 l 294 1035 z m 396 771 l 42 771 l 42 625 l 236 625 l 42 146 l 42 0 l 396 0 l 396 146 l 201 146 l 396 625 z "},"Ž":{"ha":486,"x_min":0,"x_max":0,"o":"m 299 1014 l 424 1188 l 333 1188 l 243 1097 l 153 1188 l 63 1188 l 188 1014 z m 444 965 l 42 965 l 42 819 l 292 819 l 42 146 l 42 0 l 444 0 l 444 146 l 194 146 l 444 819 z "},"ž":{"ha":438,"x_min":0,"x_max":0,"o":"m 274 840 l 399 1014 l 308 1014 l 218 924 l 128 1014 l 38 1014 l 163 840 z m 396 771 l 42 771 l 42 625 l 236 625 l 42 146 l 42 0 l 396 0 l 396 146 l 201 146 l 396 625 z "},"ſ":{"ha":500,"x_min":0,"x_max":0,"o":"m 264 0 l 264 819 l 375 819 l 375 688 l 528 768 l 528 833 b 491 927 528 870 516 902 b 403 965 466 953 437 965 l 236 965 b 148 927 202 965 172 953 b 111 833 123 902 111 870 l 111 479 l 21 431 l 21 260 l 111 308 l 111 0 z "},"ƀ":{"ha":528,"x_min":0,"x_max":0,"o":"m 208 70 b 231 38 214 59 222 48 b 319 0 256 13 285 0 l 347 0 b 435 39 381 0 411 13 b 472 132 460 65 472 96 l 472 639 b 435 733 472 676 460 707 b 347 771 411 758 381 771 l 319 771 b 231 733 285 771 256 758 b 208 701 222 723 214 712 l 208 792 l 250 813 l 250 938 l 208 917 l 208 1000 l 56 924 l 56 840 l 14 819 l 14 694 l 56 715 l 56 0 l 208 0 z m 208 625 l 319 625 l 319 146 l 208 146 z "},"Ƃ":{"ha":535,"x_min":0,"x_max":0,"o":"m 354 0 b 442 39 388 0 418 13 b 479 132 467 65 479 96 l 479 639 b 442 733 479 676 467 707 b 354 771 418 758 388 771 l 208 771 l 208 819 l 424 819 l 424 965 l 56 965 l 56 0 z m 208 625 l 326 625 l 326 146 l 208 146 z "},"ƃ":{"ha":528,"x_min":0,"x_max":0,"o":"m 396 965 l 56 965 l 56 0 l 208 0 l 208 70 b 231 38 214 59 222 48 b 319 0 256 13 285 0 l 347 0 b 435 39 381 0 411 13 b 472 132 460 65 472 96 l 472 639 b 435 733 472 676 460 707 b 347 771 411 758 381 771 l 319 771 b 231 733 285 771 256 758 b 208 701 222 723 214 712 l 208 819 l 396 819 z m 208 625 l 319 625 l 319 146 l 208 146 z "},"Ɔ":{"ha":521,"x_min":0,"x_max":0,"o":"m 194 333 l 42 257 l 42 132 b 78 38 42 95 54 64 b 167 0 103 13 132 0 l 340 0 b 428 39 375 0 404 13 b 465 132 453 65 465 96 l 465 833 b 428 927 465 870 453 902 b 340 965 404 953 375 965 l 167 965 b 78 927 132 965 103 953 b 42 833 54 902 42 870 l 42 650 l 194 726 l 194 819 l 313 819 l 313 146 l 194 146 z "},"Ɖ":{"ha":556,"x_min":0,"x_max":0,"o":"m 76 560 l 21 532 l 21 361 l 76 389 l 76 0 l 375 0 b 463 38 409 0 439 13 b 500 132 488 64 500 95 l 500 833 b 463 927 500 870 488 902 b 375 965 439 953 409 965 l 76 965 z m 347 146 l 229 146 l 229 431 l 285 458 l 285 629 l 229 601 l 229 819 l 347 819 z "},"Ƌ":{"ha":535,"x_min":0,"x_max":0,"o":"m 181 0 l 479 0 l 479 965 l 111 965 l 111 819 l 326 819 l 326 771 l 181 771 b 92 733 146 771 117 758 b 56 639 68 707 56 676 l 56 132 b 92 39 56 96 68 65 b 181 0 117 13 146 0 z m 326 625 l 326 146 l 208 146 l 208 625 z "},"ƌ":{"ha":528,"x_min":0,"x_max":0,"o":"m 132 965 l 132 819 l 319 819 l 319 701 b 297 733 314 712 306 723 b 208 771 272 758 243 771 l 181 771 b 92 733 146 771 117 758 b 56 639 68 707 56 676 l 56 132 b 92 39 56 96 68 65 b 181 0 117 13 146 0 l 208 0 b 297 38 243 0 272 13 b 319 70 306 48 314 59 l 319 0 l 472 0 l 472 965 z m 319 625 l 319 146 l 208 146 l 208 625 z "},"Ǝ":{"ha":465,"x_min":0,"x_max":0,"o":"m 257 819 l 257 671 l 42 560 l 42 389 l 257 500 l 257 146 l 42 146 l 42 0 l 410 0 l 410 833 b 373 927 410 870 397 902 b 285 965 348 953 319 965 l 42 965 l 42 819 z "},"Ə":{"ha":535,"x_min":0,"x_max":0,"o":"m 326 819 l 326 604 l 56 465 l 56 132 b 92 38 56 95 68 64 b 181 0 117 13 146 0 l 354 0 b 442 38 388 0 418 13 b 479 132 467 63 479 94 l 479 833 b 442 927 479 870 467 902 b 354 965 418 953 388 965 l 181 965 b 92 926 146 965 117 952 b 56 833 68 900 56 869 l 56 597 l 208 674 l 208 819 z m 208 146 l 208 396 l 326 458 l 326 146 z "},"Ɛ":{"ha":514,"x_min":0,"x_max":0,"o":"m 354 965 l 181 965 b 92 927 146 965 117 953 b 56 833 68 902 56 870 l 56 507 l 106 507 b 72 468 91 496 80 483 b 56 389 61 446 56 419 l 56 132 b 92 38 56 95 68 64 b 181 0 117 13 146 0 l 354 0 b 442 38 388 0 418 13 b 479 132 467 64 479 95 l 479 326 l 326 250 l 326 146 l 208 146 l 208 389 l 326 448 l 326 619 l 208 560 l 208 819 l 326 819 l 326 710 l 479 786 l 479 833 b 442 927 479 870 467 902 b 354 965 418 953 388 965 z "},"ƕ":{"ha":792,"x_min":0,"x_max":0,"o":"m 208 0 l 208 625 l 319 625 l 319 132 b 356 38 319 95 332 64 b 444 0 381 13 410 0 l 611 0 b 699 38 645 0 675 13 b 736 132 724 64 736 95 l 736 771 l 583 771 l 583 146 l 472 146 l 472 639 b 435 733 472 676 460 707 b 347 771 411 758 381 771 l 319 771 b 231 733 285 771 256 758 b 208 701 222 723 214 712 l 208 1000 l 56 924 l 56 0 z "},"Ɩ":{"ha":347,"x_min":0,"x_max":0,"o":"m 56 965 l 56 132 b 92 39 56 96 68 65 b 181 0 117 13 146 0 l 326 0 l 326 146 l 208 146 l 208 965 z "},"Ɨ":{"ha":264,"x_min":0,"x_max":0,"o":"m 208 583 l 208 965 l 56 965 l 56 507 l 14 486 l 14 361 l 56 382 l 56 0 l 208 0 l 208 458 l 250 479 l 250 604 z "},"ƚ":{"ha":264,"x_min":0,"x_max":0,"o":"m 14 431 l 56 431 l 56 0 l 208 0 l 208 431 l 250 431 l 250 535 l 208 535 l 208 1000 l 56 924 l 56 535 l 14 535 z "},"Ɯ":{"ha":806,"x_min":0,"x_max":0,"o":"m 403 71 b 425 39 408 60 416 49 b 514 0 450 13 480 0 l 625 0 b 713 38 659 0 689 13 b 750 132 738 64 750 95 l 750 965 l 597 965 l 597 146 l 479 146 l 479 965 l 326 965 l 326 146 l 208 146 l 208 965 l 56 965 l 56 132 b 92 39 56 96 68 65 b 181 0 117 13 146 0 l 291 0 b 380 38 326 0 355 13 b 403 71 390 48 397 59 z "},"Ɲ":{"ha":535,"x_min":0,"x_max":0,"o":"m 56 965 l 56 -49 l -56 -49 l -56 -194 l 83 -194 b 172 -156 118 -194 147 -182 b 208 -62 196 -131 208 -100 l 208 819 l 326 819 l 326 0 l 479 0 l 479 833 b 442 927 479 870 467 902 b 354 965 418 953 388 965 l 319 965 b 231 927 285 965 256 953 b 208 895 222 917 214 907 l 208 965 z "},"Ɵ":{"ha":535,"x_min":0,"x_max":0,"o":"m 479 833 b 442 927 479 870 467 902 b 354 965 418 953 388 965 l 181 965 b 92 927 146 965 117 953 b 56 833 68 902 56 870 l 56 132 b 92 39 56 96 68 65 b 181 0 117 13 146 0 l 354 0 b 442 38 388 0 418 13 b 479 132 467 64 479 95 z m 208 431 l 326 431 l 326 146 l 208 146 z m 208 576 l 208 819 l 326 819 l 326 576 z "},"Ơ":{"ha":590,"x_min":0,"x_max":0,"o":"m 479 938 l 479 833 l 590 889 l 590 993 z m 326 146 l 208 146 l 208 819 l 326 819 z m 479 833 b 442 927 479 870 467 902 b 354 965 418 953 388 965 l 181 965 b 92 927 146 965 117 953 b 56 833 68 902 56 870 l 56 132 b 92 39 56 96 68 65 b 181 0 117 13 146 0 l 354 0 b 442 38 388 0 418 13 b 479 132 467 64 479 95 z "},"ơ":{"ha":583,"x_min":0,"x_max":0,"o":"m 472 743 l 472 639 l 583 694 l 583 799 z m 319 146 l 208 146 l 208 625 l 319 625 z m 472 639 b 435 733 472 676 460 707 b 347 771 411 758 381 771 l 181 771 b 92 733 146 771 117 758 b 56 639 68 707 56 676 l 56 132 b 92 39 56 96 68 65 b 181 0 117 13 146 0 l 347 0 b 435 38 381 0 411 13 b 472 132 460 64 472 95 z "},"Ʃ":{"ha":479,"x_min":0,"x_max":0,"o":"m 458 0 l 458 147 l 194 147 l 319 484 l 194 821 l 458 821 l 458 967 l 42 967 l 42 821 l 167 484 l 42 147 l 42 0 z "},"Ư":{"ha":590,"x_min":0,"x_max":0,"o":"m 479 833 l 590 889 l 590 993 l 479 938 l 479 965 l 326 965 l 326 146 l 208 146 l 208 965 l 56 965 l 56 132 b 92 39 56 96 68 65 b 181 0 117 13 146 0 l 354 0 b 442 38 388 0 418 13 b 479 132 467 64 479 95 z "},"ư":{"ha":583,"x_min":0,"x_max":0,"o":"m 319 771 l 319 146 l 208 146 l 208 771 l 56 771 l 56 132 b 92 38 56 95 68 64 b 181 0 117 13 146 0 l 208 0 b 297 38 243 0 272 13 b 319 70 306 48 314 59 l 319 0 l 472 0 l 472 639 l 583 694 l 583 799 l 472 743 l 472 771 z "},"Ʊ":{"ha":535,"x_min":0,"x_max":0,"o":"m 479 965 l 326 965 l 326 146 l 208 146 l 208 965 l 56 965 l 56 132 b 92 39 56 96 68 65 b 181 0 117 13 146 0 l 354 0 b 442 38 388 0 418 13 b 479 132 467 64 479 95 z "},"Ƶ":{"ha":486,"x_min":0,"x_max":0,"o":"m 444 965 l 42 965 l 42 819 l 292 819 l 178 512 l 0 424 l 0 299 l 121 359 l 42 146 l 42 0 l 444 0 l 444 146 l 194 146 l 308 453 l 486 542 l 486 667 l 365 606 l 444 819 z "},"ƶ":{"ha":438,"x_min":0,"x_max":0,"o":"m 396 771 l 42 771 l 42 625 l 236 625 l 150 414 l -24 326 l -24 201 l 87 257 l 42 146 l 42 0 l 396 0 l 396 146 l 201 146 l 287 357 l 462 444 l 462 569 l 351 514 l 396 625 z "},"Ʒ":{"ha":521,"x_min":0,"x_max":0,"o":"m 42 965 l 42 667 l 194 743 l 194 819 l 313 819 l 313 625 l 201 568 l 201 396 l 313 453 l 313 146 l 194 146 l 194 292 l 42 215 l 42 132 b 78 38 42 95 54 64 b 167 0 103 13 132 0 l 340 0 b 428 38 375 0 404 13 b 465 132 453 64 465 95 l 465 507 l 414 507 b 449 546 430 518 441 531 b 465 625 460 568 465 594 l 465 965 z "},"ƿ":{"ha":528,"x_min":0,"x_max":0,"o":"m 208 171 l 208 625 l 319 625 l 319 230 z m 472 140 l 472 639 b 435 733 472 676 460 707 b 347 771 411 758 381 771 l 56 771 l 56 -194 l 208 -194 l 208 0 z "},"ǀ":{"ha":264,"x_min":0,"x_max":0,"o":"m 56 0 l 208 0 l 208 965 l 56 965 z "},"ǁ":{"ha":528,"x_min":0,"x_max":0,"o":"m 56 0 l 208 0 l 208 965 l 56 965 z m 319 0 l 472 0 l 472 965 l 319 965 z "},"ǂ":{"ha":597,"x_min":0,"x_max":0,"o":"m 556 848 l 375 758 l 375 965 l 222 965 l 222 681 l 42 591 l 42 428 l 222 518 l 222 371 l 42 280 l 42 117 l 222 208 l 222 0 l 375 0 l 375 284 l 556 374 l 556 537 l 375 447 l 375 595 l 556 685 z "},"ǃ":{"ha":264,"x_min":0,"x_max":0,"o":"m 208 42 l 208 181 l 56 104 l 56 -35 z m 208 965 l 56 965 l 56 174 l 208 250 z "},"ǉ":{"ha":528,"x_min":0,"x_max":0,"o":"m 319 924 l 319 785 l 472 861 l 472 1000 z m 319 715 l 319 -49 l 208 -49 l 208 -194 l 347 -194 b 435 -156 381 -194 411 -182 b 472 -62 460 -131 472 -100 l 472 792 z m 56 0 l 208 0 l 208 1000 l 56 924 z "},"Ǎ":{"ha":535,"x_min":0,"x_max":0,"o":"m 323 1014 l 448 1188 l 358 1188 l 267 1097 l 177 1188 l 87 1188 l 212 1014 z m 56 0 l 208 0 l 208 347 l 326 410 l 326 0 l 479 0 l 479 833 b 442 927 479 870 467 902 b 354 965 418 953 388 965 l 181 965 b 92 927 146 965 117 953 b 56 833 68 902 56 870 z m 208 518 l 208 819 l 326 819 l 326 581 z "},"ǎ":{"ha":528,"x_min":0,"x_max":0,"o":"m 319 840 l 444 1014 l 354 1014 l 264 924 l 174 1014 l 83 1014 l 208 840 z m 181 0 l 208 0 b 297 38 243 0 272 13 b 319 70 306 48 314 59 l 319 0 l 472 0 l 472 639 b 435 733 472 676 460 707 b 347 771 411 758 381 771 l 181 771 b 92 732 146 771 117 758 b 56 639 68 706 56 675 l 56 479 l 208 556 l 208 625 l 319 625 l 319 521 l 56 389 l 56 132 b 92 38 56 95 68 64 b 181 0 117 13 146 0 z m 208 326 l 319 382 l 319 146 l 208 146 z "},"Ǐ":{"ha":264,"x_min":0,"x_max":0,"o":"m 188 1014 l 313 1188 l 222 1188 l 132 1097 l 42 1188 l -49 1188 l 76 1014 z m 56 0 l 208 0 l 208 965 l 56 965 z "},"ǐ":{"ha":264,"x_min":0,"x_max":0,"o":"m 188 840 l 313 1014 l 222 1014 l 132 924 l 42 1014 l -49 1014 l 76 840 z m 56 0 l 208 0 l 208 771 l 56 771 z "},"Ǒ":{"ha":535,"x_min":0,"x_max":0,"o":"m 323 1014 l 448 1188 l 358 1188 l 267 1097 l 177 1188 l 87 1188 l 212 1014 z m 479 833 b 442 927 479 870 467 902 b 354 965 418 953 388 965 l 181 965 b 92 927 146 965 117 953 b 56 833 68 902 56 870 l 56 132 b 92 39 56 96 68 65 b 181 0 117 13 146 0 l 354 0 b 442 38 388 0 418 13 b 479 132 467 64 479 95 z m 326 146 l 208 146 l 208 819 l 326 819 z "},"ǒ":{"ha":528,"x_min":0,"x_max":0,"o":"m 319 840 l 444 1014 l 354 1014 l 264 924 l 174 1014 l 83 1014 l 208 840 z m 472 639 b 435 733 472 676 460 707 b 347 771 411 758 381 771 l 181 771 b 92 733 146 771 117 758 b 56 639 68 707 56 676 l 56 132 b 92 39 56 96 68 65 b 181 0 117 13 146 0 l 347 0 b 435 38 381 0 411 13 b 472 132 460 64 472 95 z m 319 146 l 208 146 l 208 625 l 319 625 z "},"Ǔ":{"ha":535,"x_min":0,"x_max":0,"o":"m 323 1014 l 448 1188 l 358 1188 l 267 1097 l 177 1188 l 87 1188 l 212 1014 z m 479 965 l 326 965 l 326 146 l 208 146 l 208 965 l 56 965 l 56 132 b 92 39 56 96 68 65 b 181 0 117 13 146 0 l 354 0 b 442 38 388 0 418 13 b 479 132 467 64 479 95 z "},"ǔ":{"ha":528,"x_min":0,"x_max":0,"o":"m 319 840 l 444 1014 l 354 1014 l 264 924 l 174 1014 l 83 1014 l 208 840 z m 319 771 l 319 146 l 208 146 l 208 771 l 56 771 l 56 132 b 92 38 56 95 68 64 b 181 0 117 13 146 0 l 208 0 b 297 38 243 0 272 13 b 319 70 306 48 314 59 l 319 0 l 472 0 l 472 771 z "},"ǝ":{"ha":528,"x_min":0,"x_max":0,"o":"m 472 132 l 472 639 b 435 733 472 676 460 707 b 347 771 411 758 381 771 l 181 771 b 92 732 146 771 117 758 b 56 639 68 706 56 675 l 56 410 l 208 486 l 208 625 l 319 625 l 319 451 l 56 319 l 56 132 b 92 38 56 95 68 64 b 181 0 117 13 146 0 l 347 0 b 435 38 381 0 411 13 b 472 132 460 63 472 94 z m 208 257 l 319 312 l 319 146 l 208 146 z "},"Ǣ":{"ha":736,"x_min":0,"x_max":0,"o":"m 271 1153 l 271 1049 l 535 1049 l 535 1153 z m 326 0 l 694 0 l 694 146 l 479 146 l 479 403 l 694 514 l 694 685 l 479 574 l 479 819 l 694 819 l 694 965 l 514 965 b 426 927 480 965 450 953 b 403 895 416 917 408 907 b 380 926 397 906 390 916 b 292 965 355 952 326 965 l 181 965 b 92 927 146 965 117 953 b 56 833 68 902 56 870 l 56 0 l 208 0 l 208 264 l 326 326 z m 326 819 l 326 497 l 208 435 l 208 819 z "},"ǣ":{"ha":792,"x_min":0,"x_max":0,"o":"m 264 979 l 264 875 l 528 875 l 528 979 z m 736 639 b 699 732 736 675 724 706 b 611 771 675 758 645 771 l 507 771 b 419 732 473 771 443 758 b 396 700 409 722 401 711 b 373 733 390 712 383 723 b 284 771 348 758 319 771 l 181 771 b 92 733 146 771 117 758 b 56 639 68 707 56 676 l 56 479 l 208 556 l 208 625 l 319 625 l 319 521 l 56 389 l 56 132 b 92 38 56 95 68 64 b 181 0 117 13 146 0 l 257 0 b 345 38 291 0 321 13 b 368 71 355 48 363 59 b 391 39 374 60 381 49 b 479 0 415 13 445 0 l 611 0 b 699 39 645 0 675 13 b 736 132 724 65 736 96 l 736 361 l 583 285 l 583 146 l 472 146 l 472 319 l 736 451 z m 472 458 l 472 625 l 583 625 l 583 514 z m 208 146 l 208 326 l 319 382 l 319 146 z "},"Ǥ":{"ha":535,"x_min":0,"x_max":0,"o":"m 181 0 l 479 0 l 479 292 l 521 313 l 521 438 l 479 417 l 479 657 l 264 546 l 264 375 l 326 407 l 326 340 l 285 319 l 285 194 l 326 215 l 326 146 l 208 146 l 208 819 l 326 819 l 326 667 l 479 747 l 479 833 b 442 927 479 870 467 902 b 354 965 418 953 388 965 l 181 965 b 92 927 146 965 117 953 b 56 833 68 902 56 870 l 56 132 b 92 39 56 96 68 65 b 181 0 117 13 146 0 z "},"ǥ":{"ha":528,"x_min":0,"x_max":0,"o":"m 472 -62 l 472 97 l 514 118 l 514 243 l 472 222 l 472 771 l 319 771 l 319 701 b 297 733 314 712 306 723 b 208 771 272 758 243 771 l 181 771 b 92 732 146 771 117 758 b 56 639 68 706 56 675 l 56 83 l 319 215 l 319 146 l 278 125 l 278 0 l 319 21 l 319 -49 l 208 -49 l 208 62 l 56 -14 l 56 -62 b 92 -156 56 -99 68 -130 b 181 -194 117 -181 146 -194 l 347 -194 b 435 -156 381 -194 411 -182 b 472 -62 460 -131 472 -100 z m 208 306 l 208 625 l 319 625 l 319 361 z "},"Ǧ":{"ha":535,"x_min":0,"x_max":0,"o":"m 323 1014 l 448 1188 l 358 1188 l 267 1097 l 177 1188 l 87 1188 l 212 1014 z m 181 0 l 479 0 l 479 636 l 264 525 l 264 354 l 326 386 l 326 146 l 208 146 l 208 819 l 326 819 l 326 646 l 479 726 l 479 833 b 442 927 479 870 467 902 b 354 965 418 953 388 965 l 181 965 b 92 927 146 965 117 953 b 56 833 68 902 56 870 l 56 132 b 92 39 56 96 68 65 b 181 0 117 13 146 0 z "},"ǧ":{"ha":528,"x_min":0,"x_max":0,"o":"m 319 840 l 444 1014 l 354 1014 l 264 924 l 174 1014 l 83 1014 l 208 840 z m 208 299 l 208 625 l 319 625 l 319 354 z m 472 -62 l 472 771 l 319 771 l 319 701 b 297 733 314 712 306 723 b 208 771 272 758 243 771 l 181 771 b 92 732 146 771 117 758 b 56 639 68 706 56 675 l 56 76 l 319 208 l 319 -49 l 208 -49 l 208 62 l 56 -14 l 56 -62 b 92 -156 56 -99 68 -130 b 181 -194 117 -181 146 -194 l 347 -194 b 435 -156 381 -194 411 -182 b 472 -62 460 -131 472 -100 z "},"Ǩ":{"ha":563,"x_min":0,"x_max":0,"o":"m 323 1014 l 448 1188 l 358 1188 l 267 1097 l 177 1188 l 87 1188 l 212 1014 z m 590 0 l 357 574 l 538 965 l 372 965 l 208 585 l 208 965 l 56 965 l 56 0 l 208 0 l 208 260 l 278 404 l 428 0 z "},"ǩ":{"ha":493,"x_min":0,"x_max":0,"o":"m 396 840 l 521 1014 l 431 1014 l 340 924 l 250 1014 l 160 1014 l 180 986 l 56 924 l 56 0 l 208 0 l 208 351 l 354 0 l 521 0 l 321 428 l 507 771 l 337 771 l 208 496 l 208 946 l 285 840 z "},"Ǫ":{"ha":535,"x_min":0,"x_max":0,"o":"m 302 -243 l 378 -243 l 378 -139 l 316 -139 l 316 0 l 212 0 l 212 -153 b 241 -217 212 -179 222 -200 b 302 -243 260 -234 281 -243 z m 479 833 b 442 927 479 870 467 902 b 354 965 418 953 388 965 l 181 965 b 92 927 146 965 117 953 b 56 833 68 902 56 870 l 56 132 b 92 39 56 96 68 65 b 181 0 117 13 146 0 l 354 0 b 442 38 388 0 418 13 b 479 132 467 64 479 95 z m 326 146 l 208 146 l 208 819 l 326 819 z "},"ǫ":{"ha":528,"x_min":0,"x_max":0,"o":"m 299 -243 l 375 -243 l 375 -139 l 313 -139 l 313 0 l 208 0 l 208 -153 b 238 -217 208 -179 218 -200 b 299 -243 257 -234 277 -243 z m 472 639 b 435 733 472 676 460 707 b 347 771 411 758 381 771 l 181 771 b 92 733 146 771 117 758 b 56 639 68 707 56 676 l 56 132 b 92 39 56 96 68 65 b 181 0 117 13 146 0 l 347 0 b 435 38 381 0 411 13 b 472 132 460 64 472 95 z m 319 146 l 208 146 l 208 625 l 319 625 z "},"Ǯ":{"ha":521,"x_min":0,"x_max":0,"o":"m 309 1014 l 434 1188 l 344 1188 l 253 1097 l 163 1188 l 73 1188 l 198 1014 z m 42 965 l 42 667 l 194 743 l 194 819 l 313 819 l 313 625 l 201 568 l 201 396 l 313 453 l 313 146 l 194 146 l 194 292 l 42 215 l 42 132 b 78 38 42 95 54 64 b 167 0 103 13 132 0 l 340 0 b 428 38 375 0 404 13 b 465 132 453 64 465 95 l 465 507 l 414 507 b 449 546 430 518 441 531 b 465 625 460 568 465 594 l 465 965 z "},"ǯ":{"ha":514,"x_min":0,"x_max":0,"o":"m 306 840 l 431 1014 l 340 1014 l 250 924 l 160 1014 l 69 1014 l 194 840 z m 42 771 l 42 472 l 194 549 l 194 625 l 306 625 l 306 431 l 194 374 l 194 201 l 306 258 l 306 -49 l 194 -49 l 194 97 l 42 21 l 42 -62 b 78 -156 42 -100 54 -131 b 167 -194 103 -182 132 -194 l 333 -194 b 422 -156 368 -194 397 -182 b 458 -62 446 -131 458 -100 l 458 313 l 407 313 b 442 351 423 324 434 337 b 458 431 453 374 458 400 l 458 771 z "},"ǰ":{"ha":264,"x_min":0,"x_max":0,"o":"m 188 840 l 313 1014 l 222 1014 l 132 924 l 42 1014 l -49 1014 l 76 840 z m 56 771 l 56 -49 l -56 -49 l -56 -194 l 83 -194 b 172 -156 118 -194 147 -182 b 208 -62 196 -131 208 -100 l 208 771 z "},"Ǵ":{"ha":535,"x_min":0,"x_max":0,"o":"m 267 1000 l 427 1236 l 297 1236 l 178 1000 z m 181 0 l 479 0 l 479 636 l 264 525 l 264 354 l 326 386 l 326 146 l 208 146 l 208 819 l 326 819 l 326 646 l 479 726 l 479 833 b 442 927 479 870 467 902 b 354 965 418 953 388 965 l 181 965 b 92 927 146 965 117 953 b 56 833 68 902 56 870 l 56 132 b 92 39 56 96 68 65 b 181 0 117 13 146 0 z "},"ǵ":{"ha":528,"x_min":0,"x_max":0,"o":"m 264 826 l 424 1063 l 293 1063 l 175 826 z m 208 299 l 208 625 l 319 625 l 319 354 z m 472 -62 l 472 771 l 319 771 l 319 701 b 297 733 314 712 306 723 b 208 771 272 758 243 771 l 181 771 b 92 732 146 771 117 758 b 56 639 68 706 56 675 l 56 76 l 319 208 l 319 -49 l 208 -49 l 208 62 l 56 -14 l 56 -62 b 92 -156 56 -99 68 -130 b 181 -194 117 -181 146 -194 l 347 -194 b 435 -156 381 -194 411 -182 b 472 -62 460 -131 472 -100 z "},"Ƕ":{"ha":806,"x_min":0,"x_max":0,"o":"m 750 965 l 597 965 l 597 146 l 479 146 l 479 965 l 326 965 l 326 617 l 208 554 l 208 965 l 56 965 l 56 0 l 208 0 l 208 383 l 326 446 l 326 132 b 363 39 326 96 339 65 b 451 0 388 13 417 0 l 625 0 b 713 38 659 0 689 13 b 750 132 738 64 750 95 z "},"Ƿ":{"ha":535,"x_min":0,"x_max":0,"o":"m 326 233 l 208 171 l 208 819 l 326 819 z m 208 -194 l 208 0 l 479 143 l 479 833 b 442 927 479 870 467 902 b 354 965 418 953 388 965 l 56 965 l 56 -194 z "},"Ǹ":{"ha":535,"x_min":0,"x_max":0,"o":"m 267 1000 l 356 1000 l 238 1236 l 108 1236 z m 208 0 l 208 819 l 326 819 l 326 0 l 479 0 l 479 833 b 442 927 479 870 467 902 b 354 965 418 953 388 965 l 319 965 b 231 927 285 965 256 953 b 208 895 222 917 214 907 l 208 965 l 56 965 l 56 0 z "},"ǹ":{"ha":528,"x_min":0,"x_max":0,"o":"m 264 826 l 353 826 l 235 1063 l 104 1063 z m 208 0 l 208 625 l 319 625 l 319 0 l 472 0 l 472 639 b 435 733 472 676 460 707 b 347 771 411 758 381 771 l 319 771 b 231 733 285 771 256 758 b 208 701 222 723 214 712 l 208 771 l 56 771 l 56 0 z "},"Ǻ":{"ha":535,"x_min":0,"x_max":0,"o":"m 333 1000 l 493 1236 l 363 1236 l 244 1000 z m 56 0 l 208 0 l 208 347 l 326 410 l 326 0 l 479 0 l 479 833 b 442 927 479 870 467 902 b 354 965 418 953 388 965 l 181 965 b 92 927 146 965 117 953 b 56 833 68 902 56 870 z m 208 518 l 208 819 l 326 819 l 326 581 z m 243 1069 l 160 1069 l 160 1153 l 243 1153 z m 257 1222 l 146 1222 b 81 1193 120 1222 98 1213 b 56 1132 64 1174 56 1153 l 56 1090 b 81 1029 56 1069 64 1049 b 146 1000 98 1010 120 1000 l 257 1000 b 322 1029 283 1000 304 1010 b 347 1090 339 1049 347 1069 l 347 1132 b 322 1193 347 1153 339 1174 b 257 1222 304 1213 283 1222 z "},"ǻ":{"ha":528,"x_min":0,"x_max":0,"o":"m 326 826 l 486 1063 l 356 1063 l 238 826 z m 181 0 l 208 0 b 297 38 243 0 272 13 b 319 70 306 48 314 59 l 319 0 l 472 0 l 472 639 b 435 733 472 676 460 707 b 347 771 411 758 381 771 l 181 771 b 92 732 146 771 117 758 b 56 639 68 706 56 675 l 56 479 l 208 556 l 208 625 l 319 625 l 319 521 l 56 389 l 56 132 b 92 38 56 95 68 64 b 181 0 117 13 146 0 z m 208 326 l 319 382 l 319 146 l 208 146 z m 243 896 l 160 896 l 160 979 l 243 979 z m 257 1049 l 146 1049 b 81 1019 120 1049 98 1039 b 56 958 64 1000 56 980 l 56 917 b 81 856 56 895 64 875 b 146 826 98 836 120 826 l 257 826 b 322 856 283 826 304 836 b 347 917 339 875 347 895 l 347 958 b 322 1019 347 980 339 1000 b 257 1049 304 1039 283 1049 z "},"Ǽ":{"ha":736,"x_min":0,"x_max":0,"o":"m 403 1000 l 563 1236 l 432 1236 l 314 1000 z m 326 0 l 694 0 l 694 146 l 479 146 l 479 403 l 694 514 l 694 685 l 479 574 l 479 819 l 694 819 l 694 965 l 514 965 b 426 927 480 965 450 953 b 403 895 416 917 408 907 b 380 926 397 906 390 916 b 292 965 355 952 326 965 l 181 965 b 92 927 146 965 117 953 b 56 833 68 902 56 870 l 56 0 l 208 0 l 208 264 l 326 326 z m 326 819 l 326 497 l 208 435 l 208 819 z "},"ǽ":{"ha":792,"x_min":0,"x_max":0,"o":"m 396 826 l 556 1063 l 425 1063 l 307 826 z m 736 639 b 699 732 736 675 724 706 b 611 771 675 758 645 771 l 507 771 b 419 732 473 771 443 758 b 396 700 409 722 401 711 b 373 733 390 712 383 723 b 284 771 348 758 319 771 l 181 771 b 92 733 146 771 117 758 b 56 639 68 707 56 676 l 56 479 l 208 556 l 208 625 l 319 625 l 319 521 l 56 389 l 56 132 b 92 38 56 95 68 64 b 181 0 117 13 146 0 l 257 0 b 345 38 291 0 321 13 b 368 71 355 48 363 59 b 391 39 374 60 381 49 b 479 0 415 13 445 0 l 611 0 b 699 39 645 0 675 13 b 736 132 724 65 736 96 l 736 361 l 583 285 l 583 146 l 472 146 l 472 319 l 736 451 z m 472 458 l 472 625 l 583 625 l 583 514 z m 208 146 l 208 326 l 319 382 l 319 146 z "},"Ǿ":{"ha":535,"x_min":0,"x_max":0,"o":"m 267 1000 l 427 1236 l 297 1236 l 178 1000 z m 326 146 l 208 146 l 208 819 l 326 819 z m 479 833 b 449 920 479 867 469 896 l 479 1035 l 371 1035 l 352 965 l 181 965 b 92 927 146 965 117 953 b 56 833 68 902 56 870 l 56 132 b 86 46 56 99 66 70 l 56 -69 l 164 -69 l 182 0 l 354 0 b 442 38 388 0 418 13 b 479 132 467 64 479 95 z "},"ǿ":{"ha":528,"x_min":0,"x_max":0,"o":"m 264 826 l 424 1063 l 293 1063 l 175 826 z m 319 146 l 208 146 l 208 625 l 319 625 z m 472 639 b 442 726 472 673 462 702 l 472 840 l 364 840 l 345 771 l 181 771 b 92 733 146 771 117 758 b 56 639 68 707 56 676 l 56 132 b 86 46 56 99 66 70 l 56 -69 l 164 -69 l 182 0 l 347 0 b 435 38 381 0 411 13 b 472 132 460 64 472 95 z "},"Ȁ":{"ha":535,"x_min":0,"x_max":0,"o":"m 378 1000 l 467 1000 l 349 1236 l 219 1236 z m 156 1000 l 245 1000 l 127 1236 l -3 1236 z m 56 0 l 208 0 l 208 347 l 326 410 l 326 0 l 479 0 l 479 833 b 442 927 479 870 467 902 b 354 965 418 953 388 965 l 181 965 b 92 927 146 965 117 953 b 56 833 68 902 56 870 z m 208 518 l 208 819 l 326 819 l 326 581 z "},"ȁ":{"ha":528,"x_min":0,"x_max":0,"o":"m 375 826 l 464 826 l 346 1063 l 215 1063 z m 153 826 l 242 826 l 124 1063 l -7 1063 z m 181 0 l 208 0 b 297 38 243 0 272 13 b 319 70 306 48 314 59 l 319 0 l 472 0 l 472 639 b 435 733 472 676 460 707 b 347 771 411 758 381 771 l 181 771 b 92 732 146 771 117 758 b 56 639 68 706 56 675 l 56 479 l 208 556 l 208 625 l 319 625 l 319 521 l 56 389 l 56 132 b 92 38 56 95 68 64 b 181 0 117 13 146 0 z m 208 326 l 319 382 l 319 146 l 208 146 z "},"Ȃ":{"ha":535,"x_min":0,"x_max":0,"o":"m 344 1049 l 344 993 l 448 993 l 448 1049 b 393 1149 448 1095 430 1128 b 267 1181 356 1170 315 1181 b 142 1149 220 1181 178 1170 b 87 1049 105 1128 87 1095 l 87 993 l 191 993 l 191 1049 z m 56 0 l 208 0 l 208 347 l 326 410 l 326 0 l 479 0 l 479 833 b 442 927 479 870 467 902 b 354 965 418 953 388 965 l 181 965 b 92 927 146 965 117 953 b 56 833 68 902 56 870 z m 208 518 l 208 819 l 326 819 l 326 581 z "},"ȃ":{"ha":528,"x_min":0,"x_max":0,"o":"m 340 875 l 340 819 l 444 819 l 444 875 b 390 976 444 921 426 955 b 264 1007 353 997 311 1007 b 138 976 217 1007 175 997 b 83 875 102 955 83 921 l 83 819 l 188 819 l 188 875 z m 181 0 l 208 0 b 297 38 243 0 272 13 b 319 70 306 48 314 59 l 319 0 l 472 0 l 472 639 b 435 733 472 676 460 707 b 347 771 411 758 381 771 l 181 771 b 92 732 146 771 117 758 b 56 639 68 706 56 675 l 56 479 l 208 556 l 208 625 l 319 625 l 319 521 l 56 389 l 56 132 b 92 38 56 95 68 64 b 181 0 117 13 146 0 z m 208 326 l 319 382 l 319 146 l 208 146 z "},"Ȅ":{"ha":465,"x_min":0,"x_max":0,"o":"m 351 1000 l 440 1000 l 322 1236 l 191 1236 z m 128 1000 l 217 1000 l 99 1236 l -31 1236 z m 424 819 l 424 965 l 181 965 b 92 927 146 965 117 953 b 56 833 68 902 56 870 l 56 0 l 424 0 l 424 146 l 208 146 l 208 389 l 424 500 l 424 671 l 208 560 l 208 819 z "},"ȅ":{"ha":528,"x_min":0,"x_max":0,"o":"m 375 826 l 464 826 l 346 1063 l 215 1063 z m 153 826 l 242 826 l 124 1063 l -7 1063 z m 56 639 l 56 132 b 92 38 56 95 68 64 b 181 0 117 13 146 0 l 347 0 b 435 39 381 0 411 13 b 472 132 460 65 472 96 l 472 361 l 319 285 l 319 146 l 208 146 l 208 319 l 472 451 l 472 639 b 435 733 472 676 460 707 b 347 771 411 758 381 771 l 181 771 b 92 733 146 771 117 758 b 56 639 68 708 56 677 z m 319 514 l 208 458 l 208 625 l 319 625 z "},"Ȇ":{"ha":465,"x_min":0,"x_max":0,"o":"m 316 1049 l 316 993 l 420 993 l 420 1049 b 365 1149 420 1095 402 1128 b 240 1181 329 1170 287 1181 b 114 1149 192 1181 150 1170 b 59 1049 77 1128 59 1095 l 59 993 l 163 993 l 163 1049 z m 424 819 l 424 965 l 181 965 b 92 927 146 965 117 953 b 56 833 68 902 56 870 l 56 0 l 424 0 l 424 146 l 208 146 l 208 389 l 424 500 l 424 671 l 208 560 l 208 819 z "},"ȇ":{"ha":528,"x_min":0,"x_max":0,"o":"m 340 875 l 340 819 l 444 819 l 444 875 b 390 976 444 921 426 955 b 264 1007 353 997 311 1007 b 138 976 217 1007 175 997 b 83 875 102 955 83 921 l 83 819 l 188 819 l 188 875 z m 56 639 l 56 132 b 92 38 56 95 68 64 b 181 0 117 13 146 0 l 347 0 b 435 39 381 0 411 13 b 472 132 460 65 472 96 l 472 361 l 319 285 l 319 146 l 208 146 l 208 319 l 472 451 l 472 639 b 435 733 472 676 460 707 b 347 771 411 758 381 771 l 181 771 b 92 733 146 771 117 758 b 56 639 68 708 56 677 z m 319 514 l 208 458 l 208 625 l 319 625 z "},"Ȉ":{"ha":264,"x_min":0,"x_max":0,"o":"m 243 1000 l 332 1000 l 214 1236 l 83 1236 z m 21 1000 l 110 1000 l -8 1236 l -139 1236 z m 56 0 l 208 0 l 208 965 l 56 965 z "},"ȉ":{"ha":264,"x_min":0,"x_max":0,"o":"m 243 826 l 332 826 l 214 1063 l 83 1063 z m 21 826 l 110 826 l -8 1063 l -139 1063 z m 56 0 l 208 0 l 208 771 l 56 771 z "},"Ȋ":{"ha":264,"x_min":0,"x_max":0,"o":"m 208 1049 l 208 993 l 313 993 l 313 1049 b 258 1149 313 1095 294 1128 b 132 1181 221 1170 179 1181 b 6 1149 85 1181 43 1170 b -49 1049 -30 1128 -49 1095 l -49 993 l 56 993 l 56 1049 z m 56 0 l 208 0 l 208 965 l 56 965 z "},"ȋ":{"ha":264,"x_min":0,"x_max":0,"o":"m 208 875 l 208 819 l 313 819 l 313 875 b 258 976 313 921 294 955 b 132 1007 221 997 179 1007 b 6 976 85 1007 43 997 b -49 875 -30 955 -49 921 l -49 819 l 56 819 l 56 875 z m 56 0 l 208 0 l 208 771 l 56 771 z "},"Ȍ":{"ha":535,"x_min":0,"x_max":0,"o":"m 378 1000 l 467 1000 l 349 1236 l 219 1236 z m 156 1000 l 245 1000 l 127 1236 l -3 1236 z m 479 833 b 442 927 479 870 467 902 b 354 965 418 953 388 965 l 181 965 b 92 927 146 965 117 953 b 56 833 68 902 56 870 l 56 132 b 92 39 56 96 68 65 b 181 0 117 13 146 0 l 354 0 b 442 38 388 0 418 13 b 479 132 467 64 479 95 z m 326 146 l 208 146 l 208 819 l 326 819 z "},"ȍ":{"ha":528,"x_min":0,"x_max":0,"o":"m 375 826 l 464 826 l 346 1063 l 215 1063 z m 153 826 l 242 826 l 124 1063 l -7 1063 z m 472 639 b 435 733 472 676 460 707 b 347 771 411 758 381 771 l 181 771 b 92 733 146 771 117 758 b 56 639 68 707 56 676 l 56 132 b 92 39 56 96 68 65 b 181 0 117 13 146 0 l 347 0 b 435 38 381 0 411 13 b 472 132 460 64 472 95 z m 319 146 l 208 146 l 208 625 l 319 625 z "},"Ȏ":{"ha":535,"x_min":0,"x_max":0,"o":"m 344 1049 l 344 993 l 448 993 l 448 1049 b 393 1149 448 1095 430 1128 b 267 1181 356 1170 315 1181 b 142 1149 220 1181 178 1170 b 87 1049 105 1128 87 1095 l 87 993 l 191 993 l 191 1049 z m 479 833 b 442 927 479 870 467 902 b 354 965 418 953 388 965 l 181 965 b 92 927 146 965 117 953 b 56 833 68 902 56 870 l 56 132 b 92 39 56 96 68 65 b 181 0 117 13 146 0 l 354 0 b 442 38 388 0 418 13 b 479 132 467 64 479 95 z m 326 146 l 208 146 l 208 819 l 326 819 z "},"ȏ":{"ha":528,"x_min":0,"x_max":0,"o":"m 340 875 l 340 819 l 444 819 l 444 875 b 390 976 444 921 426 955 b 264 1007 353 997 311 1007 b 138 976 217 1007 175 997 b 83 875 102 955 83 921 l 83 819 l 188 819 l 188 875 z m 472 639 b 435 733 472 676 460 707 b 347 771 411 758 381 771 l 181 771 b 92 733 146 771 117 758 b 56 639 68 707 56 676 l 56 132 b 92 39 56 96 68 65 b 181 0 117 13 146 0 l 347 0 b 435 38 381 0 411 13 b 472 132 460 64 472 95 z m 319 146 l 208 146 l 208 625 l 319 625 z "},"Ȑ":{"ha":535,"x_min":0,"x_max":0,"o":"m 378 1000 l 467 1000 l 349 1236 l 219 1236 z m 156 1000 l 245 1000 l 127 1236 l -3 1236 z m 403 0 l 569 0 l 378 430 l 479 482 l 479 833 b 442 927 479 870 467 902 b 354 965 418 953 388 965 l 56 965 l 56 0 l 208 0 l 208 343 l 243 361 z m 326 576 l 208 514 l 208 819 l 326 819 z "},"ȑ":{"ha":493,"x_min":0,"x_max":0,"o":"m 375 826 l 464 826 l 346 1063 l 215 1063 z m 153 826 l 242 826 l 124 1063 l -7 1063 z m 208 0 l 208 625 l 319 625 l 319 458 l 472 535 l 472 639 b 435 733 472 676 460 707 b 347 771 411 758 381 771 l 319 771 b 231 733 285 771 256 758 b 208 701 222 723 214 712 l 208 771 l 56 771 l 56 0 z "},"Ȓ":{"ha":535,"x_min":0,"x_max":0,"o":"m 344 1049 l 344 993 l 448 993 l 448 1049 b 393 1149 448 1095 430 1128 b 267 1181 356 1170 315 1181 b 142 1149 220 1181 178 1170 b 87 1049 105 1128 87 1095 l 87 993 l 191 993 l 191 1049 z m 403 0 l 569 0 l 378 430 l 479 482 l 479 833 b 442 927 479 870 467 902 b 354 965 418 953 388 965 l 56 965 l 56 0 l 208 0 l 208 343 l 243 361 z m 326 576 l 208 514 l 208 819 l 326 819 z "},"ȓ":{"ha":493,"x_min":0,"x_max":0,"o":"m 340 875 l 340 819 l 444 819 l 444 875 b 390 976 444 921 426 955 b 264 1007 353 997 311 1007 b 138 976 217 1007 175 997 b 83 875 102 955 83 921 l 83 819 l 188 819 l 188 875 z m 208 0 l 208 625 l 319 625 l 319 458 l 472 535 l 472 639 b 435 733 472 676 460 707 b 347 771 411 758 381 771 l 319 771 b 231 733 285 771 256 758 b 208 701 222 723 214 712 l 208 771 l 56 771 l 56 0 z "},"Ȕ":{"ha":535,"x_min":0,"x_max":0,"o":"m 378 1000 l 467 1000 l 349 1236 l 219 1236 z m 156 1000 l 245 1000 l 127 1236 l -3 1236 z m 479 965 l 326 965 l 326 146 l 208 146 l 208 965 l 56 965 l 56 132 b 92 39 56 96 68 65 b 181 0 117 13 146 0 l 354 0 b 442 38 388 0 418 13 b 479 132 467 64 479 95 z "},"ȕ":{"ha":528,"x_min":0,"x_max":0,"o":"m 375 826 l 464 826 l 346 1063 l 215 1063 z m 153 826 l 242 826 l 124 1063 l -7 1063 z m 319 771 l 319 146 l 208 146 l 208 771 l 56 771 l 56 132 b 92 38 56 95 68 64 b 181 0 117 13 146 0 l 208 0 b 297 38 243 0 272 13 b 319 70 306 48 314 59 l 319 0 l 472 0 l 472 771 z "},"Ȗ":{"ha":535,"x_min":0,"x_max":0,"o":"m 344 1049 l 344 993 l 448 993 l 448 1049 b 393 1149 448 1095 430 1128 b 267 1181 356 1170 315 1181 b 142 1149 220 1181 178 1170 b 87 1049 105 1128 87 1095 l 87 993 l 191 993 l 191 1049 z m 479 965 l 326 965 l 326 146 l 208 146 l 208 965 l 56 965 l 56 132 b 92 39 56 96 68 65 b 181 0 117 13 146 0 l 354 0 b 442 38 388 0 418 13 b 479 132 467 64 479 95 z "},"ȗ":{"ha":528,"x_min":0,"x_max":0,"o":"m 340 875 l 340 819 l 444 819 l 444 875 b 390 976 444 921 426 955 b 264 1007 353 997 311 1007 b 138 976 217 1007 175 997 b 83 875 102 955 83 921 l 83 819 l 188 819 l 188 875 z m 319 771 l 319 146 l 208 146 l 208 771 l 56 771 l 56 132 b 92 38 56 95 68 64 b 181 0 117 13 146 0 l 208 0 b 297 38 243 0 272 13 b 319 70 306 48 314 59 l 319 0 l 472 0 l 472 771 z "},"Ș":{"ha":535,"x_min":0,"x_max":0,"o":"m 191 -278 l 344 -201 l 344 -49 l 191 -49 z m 56 833 l 56 313 l 326 451 l 326 146 l 208 146 l 208 299 l 56 222 l 56 132 b 92 38 56 95 68 64 b 181 0 117 13 146 0 l 354 0 b 442 39 388 0 418 13 b 479 132 467 65 479 96 l 479 701 l 208 563 l 208 819 l 326 819 l 326 715 l 479 792 l 479 833 b 442 927 479 870 467 902 b 354 965 418 953 388 965 l 181 965 b 92 928 146 965 117 953 b 56 833 68 903 56 871 z "},"ș":{"ha":528,"x_min":0,"x_max":0,"o":"m 188 -278 l 340 -201 l 340 -49 l 188 -49 z m 56 639 l 56 229 l 319 361 l 319 146 l 208 146 l 208 236 l 56 160 l 56 132 b 92 38 56 95 68 64 b 181 0 117 13 146 0 l 347 0 b 435 39 381 0 411 13 b 472 132 460 65 472 96 l 472 567 l 208 435 l 208 625 l 319 625 l 319 560 l 472 636 l 472 639 b 435 733 472 676 460 707 b 347 771 411 758 381 771 l 181 771 b 92 733 146 771 117 758 b 56 639 68 708 56 677 z "},"Ț":{"ha":500,"x_min":0,"x_max":0,"o":"m 174 -278 l 326 -201 l 326 -49 l 174 -49 z m 174 0 l 326 0 l 326 819 l 479 819 l 479 965 l 21 965 l 21 819 l 174 819 z "},"ț":{"ha":410,"x_min":0,"x_max":0,"o":"m 139 -278 l 292 -201 l 292 -49 l 139 -49 z m 264 146 l 264 559 l 389 622 l 389 792 l 264 730 l 264 903 l 111 826 l 111 656 l 21 608 l 21 438 l 111 485 l 111 132 b 148 39 111 96 123 65 b 236 0 172 13 202 0 l 410 0 l 410 146 z "},"Ȝ":{"ha":521,"x_min":0,"x_max":0,"o":"m 382 139 b 444 195 409 153 429 172 b 465 277 458 219 465 246 l 465 521 l 414 521 b 449 560 430 532 441 545 b 465 639 460 582 465 608 l 465 833 b 428 927 465 870 453 902 b 340 965 404 953 375 965 l 167 965 b 78 927 132 965 103 953 b 42 833 54 902 42 870 l 42 669 l 194 746 l 194 819 l 313 819 l 313 632 l 194 569 l 194 403 l 313 465 l 313 271 l 42 132 l 42 -35 z "},"ȝ":{"ha":514,"x_min":0,"x_max":0,"o":"m 375 -62 b 437 -8 402 -49 422 -31 b 458 75 451 14 458 42 l 458 326 l 407 326 b 442 367 423 338 434 351 b 458 444 453 388 458 414 l 458 639 b 422 733 458 676 446 707 b 333 771 397 758 368 771 l 167 771 b 78 733 132 771 103 758 b 42 639 54 707 42 676 l 42 475 l 194 551 l 194 625 l 306 625 l 306 438 l 194 382 l 194 219 l 306 275 l 306 69 l 42 -62 l 42 -229 z "},"Ȟ":{"ha":535,"x_min":0,"x_max":0,"o":"m 323 1014 l 448 1188 l 358 1188 l 267 1097 l 177 1188 l 87 1188 l 212 1014 z m 326 446 l 326 0 l 479 0 l 479 965 l 326 965 l 326 617 l 208 554 l 208 965 l 56 965 l 56 0 l 208 0 l 208 383 z "},"ȟ":{"ha":528,"x_min":0,"x_max":0,"o":"m 396 840 l 521 1014 l 431 1014 l 340 924 l 250 1014 l 160 1014 l 180 986 l 56 924 l 56 0 l 208 0 l 208 625 l 319 625 l 319 0 l 472 0 l 472 639 b 435 733 472 676 460 707 b 347 771 411 758 381 771 l 319 771 b 231 733 285 771 256 758 b 208 701 222 723 214 712 l 208 946 l 285 840 z "},"Ȧ":{"ha":535,"x_min":0,"x_max":0,"o":"m 191 1132 l 191 993 l 344 1069 l 344 1208 z m 56 0 l 208 0 l 208 347 l 326 410 l 326 0 l 479 0 l 479 833 b 442 927 479 870 467 902 b 354 965 418 953 388 965 l 181 965 b 92 927 146 965 117 953 b 56 833 68 902 56 870 z m 208 518 l 208 819 l 326 819 l 326 581 z "},"ȧ":{"ha":528,"x_min":0,"x_max":0,"o":"m 188 958 l 188 819 l 340 896 l 340 1035 z m 181 0 l 208 0 b 297 38 243 0 272 13 b 319 70 306 48 314 59 l 319 0 l 472 0 l 472 639 b 435 733 472 676 460 707 b 347 771 411 758 381 771 l 181 771 b 92 732 146 771 117 758 b 56 639 68 706 56 675 l 56 479 l 208 556 l 208 625 l 319 625 l 319 521 l 56 389 l 56 132 b 92 38 56 95 68 64 b 181 0 117 13 146 0 z m 208 326 l 319 382 l 319 146 l 208 146 z "},"Ȩ":{"ha":465,"x_min":0,"x_max":0,"o":"m 275 -243 l 309 -49 l 205 -49 l 170 -243 z m 424 819 l 424 965 l 181 965 b 92 927 146 965 117 953 b 56 833 68 902 56 870 l 56 0 l 424 0 l 424 146 l 208 146 l 208 389 l 424 500 l 424 671 l 208 560 l 208 819 z "},"ȩ":{"ha":528,"x_min":0,"x_max":0,"o":"m 299 -243 l 333 -49 l 229 -49 l 195 -243 z m 56 639 l 56 132 b 92 38 56 95 68 64 b 181 0 117 13 146 0 l 347 0 b 435 39 381 0 411 13 b 472 132 460 65 472 96 l 472 361 l 319 285 l 319 146 l 208 146 l 208 319 l 472 451 l 472 639 b 435 733 472 676 460 707 b 347 771 411 758 381 771 l 181 771 b 92 733 146 771 117 758 b 56 639 68 708 56 677 z m 319 514 l 208 458 l 208 625 l 319 625 z "},"Ȯ":{"ha":535,"x_min":0,"x_max":0,"o":"m 191 1132 l 191 993 l 344 1069 l 344 1208 z m 479 833 b 442 927 479 870 467 902 b 354 965 418 953 388 965 l 181 965 b 92 927 146 965 117 953 b 56 833 68 902 56 870 l 56 132 b 92 39 56 96 68 65 b 181 0 117 13 146 0 l 354 0 b 442 38 388 0 418 13 b 479 132 467 64 479 95 z m 326 146 l 208 146 l 208 819 l 326 819 z "},"ȯ":{"ha":528,"x_min":0,"x_max":0,"o":"m 188 958 l 188 819 l 340 896 l 340 1035 z m 472 639 b 435 733 472 676 460 707 b 347 771 411 758 381 771 l 181 771 b 92 733 146 771 117 758 b 56 639 68 707 56 676 l 56 132 b 92 39 56 96 68 65 b 181 0 117 13 146 0 l 347 0 b 435 38 381 0 411 13 b 472 132 460 64 472 95 z m 319 146 l 208 146 l 208 625 l 319 625 z "},"Ȳ":{"ha":535,"x_min":0,"x_max":0,"o":"m 135 1153 l 135 1049 l 399 1049 l 399 1153 z m 56 965 l 56 313 l 326 451 l 326 146 l 208 146 l 208 257 l 56 181 l 56 132 b 92 39 56 96 68 65 b 181 0 117 13 146 0 l 354 0 b 442 38 388 0 418 13 b 479 132 467 64 479 95 l 479 965 l 326 965 l 326 622 l 208 560 l 208 965 z "},"ȳ":{"ha":528,"x_min":0,"x_max":0,"o":"m 132 979 l 132 875 l 396 875 l 396 979 z m 319 771 l 319 361 l 208 306 l 208 771 l 56 771 l 56 76 l 319 208 l 319 -49 l 208 -49 l 208 62 l 56 -14 l 56 -62 b 92 -156 56 -99 68 -130 b 181 -194 117 -181 146 -194 l 347 -194 b 435 -156 381 -194 411 -182 b 472 -62 460 -131 472 -100 l 472 771 z "},"ȷ":{"ha":264,"x_min":0,"x_max":0,"o":"m 56 771 l 56 -49 l -56 -49 l -56 -194 l 83 -194 b 172 -156 118 -194 147 -182 b 208 -62 196 -131 208 -100 l 208 771 z "},"Ⱥ":{"ha":535,"x_min":0,"x_max":0,"o":"m 208 518 l 208 819 l 326 819 l 326 581 z m 56 0 l 74 0 l 56 -69 l 164 -69 l 182 0 l 208 0 l 208 347 l 326 410 l 326 0 l 479 0 l 479 833 b 449 920 479 867 469 896 l 479 1035 l 371 1035 l 352 965 l 181 965 b 92 927 146 965 117 953 b 56 833 68 902 56 870 z "},"Ȼ":{"ha":521,"x_min":0,"x_max":0,"o":"m 326 264 l 326 146 l 208 146 l 208 819 l 326 819 l 326 674 l 479 750 l 479 833 b 449 920 479 867 469 896 l 479 1035 l 371 1035 l 352 965 l 181 965 b 92 927 146 965 117 953 b 56 833 68 902 56 870 l 56 132 b 86 46 56 99 66 70 l 56 -69 l 164 -69 l 182 0 l 354 0 b 442 38 388 0 418 13 b 479 132 467 64 479 95 l 479 340 z "},"ȼ":{"ha":514,"x_min":0,"x_max":0,"o":"m 56 639 l 56 132 b 86 46 56 99 66 70 l 56 -69 l 164 -69 l 182 0 l 347 0 b 435 38 381 0 411 13 b 472 132 460 64 472 95 l 472 333 l 319 257 l 319 146 l 208 146 l 208 625 l 319 625 l 319 521 l 472 597 l 472 639 b 442 726 472 673 462 702 l 472 840 l 364 840 l 345 771 l 181 771 b 92 733 146 771 117 758 b 56 639 68 707 56 676 z "},"Ƚ":{"ha":451,"x_min":0,"x_max":0,"o":"m 42 507 l 56 507 l 56 0 l 431 0 l 431 146 l 208 146 l 208 507 l 278 507 l 278 611 l 208 611 l 208 965 l 56 965 l 56 611 l 42 611 z "},"Ⱦ":{"ha":500,"x_min":0,"x_max":0,"o":"m 326 507 l 326 819 l 479 819 l 479 965 l 21 965 l 21 819 l 174 819 l 174 431 l 7 347 l 7 222 l 174 306 l 174 0 l 326 0 l 326 382 l 493 465 l 493 590 z "},"Ɂ":{"ha":465,"x_min":0,"x_max":0,"o":"m 153 450 l 153 0 l 306 0 l 306 450 l 371 486 b 428 540 398 501 417 519 b 444 618 439 562 444 588 l 444 833 b 408 927 444 870 432 902 b 319 965 383 953 354 965 l 146 965 b 58 927 112 965 82 953 b 21 833 33 902 21 870 l 21 642 l 174 718 l 174 819 l 292 819 l 292 618 l 228 583 b 170 529 201 569 182 551 b 153 450 159 507 153 481 z "},"ɂ":{"ha":458,"x_min":0,"x_max":0,"o":"m 146 290 l 146 0 l 299 0 l 299 290 l 364 326 b 421 381 391 341 410 359 b 438 458 432 402 438 428 l 438 639 b 401 733 438 676 425 707 b 313 771 376 758 347 771 l 146 771 b 58 733 112 771 82 758 b 21 639 33 707 21 676 l 21 454 l 174 531 l 174 625 l 285 625 l 285 458 l 221 424 b 163 369 194 409 175 391 b 146 290 152 347 146 321 z "},"Ʉ":{"ha":535,"x_min":0,"x_max":0,"o":"m 326 651 l 208 592 l 208 965 l 56 965 l 56 516 l 24 500 l 24 375 l 56 391 l 56 132 b 92 39 56 96 68 65 b 181 0 117 13 146 0 l 354 0 b 442 38 388 0 418 13 b 479 132 467 64 479 95 l 479 602 l 510 618 l 510 743 l 479 727 l 479 965 l 326 965 z m 326 526 l 326 146 l 208 146 l 208 467 z "},"Ʌ":{"ha":507,"x_min":0,"x_max":0,"o":"m 164 965 l -7 0 l 148 0 l 253 709 l 359 0 l 514 0 l 343 965 z "},"Ɇ":{"ha":465,"x_min":0,"x_max":0,"o":"m 424 819 l 424 965 l 405 965 l 424 1035 l 315 1035 l 297 965 l 181 965 b 92 927 146 965 117 953 b 56 833 68 902 56 870 l 56 0 l 74 0 l 56 -69 l 164 -69 l 182 0 l 424 0 l 424 146 l 208 146 l 208 389 l 424 500 l 424 671 l 208 560 l 208 819 z "},"ɇ":{"ha":528,"x_min":0,"x_max":0,"o":"m 56 639 l 56 132 b 86 45 56 98 66 69 l 56 -69 l 164 -69 l 182 0 l 347 0 b 435 39 381 0 411 13 b 472 132 460 65 472 96 l 472 361 l 319 285 l 319 146 l 208 146 l 208 319 l 472 451 l 472 639 b 442 726 472 673 462 702 l 472 840 l 364 840 l 345 771 l 181 771 b 92 733 146 771 117 758 b 56 639 68 708 56 677 z m 319 514 l 208 458 l 208 625 l 319 625 z "},"Ɉ":{"ha":500,"x_min":0,"x_max":0,"o":"m 292 597 l 222 563 l 222 438 l 292 472 l 292 146 l 174 146 l 174 389 l 21 313 l 21 132 b 58 38 21 95 33 64 b 146 0 82 13 112 0 l 319 0 b 408 38 354 0 383 13 b 444 132 432 64 444 95 l 444 549 l 458 556 l 458 681 l 444 674 l 444 965 l 292 965 z "},"ɉ":{"ha":264,"x_min":0,"x_max":0,"o":"m 56 715 l 56 410 l 14 389 l 14 264 l 56 285 l 56 -49 l -56 -49 l -56 -194 l 83 -194 b 172 -156 118 -194 147 -182 b 208 -62 196 -131 208 -100 l 208 361 l 250 382 l 250 507 l 208 486 l 208 792 z m 56 924 l 56 785 l 208 861 l 208 1000 z "},"ɍ":{"ha":493,"x_min":0,"x_max":0,"o":"m 208 0 l 208 285 l 250 306 l 250 431 l 208 410 l 208 625 l 319 625 l 319 458 l 472 535 l 472 639 b 435 733 472 676 460 707 b 347 771 411 758 381 771 l 319 771 b 231 733 285 771 256 758 b 208 701 222 723 214 712 l 208 771 l 56 771 l 56 333 l 14 313 l 14 188 l 56 208 l 56 0 z "},"Ɏ":{"ha":535,"x_min":0,"x_max":0,"o":"m 326 602 l 326 562 l 208 500 l 208 543 z m 56 965 l 56 592 l 24 576 l 24 451 l 56 467 l 56 271 l 326 410 l 326 146 l 208 146 l 208 257 l 56 181 l 56 132 b 92 39 56 96 68 65 b 181 0 117 13 146 0 l 354 0 b 442 38 388 0 418 13 b 479 132 467 64 479 95 l 479 679 l 510 694 l 510 819 l 479 804 l 479 965 l 326 965 l 326 727 l 208 668 l 208 965 z "},"ɏ":{"ha":528,"x_min":0,"x_max":0,"o":"m 319 771 l 319 552 l 208 497 l 208 771 l 56 771 l 56 420 l 21 403 l 21 278 l 56 295 l 56 76 l 319 208 l 319 -49 l 208 -49 l 208 62 l 56 -14 l 56 -62 b 92 -156 56 -99 68 -130 b 181 -194 117 -181 146 -194 l 347 -194 b 435 -156 381 -194 411 -182 b 472 -62 460 -131 472 -100 l 472 503 l 507 521 l 507 646 l 472 628 l 472 771 z m 319 427 l 319 361 l 208 306 l 208 372 z "},"ɐ":{"ha":528,"x_min":0,"x_max":0,"o":"m 347 771 l 319 771 b 231 733 285 771 256 758 b 208 701 222 723 214 712 l 208 771 l 56 771 l 56 132 b 92 38 56 95 68 64 b 181 0 117 13 146 0 l 347 0 b 435 39 381 0 411 13 b 472 132 460 65 472 96 l 472 292 l 319 215 l 319 146 l 208 146 l 208 250 l 472 382 l 472 639 b 435 733 472 676 460 707 b 347 771 411 758 381 771 z m 319 444 l 208 389 l 208 625 l 319 625 z "},"ɑ":{"ha":528,"x_min":0,"x_max":0,"o":"m 317 625 l 317 146 l 208 146 l 208 625 z m 319 70 l 319 0 l 472 0 l 469 771 l 317 771 l 317 701 b 294 733 311 712 303 723 b 206 771 269 758 240 771 l 181 771 b 92 733 146 771 117 758 b 56 639 68 707 56 676 l 56 132 b 92 39 56 96 68 65 b 181 0 117 13 146 0 l 208 0 b 297 38 243 0 272 13 b 319 70 306 48 314 59 z "},"ɒ":{"ha":528,"x_min":0,"x_max":0,"o":"m 211 146 l 211 625 l 319 625 l 319 146 z m 208 701 l 208 771 l 56 771 l 58 0 l 211 0 l 211 70 b 234 38 217 59 224 48 b 322 0 259 13 288 0 l 347 0 b 435 38 381 0 411 13 b 472 132 460 64 472 95 l 472 639 b 435 732 472 675 460 706 b 347 771 411 758 381 771 l 319 771 b 231 733 285 771 256 758 b 208 701 222 723 214 712 z "},"ɓ":{"ha":528,"x_min":0,"x_max":0,"o":"m 56 833 l 56 0 l 208 0 l 208 70 b 231 38 214 59 222 48 b 319 0 256 13 285 0 l 347 0 b 435 39 381 0 411 13 b 472 132 460 65 472 96 l 472 639 b 435 733 472 676 460 707 b 347 771 411 758 381 771 l 319 771 b 231 733 285 771 256 758 b 208 701 222 723 214 712 l 208 819 l 417 819 l 417 965 l 181 965 b 92 927 146 965 117 953 b 56 833 68 902 56 870 z m 208 625 l 319 625 l 319 146 l 208 146 z "},"ɔ":{"ha":514,"x_min":0,"x_max":0,"o":"m 194 326 l 42 250 l 42 132 b 78 38 42 95 54 64 b 167 0 103 13 132 0 l 333 0 b 422 39 368 0 397 13 b 458 132 446 65 458 96 l 458 639 b 422 733 458 676 446 707 b 333 771 397 758 368 771 l 167 771 b 78 733 132 771 103 758 b 42 639 54 707 42 676 l 42 458 l 194 535 l 194 625 l 306 625 l 306 146 l 194 146 z "},"ə":{"ha":528,"x_min":0,"x_max":0,"o":"m 472 132 l 472 639 b 435 733 472 676 460 707 b 347 771 411 758 381 771 l 181 771 b 92 732 146 771 117 758 b 56 639 68 706 56 675 l 56 410 l 208 486 l 208 625 l 319 625 l 319 451 l 56 319 l 56 132 b 92 38 56 95 68 64 b 181 0 117 13 146 0 l 347 0 b 435 38 381 0 411 13 b 472 132 460 63 472 94 z m 208 257 l 319 312 l 319 146 l 208 146 z "},"ɛ":{"ha":514,"x_min":0,"x_max":0,"o":"m 347 771 l 181 771 b 92 733 146 771 117 758 b 56 639 68 707 56 676 l 56 406 l 107 406 b 72 366 91 394 80 381 b 56 288 61 344 56 318 l 56 132 b 92 38 56 95 68 64 b 181 0 117 13 146 0 l 347 0 b 435 38 381 0 411 13 b 472 132 460 64 472 95 l 472 310 l 319 233 l 319 146 l 208 146 l 208 287 l 264 318 l 264 490 l 208 461 l 208 625 l 319 625 l 319 497 l 472 574 l 472 639 b 435 733 472 676 460 707 b 347 771 411 758 381 771 z "},"ɟ":{"ha":264,"x_min":0,"x_max":0,"o":"m 56 771 l 56 410 l 14 389 l 14 264 l 56 285 l 56 -49 l -56 -49 l -56 -194 l 83 -194 b 172 -156 118 -194 147 -182 b 208 -62 196 -131 208 -100 l 208 361 l 250 382 l 250 507 l 208 486 l 208 771 z "},"ɡ":{"ha":528,"x_min":0,"x_max":0,"o":"m 208 299 l 208 625 l 319 625 l 319 354 z m 472 -62 l 472 771 l 319 771 l 319 701 b 297 733 314 712 306 723 b 208 771 272 758 243 771 l 181 771 b 92 732 146 771 117 758 b 56 639 68 706 56 675 l 56 76 l 319 208 l 319 -49 l 208 -49 l 208 62 l 56 -14 l 56 -62 b 92 -156 56 -99 68 -130 b 181 -194 117 -181 146 -194 l 347 -194 b 435 -156 381 -194 411 -182 b 472 -62 460 -131 472 -100 z "},"ɢ":{"ha":535,"x_min":0,"x_max":0,"o":"m 56 639 l 56 132 b 92 39 56 96 68 65 b 181 0 117 13 146 0 l 479 0 l 479 494 l 264 415 l 264 294 l 326 317 l 326 146 l 208 146 l 208 625 l 326 625 l 326 501 l 479 558 l 479 639 b 442 733 479 676 467 707 b 354 771 418 758 388 771 l 181 771 b 92 733 146 771 117 758 b 56 639 68 707 56 676 z "},"ɥ":{"ha":528,"x_min":0,"x_max":0,"o":"m 319 771 l 319 146 l 208 146 l 208 771 l 56 771 l 56 132 b 92 38 56 95 68 64 b 181 0 117 13 146 0 l 208 0 b 297 38 243 0 272 13 b 319 70 306 48 314 59 l 319 -229 l 472 -153 l 472 771 z "},"ɨ":{"ha":264,"x_min":0,"x_max":0,"o":"m 56 924 l 56 785 l 208 861 l 208 1000 z m 208 486 l 208 792 l 56 715 l 56 410 l 14 389 l 14 264 l 56 285 l 56 0 l 208 0 l 208 361 l 250 382 l 250 507 z "},"ɪ":{"ha":264,"x_min":0,"x_max":0,"o":"m 56 0 l 208 0 l 208 771 l 56 771 z "},"ɫ":{"ha":389,"x_min":0,"x_max":0,"o":"m 271 521 l 271 1000 l 118 924 l 118 569 l 0 510 l 0 385 l 118 444 l 118 0 l 271 0 l 271 396 l 389 455 l 389 580 z "},"ɯ":{"ha":792,"x_min":0,"x_max":0,"o":"m 583 771 l 583 146 l 472 146 l 472 771 l 319 771 l 319 146 l 208 146 l 208 771 l 56 771 l 56 132 b 92 38 56 95 68 64 b 181 0 117 13 146 0 l 208 0 b 297 38 243 0 272 13 b 326 87 310 53 320 69 b 356 38 332 69 342 53 b 444 0 381 13 410 0 l 472 0 b 560 38 506 0 536 13 b 583 70 570 48 578 59 l 583 0 l 736 0 l 736 771 z "},"ɲ":{"ha":528,"x_min":0,"x_max":0,"o":"m 56 -49 l -56 -49 l -56 -194 l 83 -194 b 172 -156 118 -194 147 -182 b 208 -62 196 -131 208 -100 l 208 625 l 319 625 l 319 0 l 472 0 l 472 639 b 435 733 472 676 460 707 b 347 771 411 758 381 771 l 319 771 b 231 733 285 771 256 758 b 208 701 222 723 214 712 l 208 771 l 56 771 z "},"ɴ":{"ha":535,"x_min":0,"x_max":0,"o":"m 208 0 l 208 625 l 326 625 l 326 0 l 479 0 l 479 639 b 442 733 479 676 467 707 b 354 771 418 758 388 771 l 319 771 b 231 733 285 771 256 758 b 208 701 222 723 214 712 l 208 771 l 56 771 l 56 0 z "},"ɵ":{"ha":528,"x_min":0,"x_max":0,"o":"m 472 639 b 435 733 472 676 460 707 b 347 771 411 758 381 771 l 181 771 b 92 733 146 771 117 758 b 56 639 68 707 56 676 l 56 132 b 92 39 56 96 68 65 b 181 0 117 13 146 0 l 347 0 b 435 38 381 0 411 13 b 472 132 460 64 472 95 z m 319 326 l 319 146 l 208 146 l 208 326 z m 319 472 l 208 472 l 208 625 l 319 625 z "},"ɶ":{"ha":736,"x_min":0,"x_max":0,"o":"m 56 639 l 56 132 b 92 39 56 96 68 65 b 181 0 117 13 146 0 l 694 0 l 694 146 l 479 146 l 479 274 l 694 385 l 694 538 l 479 426 l 479 625 l 694 625 l 694 771 l 514 771 b 426 733 480 771 450 758 b 403 700 416 723 408 712 b 380 732 397 711 390 722 b 292 771 355 758 326 771 l 181 771 b 92 733 146 771 117 758 b 56 639 68 707 56 676 z m 326 625 l 326 146 l 208 146 l 208 625 z "},"ɸ":{"ha":792,"x_min":0,"x_max":0,"o":"m 583 146 l 472 146 l 472 625 l 583 625 z m 736 639 b 699 733 736 676 724 707 b 611 771 675 758 645 771 l 472 771 l 472 965 l 319 965 l 319 771 l 181 771 b 92 733 146 771 117 758 b 56 639 68 707 56 676 l 56 132 b 92 39 56 96 68 65 b 181 0 117 13 146 0 l 319 0 l 319 -194 l 472 -194 l 472 0 l 611 0 b 699 38 645 0 675 13 b 736 132 724 64 736 95 z m 319 625 l 319 146 l 208 146 l 208 625 z "},"ɹ":{"ha":493,"x_min":0,"x_max":0,"o":"m 285 771 l 285 146 l 174 146 l 174 313 l 21 236 l 21 132 b 58 38 21 95 33 64 b 146 0 82 13 112 0 l 174 0 b 262 38 208 0 237 13 b 285 70 272 48 279 59 l 285 0 l 438 0 l 438 771 z "},"ɺ":{"ha":493,"x_min":0,"x_max":0,"o":"m 285 965 l 285 146 l 174 146 l 174 313 l 21 236 l 21 132 b 58 38 21 95 33 64 b 146 0 82 13 112 0 l 174 0 b 262 38 208 0 237 13 b 285 70 272 48 279 59 l 285 0 l 438 0 l 438 965 z "},"ʀ":{"ha":543,"x_min":0,"x_max":0,"o":"m 354 771 l 56 771 l 56 0 l 208 0 l 208 261 l 239 277 l 403 0 l 579 0 l 375 346 l 479 400 l 479 639 b 442 733 479 676 467 707 b 354 771 418 758 388 771 z m 208 414 l 208 625 l 326 625 l 326 476 z "},"ʃ":{"ha":340,"x_min":0,"x_max":0,"o":"m 56 833 l 56 -49 l -56 -49 l -56 -194 l 83 -194 b 172 -156 118 -194 147 -181 b 208 -62 196 -130 208 -99 l 208 819 l 319 819 l 319 965 l 181 965 b 92 927 146 965 117 953 b 56 833 68 902 56 870 z "},"ʉ":{"ha":528,"x_min":0,"x_max":0,"o":"m 319 771 l 319 552 l 208 497 l 208 771 l 56 771 l 56 420 l 21 403 l 21 278 l 56 295 l 56 132 b 92 38 56 95 68 64 b 181 0 117 13 146 0 l 208 0 b 297 38 243 0 272 13 b 319 70 306 48 314 59 l 319 0 l 472 0 l 472 503 l 507 521 l 507 646 l 472 628 l 472 771 z m 319 427 l 319 146 l 208 146 l 208 372 z "},"ʊ":{"ha":528,"x_min":0,"x_max":0,"o":"m 181 0 l 347 0 b 435 38 381 0 411 13 b 472 132 460 64 472 95 l 472 771 l 319 771 l 319 146 l 208 146 l 208 771 l 56 771 l 56 132 b 92 38 56 95 68 64 b 181 0 117 13 146 0 z "},"ʌ":{"ha":444,"x_min":0,"x_max":0,"o":"m 132 771 l -7 0 l 148 0 l 222 528 l 297 0 l 451 0 l 313 771 z "},"ʍ":{"ha":792,"x_min":0,"x_max":0,"o":"m 396 700 b 373 732 390 711 382 722 b 285 771 348 758 319 771 l 181 771 b 92 733 146 771 117 758 b 56 639 68 707 56 676 l 56 0 l 208 0 l 208 625 l 319 625 l 319 0 l 472 0 l 472 625 l 583 625 l 583 0 l 736 0 l 736 639 b 699 732 736 675 724 706 b 611 771 675 758 646 771 l 507 771 b 419 733 473 771 443 758 b 396 700 409 723 401 712 z "},"ʎ":{"ha":528,"x_min":0,"x_max":0,"o":"m 208 0 l 208 410 l 319 465 l 319 0 l 472 0 l 472 694 l 208 563 l 208 819 l 319 819 l 319 708 l 472 785 l 472 833 b 435 926 472 869 460 900 b 347 965 411 952 381 965 l 181 965 b 92 927 146 965 117 953 b 56 833 68 902 56 870 l 56 0 z "},"ʏ":{"ha":535,"x_min":0,"x_max":0,"o":"m 326 385 l 326 146 l 208 146 l 208 239 l 56 163 l 56 132 b 92 39 56 96 68 65 b 181 0 117 13 146 0 l 354 0 b 442 38 388 0 418 13 b 479 132 467 64 479 95 l 479 771 l 326 771 l 326 537 l 208 475 l 208 771 l 56 771 l 56 246 z "},"ʒ":{"ha":514,"x_min":0,"x_max":0,"o":"m 42 771 l 42 472 l 194 549 l 194 625 l 306 625 l 306 431 l 194 374 l 194 201 l 306 258 l 306 -49 l 194 -49 l 194 97 l 42 21 l 42 -62 b 78 -156 42 -100 54 -131 b 167 -194 103 -182 132 -194 l 333 -194 b 422 -156 368 -194 397 -182 b 458 -62 446 -131 458 -100 l 458 313 l 407 313 b 442 351 423 324 434 337 b 458 431 453 374 458 400 l 458 771 z "},"ʔ":{"ha":465,"x_min":0,"x_max":0,"o":"m 153 450 l 153 0 l 306 0 l 306 450 l 371 486 b 428 540 398 501 417 519 b 444 618 439 562 444 588 l 444 833 b 408 927 444 870 432 902 b 319 965 383 953 354 965 l 146 965 b 58 927 112 965 82 953 b 21 833 33 902 21 870 l 21 642 l 174 718 l 174 819 l 292 819 l 292 618 l 228 583 b 170 529 201 569 182 551 b 153 450 159 507 153 481 z "},"ʙ":{"ha":521,"x_min":0,"x_max":0,"o":"m 208 444 l 208 625 l 326 625 l 326 507 z m 479 132 l 479 407 l 428 407 b 463 447 443 418 455 431 b 479 525 474 468 479 494 l 479 639 b 442 733 479 676 467 707 b 354 771 418 758 388 771 l 56 771 l 56 0 l 354 0 b 442 38 388 0 418 13 b 479 132 467 64 479 95 z m 326 352 l 326 146 l 208 146 l 208 292 z "},"ʜ":{"ha":535,"x_min":0,"x_max":0,"o":"m 326 354 l 326 0 l 479 0 l 479 771 l 326 771 l 326 507 l 208 444 l 208 771 l 56 771 l 56 0 l 208 0 l 208 290 z "},"ʝ":{"ha":514,"x_min":0,"x_max":0,"o":"m 285 924 l 285 785 l 438 861 l 438 1000 z m 174 62 l 285 118 l 285 -49 l 174 -49 z m 285 257 l 90 160 b 37 102 66 148 49 128 b 21 21 26 75 21 48 l 21 -62 b 58 -156 21 -99 33 -130 b 146 -194 82 -181 112 -194 l 313 -194 b 401 -156 347 -194 376 -182 b 438 -62 425 -131 438 -100 l 438 194 l 493 222 l 493 361 l 438 333 l 438 792 l 285 715 z "},"ʟ":{"ha":451,"x_min":0,"x_max":0,"o":"m 56 0 l 431 0 l 431 146 l 208 146 l 208 771 l 56 771 z "},"ʬ":{"ha":563,"x_min":0,"x_max":0,"o":"m 333 611 l 333 965 l 229 965 l 229 611 l 160 611 l 160 965 l 56 965 l 56 597 b 83 534 56 574 65 553 b 146 507 101 516 122 507 l 200 507 b 263 534 223 507 244 516 b 281 560 271 542 277 551 b 300 534 286 551 292 542 b 363 507 317 516 338 507 l 417 507 b 480 534 441 507 462 516 b 507 597 498 553 507 574 l 507 965 l 403 965 l 403 611 z m 333 104 l 333 458 l 229 458 l 229 104 l 160 104 l 160 458 l 56 458 l 56 90 b 83 27 56 67 65 46 b 146 0 101 9 122 0 l 200 0 b 263 27 223 0 244 9 b 281 53 271 35 277 44 b 300 27 286 44 292 35 b 363 0 317 9 338 0 l 417 0 b 480 27 441 0 462 9 b 507 90 498 46 507 67 l 507 458 l 403 458 l 403 104 z "},"ʰ":{"ha":319,"x_min":0,"x_max":0,"o":"m 125 893 l 125 1063 l 21 1063 l 21 486 l 125 486 l 125 840 l 194 840 l 194 486 l 299 486 l 299 854 b 271 917 299 877 289 898 b 208 944 253 935 232 944 l 206 944 b 143 917 182 944 161 935 b 125 893 136 909 129 901 z "},"ʲ":{"ha":167,"x_min":0,"x_max":0,"o":"m 42 472 l 0 472 l 0 368 l 56 368 b 119 396 80 368 101 377 b 146 458 137 414 146 435 l 146 903 l 42 851 z m 42 1017 l 42 920 l 146 972 l 146 1069 z "},"ʳ":{"ha":319,"x_min":0,"x_max":0,"o":"m 208 944 l 206 944 b 143 917 182 944 161 935 b 125 893 136 909 130 901 l 125 944 l 21 944 l 21 486 l 125 486 l 125 840 l 194 840 l 194 750 l 299 792 l 299 854 b 272 917 299 877 290 898 b 208 944 253 935 232 944 z "},"ʴ":{"ha":319,"x_min":0,"x_max":0,"o":"m 111 486 l 113 486 b 176 514 138 486 159 495 b 194 538 184 521 190 529 l 194 486 l 299 486 l 299 944 l 194 944 l 194 590 l 125 590 l 125 681 l 21 639 l 21 576 b 48 514 21 553 30 532 b 111 486 66 495 87 486 z "},"ʷ":{"ha":493,"x_min":0,"x_max":0,"o":"m 299 590 l 299 944 l 194 944 l 194 590 l 125 590 l 125 944 l 21 944 l 21 576 b 48 514 21 553 30 532 b 111 486 66 495 87 486 l 165 486 b 228 514 188 486 209 495 b 247 539 236 522 242 530 b 265 514 251 530 257 522 b 328 486 283 495 304 486 l 382 486 b 445 514 406 486 427 495 b 472 576 463 532 472 553 l 472 944 l 368 944 l 368 590 z "},"ʸ":{"ha":319,"x_min":0,"x_max":0,"o":"m 194 944 l 194 743 l 125 708 l 125 944 l 21 944 l 21 556 l 194 646 l 194 472 l 125 472 l 125 535 l 21 479 l 21 458 b 48 396 21 435 30 414 b 111 368 66 377 87 368 l 208 368 b 272 396 232 368 253 377 b 299 458 290 414 299 435 l 299 944 z "},"ʹ":{"ha":146,"x_min":0,"x_max":0,"o":"m 99 674 l 151 965 l 21 965 l 21 674 z "},"ʺ":{"ha":361,"x_min":0,"x_max":0,"o":"m 315 674 l 366 965 l 236 965 l 236 674 z m 99 674 l 151 965 l 21 965 l 21 674 z "},"ʻ":{"ha":153,"x_min":0,"x_max":0,"o":"m 97 965 l 42 965 l 0 840 l 0 688 l 153 688 l 153 840 l 97 840 z "},"ˆ":{"ha":444,"x_min":0,"x_max":0,"o":"m 167 965 l 42 792 l 132 792 l 222 882 l 313 792 l 403 792 l 278 965 z "},"ˇ":{"ha":444,"x_min":0,"x_max":0,"o":"m 278 792 l 403 965 l 313 965 l 222 875 l 132 965 l 42 965 l 167 792 z "},"ˉ":{"ha":306,"x_min":0,"x_max":0,"o":"m 21 965 l 21 861 l 285 861 l 285 965 z "},"ˊ":{"ha":290,"x_min":0,"x_max":0,"o":"m 110 722 l 269 958 l 139 958 l 21 722 z "},"ˋ":{"ha":290,"x_min":0,"x_max":0,"o":"m 181 722 l 269 722 l 151 958 l 21 958 z "},"ː":{"ha":264,"x_min":0,"x_max":0,"o":"m 208 194 l 56 118 l 56 0 l 208 0 z m 56 444 l 208 521 l 208 639 l 56 639 z "},"ˑ":{"ha":264,"x_min":0,"x_max":0,"o":"m 56 444 l 208 521 l 208 639 l 56 639 z "},"˖":{"ha":417,"x_min":0,"x_max":0,"o":"m 285 49 l 285 313 l 396 313 l 396 458 l 285 458 l 285 722 l 132 722 l 132 458 l 21 458 l 21 313 l 132 313 l 132 49 z "},"˗":{"ha":417,"x_min":0,"x_max":0,"o":"m 21 313 l 396 313 l 396 458 l 21 458 z "},"˘":{"ha":444,"x_min":0,"x_max":0,"o":"m 146 910 l 146 965 l 42 965 l 42 910 b 97 809 42 863 60 830 b 222 778 133 788 175 778 b 348 809 269 778 311 788 b 403 910 384 830 403 863 l 403 965 l 299 965 l 299 910 z "},"˙":{"ha":236,"x_min":0,"x_max":0,"o":"m 42 896 l 42 757 l 194 833 l 194 972 z "},"˚":{"ha":375,"x_min":0,"x_max":0,"o":"m 229 813 l 146 813 l 146 896 l 229 896 z m 243 965 l 132 965 b 67 936 106 965 84 956 b 42 875 50 917 42 896 l 42 833 b 67 772 42 812 50 792 b 132 743 84 753 106 743 l 243 743 b 308 772 269 743 291 753 b 333 833 325 792 333 812 l 333 875 b 308 936 333 896 325 917 b 243 965 291 956 269 965 z "},"˛":{"ha":250,"x_min":0,"x_max":0,"o":"m 132 -243 l 208 -243 l 208 -139 l 146 -139 l 146 0 l 42 0 l 42 -153 b 71 -217 42 -179 51 -200 b 132 -243 90 -234 111 -243 z "},"˜":{"ha":361,"x_min":0,"x_max":0,"o":"m 42 910 l 42 792 l 181 861 l 181 792 l 319 861 l 319 979 l 181 910 l 181 979 z "},"˝":{"ha":513,"x_min":0,"x_max":0,"o":"m 332 722 l 492 958 l 361 958 l 243 722 z m 110 722 l 269 958 l 139 958 l 21 722 z "},"ˡ":{"ha":146,"x_min":0,"x_max":0,"o":"m 125 486 l 125 1069 l 21 1017 l 21 486 z "},"ˢ":{"ha":319,"x_min":0,"x_max":0,"o":"m 299 854 b 272 917 299 877 290 898 b 208 944 253 935 232 944 l 111 944 b 48 917 87 944 66 935 b 21 854 30 898 21 877 l 21 611 l 194 701 l 194 590 l 125 590 l 125 632 l 21 576 b 48 514 21 553 30 532 b 111 486 66 495 87 486 l 208 486 b 272 514 232 486 253 495 b 299 576 290 532 299 553 l 299 819 l 125 729 l 125 840 l 194 840 l 194 799 z "},"ˣ":{"ha":390,"x_min":0,"x_max":0,"o":"m 390 486 l 253 726 l 379 944 l 258 944 l 194 822 l 131 944 l 10 944 l 136 726 l 0 486 l 125 486 l 194 629 l 265 486 z "},"˳":{"ha":375,"x_min":0,"x_max":0,"o":"m 229 -153 l 146 -153 l 146 -69 l 229 -69 z m 243 0 l 132 0 b 67 -29 106 0 84 -10 b 42 -90 50 -49 42 -69 l 42 -132 b 67 -193 42 -153 50 -174 b 132 -222 84 -212 106 -222 l 243 -222 b 308 -193 269 -222 291 -212 b 333 -132 325 -174 333 -153 l 333 -90 b 308 -29 333 -69 325 -49 b 243 0 291 -10 269 0 z "},"˸":{"ha":194,"x_min":0,"x_max":0,"o":"m 21 813 l 174 813 l 174 965 l 21 965 z m 21 326 l 174 326 l 174 479 l 21 479 z "},"̀":{"ha":0,"x_min":0,"x_max":0,"o":"m -264 826 l -175 826 l -293 1063 l -424 1063 z "},"́":{"ha":0,"x_min":0,"x_max":0,"o":"m -264 826 l -104 1063 l -235 1063 l -353 826 z "},"̂":{"ha":0,"x_min":0,"x_max":0,"o":"m -319 1014 l -444 840 l -354 840 l -264 931 l -174 840 l -83 840 l -208 1014 z "},"̃":{"ha":0,"x_min":0,"x_max":0,"o":"m -403 951 l -403 833 l -264 903 l -264 833 l -125 903 l -125 1021 l -264 951 l -264 1021 z "},"̄":{"ha":0,"x_min":0,"x_max":0,"o":"m -396 979 l -396 875 l -132 875 l -132 979 z "},"̆":{"ha":0,"x_min":0,"x_max":0,"o":"m -340 979 l -340 1035 l -444 1035 l -444 979 b -390 878 -444 933 -426 899 b -264 847 -353 858 -311 847 b -138 878 -217 847 -175 858 b -83 979 -102 899 -83 933 l -83 1035 l -187 1035 l -187 979 z "},"̇":{"ha":0,"x_min":0,"x_max":0,"o":"m -340 958 l -340 819 l -187 896 l -187 1035 z "},"̈":{"ha":0,"x_min":0,"x_max":0,"o":"m -236 965 l -236 826 l -111 889 l -111 1028 z m -417 965 l -417 826 l -292 889 l -292 1028 z "},"̊":{"ha":0,"x_min":0,"x_max":0,"o":"m -222 896 l -306 896 l -306 979 l -222 979 z m -208 1049 l -319 1049 b -384 1019 -345 1049 -367 1039 b -410 958 -401 1000 -410 980 l -410 917 b -384 856 -410 895 -401 875 b -319 826 -367 836 -345 826 l -208 826 b -144 856 -182 826 -161 836 b -118 917 -127 875 -118 895 l -118 958 b -144 1019 -118 980 -127 1000 b -208 1049 -161 1039 -182 1049 z "},"̋":{"ha":0,"x_min":0,"x_max":0,"o":"m -153 826 l 7 1063 l -124 1063 l -242 826 z m -375 826 l -215 1063 l -346 1063 l -464 826 z "},"̌":{"ha":0,"x_min":0,"x_max":0,"o":"m -208 840 l -83 1014 l -174 1014 l -264 924 l -354 1014 l -444 1014 l -319 840 z "},"̍":{"ha":0,"x_min":0,"x_max":0,"o":"m -212 875 l -212 1090 l -316 1035 l -316 819 z "},"̎":{"ha":0,"x_min":0,"x_max":0,"o":"m -295 875 l -295 1090 l -399 1035 l -399 819 z m -128 875 l -128 1090 l -233 1035 l -233 819 z "},"̏":{"ha":0,"x_min":0,"x_max":0,"o":"m -153 826 l -64 826 l -182 1063 l -312 1063 z m -375 826 l -286 826 l -404 1063 l -535 1063 z "},"̑":{"ha":0,"x_min":0,"x_max":0,"o":"m -187 875 l -187 819 l -83 819 l -83 875 b -138 976 -83 921 -102 955 b -264 1007 -175 997 -217 1007 b -390 976 -311 1007 -353 997 b -444 875 -426 955 -444 921 l -444 819 l -340 819 l -340 875 z "},"̒":{"ha":0,"x_min":0,"x_max":0,"o":"m -187 1056 l -340 979 l -340 826 l -187 826 z "},"̓":{"ha":0,"x_min":0,"x_max":0,"o":"m -340 819 l -187 896 l -187 1049 l -340 1049 z "},"̕":{"ha":0,"x_min":0,"x_max":0,"o":"m -90 688 l -35 688 l 7 813 l 7 965 l -146 965 l -146 813 l -90 813 z "},"̛":{"ha":0,"x_min":0,"x_max":0,"o":"m -56 743 l -56 639 l 56 694 l 56 799 z "},"̟":{"ha":0,"x_min":0,"x_max":0,"o":"m -316 -49 l -316 -118 l -389 -118 l -389 -187 l -316 -187 l -316 -257 l -212 -257 l -212 -187 l -139 -187 l -139 -118 l -212 -118 l -212 -49 z "},"̣":{"ha":0,"x_min":0,"x_max":0,"o":"m -340 -125 l -340 -264 l -187 -187 l -187 -49 z "},"̤":{"ha":0,"x_min":0,"x_max":0,"o":"m -236 -118 l -236 -257 l -111 -194 l -111 -56 z m -417 -118 l -417 -257 l -292 -194 l -292 -56 z "},"̥":{"ha":0,"x_min":0,"x_max":0,"o":"m -222 -201 l -306 -201 l -306 -118 l -222 -118 z m -208 -49 l -319 -49 b -384 -78 -345 -49 -367 -58 b -410 -139 -401 -97 -410 -118 l -410 -181 b -384 -242 -410 -202 -401 -222 b -319 -271 -367 -261 -345 -271 l -208 -271 b -144 -242 -182 -271 -161 -261 b -118 -181 -127 -222 -118 -202 l -118 -139 b -144 -78 -118 -118 -127 -97 b -208 -49 -161 -58 -182 -49 z "},"̦":{"ha":264,"x_min":0,"x_max":0,"o":"m -340 -278 l -187 -201 l -187 -49 l -340 -49 z "},"̧":{"ha":0,"x_min":0,"x_max":0,"o":"m -229 -243 l -195 -49 l -299 -49 l -333 -243 z "},"̨":{"ha":0,"x_min":0,"x_max":0,"o":"m -229 -243 l -153 -243 l -153 -139 l -215 -139 l -215 0 l -319 0 l -319 -153 b -290 -217 -319 -179 -310 -200 b -229 -243 -271 -234 -250 -243 z "},"̬":{"ha":0,"x_min":0,"x_max":0,"o":"m -208 -243 l -83 -69 l -174 -69 l -264 -160 l -354 -69 l -444 -69 l -319 -243 z "},"̭":{"ha":0,"x_min":0,"x_max":0,"o":"m -319 -69 l -444 -243 l -354 -243 l -264 -153 l -174 -243 l -83 -243 l -208 -69 z "},"̮":{"ha":0,"x_min":0,"x_max":0,"o":"m -340 -104 l -340 -49 l -444 -49 l -444 -104 b -390 -205 -444 -150 -426 -184 b -264 -236 -353 -226 -311 -236 b -138 -205 -217 -236 -175 -226 b -83 -104 -102 -184 -83 -150 l -83 -49 l -187 -49 l -187 -104 z "},"̯":{"ha":0,"x_min":0,"x_max":0,"o":"m -187 -208 l -187 -264 l -83 -264 l -83 -208 b -138 -108 -83 -162 -102 -128 b -264 -76 -175 -87 -217 -76 b -390 -108 -311 -76 -353 -87 b -444 -208 -426 -128 -444 -162 l -444 -264 l -340 -264 l -340 -208 z "},"̰":{"ha":0,"x_min":0,"x_max":0,"o":"m -403 -132 l -403 -250 l -264 -181 l -264 -250 l -125 -181 l -125 -62 l -264 -132 l -264 -62 z "},"̱":{"ha":0,"x_min":0,"x_max":0,"o":"m -396 -104 l -396 -208 l -132 -208 l -132 -104 z "},"̴":{"ha":0,"x_min":0,"x_max":0,"o":"m -458 413 l -458 288 l -264 385 l -264 260 l -69 358 l -69 483 l -264 385 l -264 510 z "},"̵":{"ha":0,"x_min":0,"x_max":0,"o":"m -382 389 l -382 264 l -146 382 l -146 507 z "},"̶":{"ha":0,"x_min":0,"x_max":0,"o":"m -507 326 l -507 201 l -21 444 l -21 569 z "},"̷":{"ha":0,"x_min":0,"x_max":0,"o":"m -434 -49 l -326 -49 l -93 819 l -202 819 z "},"̸":{"ha":0,"x_min":0,"x_max":0,"o":"m -460 -146 l -352 -146 l -67 917 l -176 917 z "},"͂":{"ha":0,"x_min":0,"x_max":0,"o":"m -403 951 l -403 833 l -264 903 l -264 833 l -125 903 l -125 1021 l -264 951 l -264 1021 z "},"͘":{"ha":0,"x_min":0,"x_max":0,"o":"m -146 896 l -146 757 l 7 833 l 7 972 z "},"Ͱ":{"ha":382,"x_min":0,"x_max":0,"o":"m 361 453 l 361 624 l 208 547 l 208 965 l 56 965 l 56 0 l 208 0 l 208 376 z "},"ͱ":{"ha":368,"x_min":0,"x_max":0,"o":"m 347 354 l 347 507 l 208 438 l 208 771 l 56 771 l 56 0 l 208 0 l 208 283 z "},"ʹ":{"ha":290,"x_min":0,"x_max":0,"o":"m 110 722 l 269 958 l 139 958 l 21 722 z "},"Ͷ":{"ha":576,"x_min":0,"x_max":0,"o":"m 208 430 l 208 965 l 56 965 l 56 0 l 208 0 l 368 535 l 368 0 l 521 0 l 521 965 l 368 965 z "},"ͷ":{"ha":569,"x_min":0,"x_max":0,"o":"m 208 354 l 208 771 l 56 771 l 56 0 l 208 0 l 361 417 l 361 0 l 514 0 l 514 771 l 361 771 z "},";":{"ha":264,"x_min":0,"x_max":0,"o":"m 56 486 l 208 486 l 208 639 l 56 639 z m 111 -125 l 167 -125 l 208 0 l 208 153 l 56 153 l 56 0 l 111 0 z "},"Ϳ":{"ha":500,"x_min":0,"x_max":0,"o":"m 444 965 l 292 965 l 292 146 l 174 146 l 174 389 l 21 313 l 21 132 b 58 38 21 95 33 64 b 146 0 82 13 112 0 l 319 0 b 408 38 354 0 383 13 b 444 132 432 64 444 95 z "},"΄":{"ha":290,"x_min":0,"x_max":0,"o":"m 110 722 l 269 958 l 139 958 l 21 722 z "},"Ά":{"ha":535,"x_min":0,"x_max":0,"o":"m -106 729 l 54 965 l -76 965 l -194 729 z m 56 0 l 208 0 l 208 347 l 326 410 l 326 0 l 479 0 l 479 833 b 442 927 479 870 467 902 b 354 965 418 953 388 965 l 181 965 b 92 927 146 965 117 953 b 56 833 68 902 56 870 z m 208 518 l 208 819 l 326 819 l 326 581 z "},"·":{"ha":264,"x_min":0,"x_max":0,"o":"m 56 486 l 208 486 l 208 639 l 56 639 z "},"Έ":{"ha":465,"x_min":0,"x_max":0,"o":"m -106 729 l 54 965 l -76 965 l -194 729 z m 424 819 l 424 965 l 181 965 b 92 927 146 965 117 953 b 56 833 68 902 56 870 l 56 0 l 424 0 l 424 146 l 208 146 l 208 389 l 424 500 l 424 671 l 208 560 l 208 819 z "},"Ή":{"ha":535,"x_min":0,"x_max":0,"o":"m -106 729 l 54 965 l -76 965 l -194 729 z m 326 446 l 326 0 l 479 0 l 479 965 l 326 965 l 326 617 l 208 554 l 208 965 l 56 965 l 56 0 l 208 0 l 208 383 z "},"Ί":{"ha":264,"x_min":0,"x_max":0,"o":"m -106 729 l 54 965 l -76 965 l -194 729 z m 56 0 l 208 0 l 208 965 l 56 965 z "},"Ό":{"ha":535,"x_min":0,"x_max":0,"o":"m -106 729 l 54 965 l -76 965 l -194 729 z m 479 833 b 442 927 479 870 467 902 b 354 965 418 953 388 965 l 181 965 b 92 927 146 965 117 953 b 56 833 68 902 56 870 l 56 132 b 92 39 56 96 68 65 b 181 0 117 13 146 0 l 354 0 b 442 38 388 0 418 13 b 479 132 467 64 479 95 z m 326 146 l 208 146 l 208 819 l 326 819 z "},"Ύ":{"ha":465,"x_min":0,"x_max":0,"o":"m -106 729 l 6 894 l 156 359 l 156 0 l 309 0 l 309 359 l 479 965 l 321 965 l 233 581 l 144 965 l 54 965 l -14 965 l -76 965 l -194 729 z "},"Ώ":{"ha":535,"x_min":0,"x_max":0,"o":"m -106 729 l 54 965 l -76 965 l -194 729 z m 56 146 l 42 146 l -14 0 l 208 0 l 208 819 l 326 819 l 326 0 l 493 0 l 549 146 l 479 146 l 479 833 b 442 927 479 870 467 902 b 354 965 418 953 388 965 l 181 965 b 92 927 146 965 117 953 b 56 833 68 902 56 870 z "},"ΐ":{"ha":264,"x_min":0,"x_max":0,"o":"m 132 1021 l 292 1257 l 161 1257 l 43 1021 z m 160 944 l 160 806 l 285 868 l 285 1007 z m -21 944 l -21 806 l 104 868 l 104 1007 z m 56 -35 l 208 42 l 208 771 l 56 771 z "},"Α":{"ha":535,"x_min":0,"x_max":0,"o":"m 56 0 l 208 0 l 208 347 l 326 410 l 326 0 l 479 0 l 479 833 b 442 927 479 870 467 902 b 354 965 418 953 388 965 l 181 965 b 92 927 146 965 117 953 b 56 833 68 902 56 870 z m 208 518 l 208 819 l 326 819 l 326 581 z "},"Β":{"ha":535,"x_min":0,"x_max":0,"o":"m 56 0 l 354 0 b 442 38 388 0 418 13 b 479 132 467 64 479 95 l 479 507 l 428 507 b 463 547 444 518 455 531 b 479 625 474 568 479 594 l 479 833 b 442 927 479 870 467 902 b 354 965 418 953 388 965 l 56 965 z m 326 624 l 208 565 l 208 819 l 326 819 z m 326 453 l 326 146 l 208 146 l 208 394 z "},"Γ":{"ha":444,"x_min":0,"x_max":0,"o":"m 56 965 l 56 0 l 208 0 l 208 819 l 424 819 l 424 965 z "},"Δ":{"ha":563,"x_min":0,"x_max":0,"o":"m 542 0 l 542 146 l 368 965 l 194 965 l 21 146 l 21 0 z m 386 146 l 177 146 l 281 681 z "},"Ε":{"ha":465,"x_min":0,"x_max":0,"o":"m 424 819 l 424 965 l 181 965 b 92 927 146 965 117 953 b 56 833 68 902 56 870 l 56 0 l 424 0 l 424 146 l 208 146 l 208 389 l 424 500 l 424 671 l 208 560 l 208 819 z "},"Ζ":{"ha":486,"x_min":0,"x_max":0,"o":"m 444 965 l 42 965 l 42 819 l 292 819 l 42 146 l 42 0 l 444 0 l 444 146 l 194 146 l 444 819 z "},"Η":{"ha":535,"x_min":0,"x_max":0,"o":"m 326 446 l 326 0 l 479 0 l 479 965 l 326 965 l 326 617 l 208 554 l 208 965 l 56 965 l 56 0 l 208 0 l 208 383 z "},"Θ":{"ha":535,"x_min":0,"x_max":0,"o":"m 479 833 b 442 927 479 870 467 902 b 354 965 418 953 388 965 l 181 965 b 92 927 146 965 117 953 b 56 833 68 902 56 870 l 56 132 b 92 39 56 96 68 65 b 181 0 117 13 146 0 l 354 0 b 442 38 388 0 418 13 b 479 132 467 64 479 95 z m 208 383 l 326 446 l 326 146 l 208 146 z m 208 554 l 208 819 l 326 819 l 326 617 z "},"Ι":{"ha":264,"x_min":0,"x_max":0,"o":"m 56 0 l 208 0 l 208 965 l 56 965 z "},"Κ":{"ha":563,"x_min":0,"x_max":0,"o":"m 590 0 l 357 574 l 538 965 l 372 965 l 208 585 l 208 965 l 56 965 l 56 0 l 208 0 l 208 260 l 278 404 l 428 0 z "},"Λ":{"ha":507,"x_min":0,"x_max":0,"o":"m 164 965 l -7 0 l 148 0 l 253 612 l 359 0 l 514 0 l 343 965 z "},"Μ":{"ha":806,"x_min":0,"x_max":0,"o":"m 403 895 b 380 926 397 906 390 916 b 292 965 355 952 326 965 l 181 965 b 92 927 146 965 117 953 b 56 833 68 902 56 870 l 56 -229 l 208 -153 l 208 819 l 326 819 l 326 0 l 479 0 l 479 819 l 597 819 l 597 0 l 750 0 l 750 833 b 713 926 750 869 738 900 b 625 965 689 952 659 965 l 514 965 b 426 927 480 965 450 953 b 403 895 416 917 408 907 z "},"Ν":{"ha":535,"x_min":0,"x_max":0,"o":"m 56 0 l 201 0 l 406 102 b 462 156 432 116 451 134 b 479 234 474 177 479 203 l 479 965 l 326 965 l 326 233 l 208 174 l 208 965 l 56 965 z "},"Ξ":{"ha":465,"x_min":0,"x_max":0,"o":"m 444 146 l 21 146 l 21 0 l 444 0 z m 444 819 l 444 965 l 21 965 l 21 819 z m 146 540 l 146 369 l 319 460 l 319 631 z "},"Ο":{"ha":535,"x_min":0,"x_max":0,"o":"m 479 833 b 442 927 479 870 467 902 b 354 965 418 953 388 965 l 181 965 b 92 927 146 965 117 953 b 56 833 68 902 56 870 l 56 132 b 92 39 56 96 68 65 b 181 0 117 13 146 0 l 354 0 b 442 38 388 0 418 13 b 479 132 467 64 479 95 z m 326 146 l 208 146 l 208 819 l 326 819 z "},"Π":{"ha":535,"x_min":0,"x_max":0,"o":"m 479 965 l 56 965 l 56 0 l 208 0 l 208 819 l 326 819 l 326 0 l 479 0 z "},"Ρ":{"ha":521,"x_min":0,"x_max":0,"o":"m 326 563 l 208 500 l 208 819 l 326 819 z m 208 0 l 208 329 l 479 468 l 479 833 b 442 927 479 870 467 902 b 354 965 418 953 388 965 l 56 965 l 56 0 z "},"Σ":{"ha":479,"x_min":0,"x_max":0,"o":"m 458 0 l 458 147 l 194 147 l 319 484 l 194 821 l 458 821 l 458 967 l 42 967 l 42 821 l 167 484 l 42 147 l 42 0 z "},"Τ":{"ha":500,"x_min":0,"x_max":0,"o":"m 174 0 l 326 0 l 326 819 l 479 819 l 479 965 l 21 965 l 21 819 l 174 819 z "},"Υ":{"ha":465,"x_min":0,"x_max":0,"o":"m 156 359 l 156 0 l 309 0 l 309 359 l 479 965 l 321 965 l 233 581 l 144 965 l -14 965 z "},"Φ":{"ha":806,"x_min":0,"x_max":0,"o":"m 597 243 l 479 243 l 479 722 l 597 722 z m 750 736 b 713 830 750 773 738 804 b 625 868 689 855 659 868 l 479 868 l 479 965 l 326 965 l 326 868 l 181 868 b 92 830 146 868 117 855 b 56 736 68 804 56 773 l 56 229 b 92 136 56 193 68 162 b 181 97 117 110 146 97 l 326 97 l 326 0 l 479 0 l 479 97 l 625 97 b 713 135 659 97 689 110 b 750 229 738 161 750 192 z m 326 722 l 326 243 l 208 243 l 208 722 z "},"Χ":{"ha":476,"x_min":0,"x_max":0,"o":"m 477 0 l 338 495 l 470 965 l 312 965 l 238 703 l 164 965 l 6 965 l 138 495 l -1 0 l 158 0 l 238 287 l 319 0 z "},"Ψ":{"ha":778,"x_min":0,"x_max":0,"o":"m 167 389 l 313 389 l 313 0 l 465 0 l 465 389 l 611 389 b 699 427 645 389 675 402 b 736 521 724 453 736 484 l 736 965 l 583 965 l 583 535 l 465 535 l 465 965 l 313 965 l 313 535 l 194 535 l 194 965 l 42 965 l 42 521 b 78 427 42 484 54 453 b 167 389 103 402 132 389 z "},"Ω":{"ha":535,"x_min":0,"x_max":0,"o":"m 56 146 l 42 146 l -14 0 l 208 0 l 208 819 l 326 819 l 326 0 l 493 0 l 549 146 l 479 146 l 479 833 b 442 927 479 870 467 902 b 354 965 418 953 388 965 l 181 965 b 92 927 146 965 117 953 b 56 833 68 902 56 870 z "},"Ϊ":{"ha":264,"x_min":0,"x_max":0,"o":"m 160 1139 l 160 1000 l 285 1063 l 285 1201 z m -21 1139 l -21 1000 l 104 1063 l 104 1201 z m 56 0 l 208 0 l 208 965 l 56 965 z "},"Ϋ":{"ha":465,"x_min":0,"x_max":0,"o":"m 260 1139 l 260 1000 l 385 1063 l 385 1201 z m 80 1139 l 80 1000 l 205 1063 l 205 1201 z m 156 359 l 156 0 l 309 0 l 309 359 l 479 965 l 321 965 l 233 581 l 144 965 l -14 965 z "},"ά":{"ha":528,"x_min":0,"x_max":0,"o":"m 264 826 l 424 1063 l 293 1063 l 175 826 z m 317 625 l 317 146 l 208 146 l 208 625 z m 319 70 l 319 -35 l 472 42 l 469 771 l 317 771 l 317 701 b 294 733 311 712 303 723 b 206 771 269 758 240 771 l 181 771 b 92 733 146 771 117 758 b 56 639 68 707 56 676 l 56 132 b 92 39 56 96 68 65 b 181 0 117 13 146 0 l 208 0 b 297 38 243 0 272 13 b 319 70 306 48 314 59 z "},"έ":{"ha":514,"x_min":0,"x_max":0,"o":"m 264 826 l 424 1063 l 293 1063 l 175 826 z m 347 771 l 181 771 b 92 733 146 771 117 758 b 56 639 68 707 56 676 l 56 406 l 107 406 b 72 366 91 394 80 381 b 56 288 61 344 56 318 l 56 132 b 92 38 56 95 68 64 b 181 0 117 13 146 0 l 347 0 b 435 38 381 0 411 13 b 472 132 460 64 472 95 l 472 310 l 319 233 l 319 146 l 208 146 l 208 287 l 264 318 l 264 490 l 208 461 l 208 625 l 319 625 l 319 497 l 472 574 l 472 639 b 435 733 472 676 460 707 b 347 771 411 758 381 771 z "},"ή":{"ha":528,"x_min":0,"x_max":0,"o":"m 264 826 l 424 1063 l 293 1063 l 175 826 z m 208 0 l 208 625 l 319 625 l 319 -229 l 472 -153 l 472 639 b 435 733 472 676 460 707 b 347 771 411 758 381 771 l 319 771 b 231 733 285 771 256 758 b 208 701 222 723 214 712 l 208 771 l 56 771 l 56 0 z "},"ί":{"ha":264,"x_min":0,"x_max":0,"o":"m 132 826 l 292 1063 l 161 1063 l 43 826 z m 56 -35 l 208 42 l 208 771 l 56 771 z "},"ΰ":{"ha":528,"x_min":0,"x_max":0,"o":"m 264 1021 l 424 1257 l 293 1257 l 175 1021 z m 292 944 l 292 806 l 417 868 l 417 1007 z m 111 944 l 111 806 l 236 868 l 236 1007 z m 181 0 l 347 0 b 435 38 381 0 411 13 b 472 132 460 64 472 95 l 472 806 l 319 729 l 319 146 l 208 146 l 208 771 l 56 771 l 56 132 b 92 38 56 95 68 64 b 181 0 117 13 146 0 z "},"α":{"ha":528,"x_min":0,"x_max":0,"o":"m 317 625 l 317 146 l 208 146 l 208 625 z m 319 70 l 319 -35 l 472 42 l 469 771 l 317 771 l 317 701 b 294 733 311 712 303 723 b 206 771 269 758 240 771 l 181 771 b 92 733 146 771 117 758 b 56 639 68 707 56 676 l 56 132 b 92 39 56 96 68 65 b 181 0 117 13 146 0 l 208 0 b 297 38 243 0 272 13 b 319 70 306 48 314 59 z "},"β":{"ha":528,"x_min":0,"x_max":0,"o":"m 264 146 l 264 0 l 347 0 b 435 38 381 0 411 13 b 472 132 460 64 472 95 l 472 507 l 421 507 b 456 546 437 518 448 531 b 472 625 467 568 472 594 l 472 833 b 435 927 472 870 460 902 b 347 965 411 953 381 965 l 181 965 b 92 927 146 965 117 953 b 56 833 68 902 56 870 l 56 -229 l 208 -153 l 208 395 l 319 452 l 319 146 z m 319 625 l 208 566 l 208 819 l 319 819 z "},"γ":{"ha":472,"x_min":0,"x_max":0,"o":"m 313 -194 l 313 0 l 479 771 l 324 771 l 236 257 l 148 771 l -7 771 l 160 0 l 160 -194 z "},"δ":{"ha":528,"x_min":0,"x_max":0,"o":"m 319 146 l 208 146 l 208 625 l 319 625 z m 56 854 l 56 625 l 139 625 l 56 583 l 56 132 b 92 39 56 97 68 66 b 181 0 117 13 146 0 l 347 0 b 435 38 381 0 411 13 b 472 132 460 64 472 95 l 472 639 b 435 733 472 676 460 707 b 347 771 411 758 381 771 l 146 771 l 347 861 l 347 1000 z "},"ε":{"ha":514,"x_min":0,"x_max":0,"o":"m 347 771 l 181 771 b 92 733 146 771 117 758 b 56 639 68 707 56 676 l 56 406 l 107 406 b 72 366 91 394 80 381 b 56 288 61 344 56 318 l 56 132 b 92 38 56 95 68 64 b 181 0 117 13 146 0 l 347 0 b 435 38 381 0 411 13 b 472 132 460 64 472 95 l 472 310 l 319 233 l 319 146 l 208 146 l 208 287 l 264 318 l 264 490 l 208 461 l 208 625 l 319 625 l 319 497 l 472 574 l 472 639 b 435 733 472 676 460 707 b 347 771 411 758 381 771 z "},"ζ":{"ha":479,"x_min":0,"x_max":0,"o":"m 278 819 l 50 182 b 42 132 45 165 42 149 b 78 38 42 95 54 64 b 167 0 103 13 132 0 l 285 0 l 285 -229 l 437 -160 l 437 14 b 401 108 437 51 425 82 b 312 146 376 133 347 146 l 201 146 l 437 819 l 437 965 l 42 965 l 42 819 z "},"η":{"ha":528,"x_min":0,"x_max":0,"o":"m 208 0 l 208 625 l 319 625 l 319 -229 l 472 -153 l 472 639 b 435 733 472 676 460 707 b 347 771 411 758 381 771 l 319 771 b 231 733 285 771 256 758 b 208 701 222 723 214 712 l 208 771 l 56 771 l 56 0 z "},"θ":{"ha":528,"x_min":0,"x_max":0,"o":"m 472 833 b 435 927 472 870 460 902 b 347 965 411 953 381 965 l 181 965 b 92 927 146 965 117 953 b 56 833 68 902 56 870 l 56 132 b 92 39 56 96 68 65 b 181 0 117 13 146 0 l 347 0 b 435 38 381 0 411 13 b 472 132 460 64 472 95 z m 319 440 l 319 146 l 208 146 l 208 385 z m 319 611 l 208 556 l 208 819 l 319 819 z "},"ι":{"ha":264,"x_min":0,"x_max":0,"o":"m 56 -35 l 208 42 l 208 771 l 56 771 z "},"κ":{"ha":493,"x_min":0,"x_max":0,"o":"m 56 0 l 208 0 l 208 351 l 354 0 l 521 0 l 321 428 l 507 771 l 337 771 l 208 496 l 208 771 l 56 771 z "},"λ":{"ha":458,"x_min":0,"x_max":0,"o":"m 465 0 l 264 965 l 111 965 l 153 771 l -7 0 l 148 0 l 229 507 l 310 0 z "},"μ":{"ha":528,"x_min":0,"x_max":0,"o":"m 208 0 b 297 38 243 0 272 13 b 319 70 306 48 314 59 l 319 0 l 472 0 l 472 771 l 319 771 l 319 146 l 208 146 l 208 771 l 56 771 l 56 -229 l 208 -153 z "},"ν":{"ha":528,"x_min":0,"x_max":0,"o":"m 56 0 l 201 0 l 399 99 b 456 152 425 112 444 130 b 472 231 467 173 472 199 l 472 806 l 319 729 l 319 229 l 208 174 l 208 771 l 56 771 z "},"ξ":{"ha":472,"x_min":0,"x_max":0,"o":"m 181 0 l 299 0 l 299 -229 l 451 -160 l 451 14 b 415 108 451 51 439 82 b 326 146 390 133 361 146 l 208 146 l 208 389 l 333 451 l 333 625 l 208 563 l 208 819 l 451 819 l 451 965 l 56 965 l 56 819 l 107 819 b 72 780 91 808 80 795 b 56 701 61 758 56 732 l 56 503 l 107 503 b 72 463 91 492 80 478 b 56 385 61 441 56 415 l 56 132 b 92 38 56 95 68 64 b 181 0 117 13 146 0 z "},"ο":{"ha":528,"x_min":0,"x_max":0,"o":"m 472 639 b 435 733 472 676 460 707 b 347 771 411 758 381 771 l 181 771 b 92 733 146 771 117 758 b 56 639 68 707 56 676 l 56 132 b 92 39 56 96 68 65 b 181 0 117 13 146 0 l 347 0 b 435 38 381 0 411 13 b 472 132 460 64 472 95 z m 319 146 l 208 146 l 208 625 l 319 625 z "},"π":{"ha":611,"x_min":0,"x_max":0,"o":"m 361 625 l 361 132 b 398 39 361 96 373 65 b 486 0 422 13 452 0 l 590 0 l 590 146 l 514 146 l 514 625 l 590 625 l 590 771 l 21 771 l 21 625 l 97 625 l 97 -35 l 250 42 l 250 625 z "},"ρ":{"ha":528,"x_min":0,"x_max":0,"o":"m 56 639 l 56 -229 l 208 -153 l 208 70 b 231 38 214 59 222 48 b 319 0 256 13 285 0 l 347 0 b 435 38 381 0 411 13 b 472 132 460 64 472 95 l 472 639 b 435 733 472 676 460 707 b 347 771 411 758 381 771 l 181 771 b 92 733 146 771 117 758 b 56 639 68 707 56 676 z m 208 146 l 208 625 l 319 625 l 319 146 z "},"ς":{"ha":514,"x_min":0,"x_max":0,"o":"m 181 0 l 319 0 l 319 -229 l 472 -153 l 472 14 b 435 108 472 51 460 82 b 347 146 411 133 381 146 l 208 146 l 208 625 l 319 625 l 319 479 l 472 556 l 472 639 b 435 733 472 676 460 707 b 347 771 411 758 381 771 l 181 771 b 92 733 146 771 117 758 b 56 639 68 707 56 676 l 56 132 b 92 39 56 96 68 65 b 181 0 117 13 146 0 z "},"σ":{"ha":528,"x_min":0,"x_max":0,"o":"m 319 625 l 319 146 l 208 146 l 208 625 z m 472 132 l 472 506 b 435 599 472 542 460 573 b 403 625 425 610 414 619 l 507 625 l 507 771 l 181 771 b 92 733 146 771 117 758 b 56 639 68 707 56 676 l 56 132 b 92 39 56 96 68 65 b 181 0 117 13 146 0 l 347 0 b 435 38 381 0 411 13 b 472 132 460 64 472 95 z "},"τ":{"ha":417,"x_min":0,"x_max":0,"o":"m 132 -35 l 285 42 l 285 625 l 396 625 l 396 771 l 21 771 l 21 625 l 132 625 z "},"υ":{"ha":528,"x_min":0,"x_max":0,"o":"m 181 0 l 347 0 b 435 38 381 0 411 13 b 472 132 460 64 472 95 l 472 806 l 319 729 l 319 146 l 208 146 l 208 771 l 56 771 l 56 132 b 92 38 56 95 68 64 b 181 0 117 13 146 0 z "},"φ":{"ha":792,"x_min":0,"x_max":0,"o":"m 472 146 l 472 625 l 583 625 l 583 146 z m 736 132 l 736 639 b 699 733 736 676 724 707 b 611 771 675 758 645 771 l 444 771 b 356 733 410 771 381 758 b 319 639 332 707 319 676 l 319 146 l 208 146 l 208 806 l 56 729 l 56 132 b 92 38 56 95 68 64 b 181 0 117 13 146 0 l 319 0 l 319 -229 l 472 -153 l 472 0 l 611 0 b 699 38 645 0 675 13 b 736 132 724 64 736 95 z "},"χ":{"ha":476,"x_min":0,"x_max":0,"o":"m 477 -194 l 338 301 l 470 771 l 312 771 l 238 508 l 164 771 l 6 771 l 138 301 l -1 -194 l 158 -194 l 238 93 l 319 -194 z "},"ψ":{"ha":792,"x_min":0,"x_max":0,"o":"m 181 0 l 319 0 l 319 -194 l 472 -194 l 472 0 l 611 0 b 699 38 645 0 675 13 b 736 132 724 64 736 95 l 736 806 l 583 729 l 583 146 l 472 146 l 472 771 l 319 771 l 319 146 l 208 146 l 208 771 l 56 771 l 56 132 b 92 38 56 95 68 64 b 181 0 117 13 146 0 z "},"ω":{"ha":792,"x_min":0,"x_max":0,"o":"m 611 771 l 542 771 l 514 625 l 583 625 l 583 146 l 472 146 l 472 479 l 319 479 l 319 146 l 208 146 l 208 625 l 250 625 l 278 771 l 181 771 b 92 732 146 771 117 758 b 56 639 68 706 56 675 l 56 132 b 92 39 56 96 68 65 b 181 0 117 13 146 0 l 285 0 b 373 38 319 0 348 13 b 396 71 383 48 390 59 b 419 39 401 60 409 49 b 507 0 443 13 473 0 l 611 0 b 699 38 645 0 675 13 b 736 132 724 64 736 95 l 736 639 b 699 733 736 676 724 707 b 611 771 675 758 645 771 z "},"ϊ":{"ha":264,"x_min":0,"x_max":0,"o":"m 160 965 l 160 826 l 285 889 l 285 1028 z m -21 965 l -21 826 l 104 889 l 104 1028 z m 56 -35 l 208 42 l 208 771 l 56 771 z "},"ϋ":{"ha":528,"x_min":0,"x_max":0,"o":"m 292 965 l 292 826 l 417 889 l 417 1028 z m 111 965 l 111 826 l 236 889 l 236 1028 z m 181 0 l 347 0 b 435 38 381 0 411 13 b 472 132 460 64 472 95 l 472 806 l 319 729 l 319 146 l 208 146 l 208 771 l 56 771 l 56 132 b 92 38 56 95 68 64 b 181 0 117 13 146 0 z "},"ό":{"ha":528,"x_min":0,"x_max":0,"o":"m 264 826 l 424 1063 l 293 1063 l 175 826 z m 472 639 b 435 733 472 676 460 707 b 347 771 411 758 381 771 l 181 771 b 92 733 146 771 117 758 b 56 639 68 707 56 676 l 56 132 b 92 39 56 96 68 65 b 181 0 117 13 146 0 l 347 0 b 435 38 381 0 411 13 b 472 132 460 64 472 95 z m 319 146 l 208 146 l 208 625 l 319 625 z "},"ύ":{"ha":528,"x_min":0,"x_max":0,"o":"m 264 826 l 424 1063 l 293 1063 l 175 826 z m 181 0 l 347 0 b 435 38 381 0 411 13 b 472 132 460 64 472 95 l 472 806 l 319 729 l 319 146 l 208 146 l 208 771 l 56 771 l 56 132 b 92 38 56 95 68 64 b 181 0 117 13 146 0 z "},"ώ":{"ha":792,"x_min":0,"x_max":0,"o":"m 396 826 l 556 1063 l 425 1063 l 307 826 z m 611 771 l 542 771 l 514 625 l 583 625 l 583 146 l 472 146 l 472 479 l 319 479 l 319 146 l 208 146 l 208 625 l 250 625 l 278 771 l 181 771 b 92 732 146 771 117 758 b 56 639 68 706 56 675 l 56 132 b 92 39 56 96 68 65 b 181 0 117 13 146 0 l 285 0 b 373 38 319 0 348 13 b 396 71 383 48 390 59 b 419 39 401 60 409 49 b 507 0 443 13 473 0 l 611 0 b 699 38 645 0 675 13 b 736 132 724 64 736 95 l 736 639 b 699 733 736 676 724 707 b 611 771 675 758 645 771 z "},"ϐ":{"ha":528,"x_min":0,"x_max":0,"o":"m 56 833 l 56 132 b 92 38 56 95 68 64 b 181 0 117 13 146 0 l 347 0 b 435 38 381 0 411 13 b 472 132 460 64 472 95 l 472 507 l 421 507 b 456 546 437 518 448 531 b 472 625 467 568 472 594 l 472 833 b 435 927 472 870 460 902 b 347 965 411 953 381 965 l 181 965 b 92 927 146 965 117 953 b 56 833 68 902 56 870 z m 208 146 l 208 395 l 319 452 l 319 146 z m 319 625 l 208 566 l 208 819 l 319 819 z "},"ϑ":{"ha":528,"x_min":0,"x_max":0,"o":"m 472 132 l 472 833 b 435 927 472 870 460 902 b 347 965 411 953 381 965 l 181 965 b 92 928 146 965 117 953 b 56 833 68 903 56 871 l 56 310 l 319 442 l 319 146 l 208 146 l 208 299 l 56 222 l 56 132 b 92 38 56 95 68 64 b 181 0 117 13 146 0 l 347 0 b 435 39 381 0 411 13 b 472 132 460 65 472 96 z m 319 610 l 208 554 l 208 819 l 319 819 z "},"ϕ":{"ha":792,"x_min":0,"x_max":0,"o":"m 583 146 l 472 146 l 472 625 l 583 625 z m 736 639 b 699 733 736 676 724 707 b 611 771 675 758 645 771 l 472 771 l 472 1000 l 319 924 l 319 771 l 181 771 b 92 733 146 771 117 758 b 56 639 68 707 56 676 l 56 132 b 92 39 56 96 68 65 b 181 0 117 13 146 0 l 319 0 l 319 -229 l 472 -153 l 472 0 l 611 0 b 699 38 645 0 675 13 b 736 132 724 64 736 95 z m 319 625 l 319 146 l 208 146 l 208 625 z "},"Ϟ":{"ha":507,"x_min":0,"x_max":0,"o":"m 194 965 l 42 965 l 42 313 l 313 451 l 313 0 l 465 0 l 465 699 l 194 560 z "},"ϟ":{"ha":528,"x_min":0,"x_max":0,"o":"m 319 -229 l 472 -153 l 472 567 l 208 435 l 208 1000 l 56 924 l 56 229 l 319 361 z "},"Ϣ":{"ha":806,"x_min":0,"x_max":0,"o":"m 750 -62 l 750 833 b 713 927 750 870 738 902 b 625 965 689 953 659 965 l 556 965 l 528 819 l 597 819 l 597 303 l 479 240 l 479 819 l 326 819 l 326 303 l 208 240 l 208 819 l 250 819 l 278 965 l 181 965 b 92 926 146 965 117 952 b 56 833 68 900 56 869 l 56 -7 l 326 132 l 326 -7 l 597 132 l 597 -49 l 396 -49 l 396 -194 l 625 -194 b 713 -156 659 -194 689 -182 b 750 -62 738 -131 750 -100 z "},"ϣ":{"ha":792,"x_min":0,"x_max":0,"o":"m 736 -62 l 736 639 b 699 733 736 676 724 707 b 611 771 675 758 645 771 l 542 771 l 514 625 l 583 625 l 583 278 l 472 222 l 472 625 l 319 625 l 319 278 l 208 222 l 208 625 l 250 625 l 278 771 l 181 771 b 92 732 146 771 117 758 b 56 639 68 706 56 675 l 56 -7 l 319 125 l 319 -7 l 583 125 l 583 -49 l 396 -49 l 396 -194 l 611 -194 b 699 -156 645 -194 675 -182 b 736 -62 724 -131 736 -100 z "},"ϲ":{"ha":514,"x_min":0,"x_max":0,"o":"m 319 257 l 319 146 l 208 146 l 208 625 l 319 625 l 319 479 l 472 556 l 472 639 b 435 733 472 676 460 707 b 347 771 411 758 381 771 l 181 771 b 92 733 146 771 117 758 b 56 639 68 707 56 676 l 56 132 b 92 39 56 96 68 65 b 181 0 117 13 146 0 l 347 0 b 435 38 381 0 411 13 b 472 132 460 64 472 95 l 472 333 z "},"ϳ":{"ha":264,"x_min":0,"x_max":0,"o":"m 56 924 l 56 785 l 208 861 l 208 1000 z m 56 715 l 56 -49 l -56 -49 l -56 -194 l 83 -194 b 172 -156 118 -194 147 -182 b 208 -62 196 -131 208 -100 l 208 792 z "},"ϴ":{"ha":535,"x_min":0,"x_max":0,"o":"m 479 833 b 442 927 479 870 467 902 b 354 965 418 953 388 965 l 181 965 b 92 927 146 965 117 953 b 56 833 68 902 56 870 l 56 132 b 92 39 56 96 68 65 b 181 0 117 13 146 0 l 354 0 b 442 38 388 0 418 13 b 479 132 467 64 479 95 z m 208 383 l 326 446 l 326 146 l 208 146 z m 208 554 l 208 819 l 326 819 l 326 617 z "},"ϵ":{"ha":514,"x_min":0,"x_max":0,"o":"m 56 639 l 56 132 b 92 38 56 95 68 64 b 181 0 117 13 146 0 l 347 0 b 435 38 381 0 411 13 b 472 132 460 64 472 95 l 472 310 l 319 233 l 319 146 l 208 146 l 208 294 l 264 325 l 264 483 l 208 454 l 208 625 l 319 625 l 319 497 l 472 574 l 472 639 b 435 733 472 676 460 707 b 347 771 411 758 381 771 l 181 771 b 92 733 146 771 117 758 b 56 639 68 707 56 676 z "},"Ϸ":{"ha":521,"x_min":0,"x_max":0,"o":"m 326 442 l 208 379 l 208 625 l 326 625 z m 208 0 l 208 208 l 479 352 l 479 639 b 442 733 479 676 467 707 b 354 771 418 758 388 771 l 208 771 l 208 965 l 56 965 l 56 0 z "},"ϸ":{"ha":528,"x_min":0,"x_max":0,"o":"m 208 146 l 208 625 l 319 625 l 319 146 z m 208 701 l 208 1000 l 56 924 l 56 -194 l 208 -194 l 208 70 b 231 38 214 59 222 48 b 319 0 256 13 285 0 l 347 0 b 435 38 381 0 411 13 b 472 132 460 64 472 95 l 472 639 b 435 732 472 675 460 706 b 347 771 411 758 381 771 l 319 771 b 231 733 285 771 256 758 b 208 701 222 723 214 712 z "},"Ϲ":{"ha":521,"x_min":0,"x_max":0,"o":"m 326 264 l 326 146 l 208 146 l 208 819 l 326 819 l 326 674 l 479 750 l 479 833 b 442 927 479 870 467 902 b 354 965 418 953 388 965 l 181 965 b 92 927 146 965 117 953 b 56 833 68 902 56 870 l 56 132 b 92 39 56 96 68 65 b 181 0 117 13 146 0 l 354 0 b 442 38 388 0 418 13 b 479 132 467 64 479 95 l 479 340 z "},"Ϻ":{"ha":806,"x_min":0,"x_max":0,"o":"m 403 895 b 380 926 397 906 390 916 b 292 965 355 952 326 965 l 181 965 b 92 927 146 965 117 953 b 56 833 68 902 56 870 l 56 0 l 208 0 l 208 819 l 326 819 l 326 0 l 479 0 l 479 819 l 597 819 l 597 0 l 750 0 l 750 833 b 713 926 750 869 738 900 b 625 965 689 952 659 965 l 514 965 b 426 927 480 965 450 953 b 403 895 416 917 408 907 z "},"ϻ":{"ha":792,"x_min":0,"x_max":0,"o":"m 396 700 b 373 732 390 711 382 722 b 285 771 348 758 319 771 l 181 771 b 92 733 146 771 117 758 b 56 639 68 707 56 676 l 56 0 l 208 0 l 208 625 l 319 625 l 319 0 l 472 0 l 472 625 l 583 625 l 583 0 l 736 0 l 736 639 b 699 732 736 675 724 706 b 611 771 675 758 645 771 l 507 771 b 419 733 473 771 443 758 b 396 700 409 723 401 712 z "},"Ѐ":{"ha":465,"x_min":0,"x_max":0,"o":"m 240 1000 l 328 1000 l 210 1236 l 80 1236 z m 424 819 l 424 965 l 181 965 b 92 927 146 965 117 953 b 56 833 68 902 56 870 l 56 0 l 424 0 l 424 146 l 208 146 l 208 389 l 424 500 l 424 671 l 208 560 l 208 819 z "},"Ё":{"ha":465,"x_min":0,"x_max":0,"o":"m 267 1139 l 267 1000 l 392 1063 l 392 1201 z m 87 1139 l 87 1000 l 212 1063 l 212 1201 z m 424 819 l 424 965 l 181 965 b 92 927 146 965 117 953 b 56 833 68 902 56 870 l 56 0 l 424 0 l 424 146 l 208 146 l 208 389 l 424 500 l 424 671 l 208 560 l 208 819 z "},"Ђ":{"ha":639,"x_min":0,"x_max":0,"o":"m 431 625 l 431 -49 l 347 -49 l 347 -194 l 458 -194 b 547 -156 493 -194 522 -182 b 583 -62 571 -131 583 -100 l 583 639 b 547 733 583 676 571 707 b 458 771 522 758 493 771 l 424 771 b 335 733 389 771 360 758 b 313 701 326 723 318 712 l 313 819 l 479 819 l 479 965 l 21 965 l 21 819 l 160 819 l 160 0 l 313 0 l 313 625 z "},"Ѓ":{"ha":444,"x_min":0,"x_max":0,"o":"m 240 1000 l 399 1236 l 269 1236 l 151 1000 z m 56 965 l 56 0 l 208 0 l 208 819 l 424 819 l 424 965 z "},"Є":{"ha":521,"x_min":0,"x_max":0,"o":"m 326 250 l 326 146 l 208 146 l 208 354 l 368 438 l 368 608 l 208 525 l 208 819 l 326 819 l 326 671 l 479 747 l 479 833 b 442 927 479 870 467 902 b 354 965 418 953 388 965 l 181 965 b 92 927 146 965 117 953 b 56 833 68 902 56 870 l 56 132 b 92 39 56 96 68 65 b 181 0 117 13 146 0 l 354 0 b 442 38 388 0 418 13 b 479 132 467 64 479 95 l 479 326 z "},"Ѕ":{"ha":535,"x_min":0,"x_max":0,"o":"m 56 833 l 56 313 l 326 451 l 326 146 l 208 146 l 208 299 l 56 222 l 56 132 b 92 38 56 95 68 64 b 181 0 117 13 146 0 l 354 0 b 442 39 388 0 418 13 b 479 132 467 65 479 96 l 479 701 l 208 563 l 208 819 l 326 819 l 326 715 l 479 792 l 479 833 b 442 927 479 870 467 902 b 354 965 418 953 388 965 l 181 965 b 92 928 146 965 117 953 b 56 833 68 903 56 871 z "},"І":{"ha":264,"x_min":0,"x_max":0,"o":"m 56 0 l 208 0 l 208 965 l 56 965 z "},"Ї":{"ha":264,"x_min":0,"x_max":0,"o":"m 160 1139 l 160 1000 l 285 1063 l 285 1201 z m -21 1139 l -21 1000 l 104 1063 l 104 1201 z m 56 0 l 208 0 l 208 965 l 56 965 z "},"Ј":{"ha":500,"x_min":0,"x_max":0,"o":"m 444 965 l 292 965 l 292 146 l 174 146 l 174 389 l 21 313 l 21 132 b 58 38 21 95 33 64 b 146 0 82 13 112 0 l 319 0 b 408 38 354 0 383 13 b 444 132 432 64 444 95 z "},"Љ":{"ha":847,"x_min":0,"x_max":0,"o":"m 667 771 l 521 771 l 521 965 l 97 965 l 97 146 l 21 146 l 21 0 l 125 0 b 213 39 159 0 189 13 b 250 132 238 65 250 96 l 250 819 l 368 819 l 368 0 l 667 0 b 755 39 701 0 730 13 b 792 132 779 65 792 96 l 792 639 b 755 733 792 676 779 707 b 667 771 730 758 701 771 z m 521 625 l 639 625 l 639 146 l 521 146 z "},"Њ":{"ha":806,"x_min":0,"x_max":0,"o":"m 326 965 l 326 694 l 208 632 l 208 965 l 56 965 l 56 0 l 208 0 l 208 472 l 326 535 l 326 0 l 625 0 b 713 39 659 0 689 13 b 750 132 738 65 750 96 l 750 639 b 713 733 750 676 738 707 b 625 771 689 758 659 771 l 479 771 l 479 965 z m 479 625 l 597 625 l 597 146 l 479 146 z "},"Ћ":{"ha":639,"x_min":0,"x_max":0,"o":"m 160 819 l 160 0 l 313 0 l 313 625 l 431 625 l 431 0 l 583 0 l 583 639 b 547 733 583 676 571 707 b 458 771 522 758 493 771 l 424 771 b 335 733 389 771 360 758 b 313 701 326 723 318 712 l 313 819 l 479 819 l 479 965 l 21 965 l 21 819 z "},"Ќ":{"ha":556,"x_min":0,"x_max":0,"o":"m 267 1000 l 427 1236 l 297 1236 l 178 1000 z m 208 0 l 208 392 l 264 420 l 428 0 l 590 0 l 393 486 l 406 493 b 463 547 433 507 452 525 b 479 625 474 568 479 594 l 479 965 l 326 965 l 326 625 l 208 562 l 208 965 l 56 965 l 56 0 z "},"Ѝ":{"ha":576,"x_min":0,"x_max":0,"o":"m 288 1000 l 377 1000 l 259 1236 l 128 1236 z m 208 430 l 208 965 l 56 965 l 56 0 l 208 0 l 368 535 l 368 0 l 521 0 l 521 965 l 368 965 z "},"Ў":{"ha":535,"x_min":0,"x_max":0,"o":"m 191 1153 l 191 1208 l 87 1208 l 87 1153 b 142 1052 87 1106 105 1073 b 267 1021 178 1031 220 1021 b 393 1052 315 1021 356 1031 b 448 1153 430 1073 448 1106 l 448 1208 l 344 1208 l 344 1153 z m 56 965 l 56 313 l 326 451 l 326 146 l 208 146 l 208 257 l 56 181 l 56 132 b 92 39 56 96 68 65 b 181 0 117 13 146 0 l 354 0 b 442 38 388 0 418 13 b 479 132 467 64 479 95 l 479 965 l 326 965 l 326 622 l 208 560 l 208 965 z "},"Џ":{"ha":535,"x_min":0,"x_max":0,"o":"m 56 0 l 191 0 l 191 -194 l 344 -194 l 344 0 l 479 0 l 479 965 l 326 965 l 326 146 l 208 146 l 208 965 l 56 965 z "},"А":{"ha":535,"x_min":0,"x_max":0,"o":"m 56 0 l 208 0 l 208 347 l 326 410 l 326 0 l 479 0 l 479 833 b 442 927 479 870 467 902 b 354 965 418 953 388 965 l 181 965 b 92 927 146 965 117 953 b 56 833 68 902 56 870 z m 208 518 l 208 819 l 326 819 l 326 581 z "},"Б":{"ha":535,"x_min":0,"x_max":0,"o":"m 354 0 b 442 39 388 0 418 13 b 479 132 467 65 479 96 l 479 639 b 442 733 479 676 467 707 b 354 771 418 758 388 771 l 208 771 l 208 819 l 424 819 l 424 965 l 56 965 l 56 0 z m 208 625 l 326 625 l 326 146 l 208 146 z "},"В":{"ha":535,"x_min":0,"x_max":0,"o":"m 56 0 l 354 0 b 442 38 388 0 418 13 b 479 132 467 64 479 95 l 479 507 l 428 507 b 463 547 444 518 455 531 b 479 625 474 568 479 594 l 479 833 b 442 927 479 870 467 902 b 354 965 418 953 388 965 l 56 965 z m 326 624 l 208 565 l 208 819 l 326 819 z m 326 453 l 326 146 l 208 146 l 208 394 z "},"Г":{"ha":444,"x_min":0,"x_max":0,"o":"m 56 965 l 56 0 l 208 0 l 208 819 l 424 819 l 424 965 z "},"Д":{"ha":597,"x_min":0,"x_max":0,"o":"m 542 -97 l 542 965 l 368 965 l 21 146 l 21 -97 l 167 -97 l 167 0 l 389 0 l 389 -97 z m 389 146 l 181 146 l 389 660 z "},"Е":{"ha":465,"x_min":0,"x_max":0,"o":"m 424 819 l 424 965 l 181 965 b 92 927 146 965 117 953 b 56 833 68 902 56 870 l 56 0 l 424 0 l 424 146 l 208 146 l 208 389 l 424 500 l 424 671 l 208 560 l 208 819 z "},"Ж":{"ha":861,"x_min":0,"x_max":0,"o":"m 889 0 l 656 574 l 837 965 l 670 965 l 507 585 l 507 965 l 354 965 l 354 585 l 191 965 l 24 965 l 205 574 l -28 0 l 135 0 l 284 404 l 354 260 l 354 0 l 507 0 l 507 260 l 577 404 l 726 0 z "},"З":{"ha":521,"x_min":0,"x_max":0,"o":"m 465 833 b 429 927 465 870 453 902 b 340 965 405 953 375 965 l 167 965 b 78 927 132 965 103 953 b 42 833 54 902 42 870 l 42 671 l 194 747 l 194 819 l 313 819 l 313 664 l 153 581 l 153 410 l 313 493 l 313 146 l 194 146 l 194 326 l 42 250 l 42 132 b 78 38 42 95 54 64 b 167 0 103 13 132 0 l 340 0 b 428 39 375 0 404 13 b 465 132 453 65 465 96 l 465 549 l 414 549 b 449 588 430 560 441 573 b 465 667 460 610 465 636 z "},"И":{"ha":576,"x_min":0,"x_max":0,"o":"m 208 430 l 208 965 l 56 965 l 56 0 l 208 0 l 368 535 l 368 0 l 521 0 l 521 965 l 368 965 z "},"Й":{"ha":576,"x_min":0,"x_max":0,"o":"m 212 1153 l 212 1208 l 108 1208 l 108 1153 b 163 1052 108 1106 126 1073 b 288 1021 199 1031 241 1021 b 414 1052 335 1021 377 1031 b 469 1153 450 1073 469 1106 l 469 1208 l 365 1208 l 365 1153 z m 208 430 l 208 965 l 56 965 l 56 0 l 208 0 l 368 535 l 368 0 l 521 0 l 521 965 l 368 965 z "},"К":{"ha":556,"x_min":0,"x_max":0,"o":"m 208 0 l 208 392 l 264 420 l 428 0 l 590 0 l 393 486 l 406 493 b 463 547 433 507 452 525 b 479 625 474 568 479 594 l 479 965 l 326 965 l 326 625 l 208 562 l 208 965 l 56 965 l 56 0 z "},"Л":{"ha":576,"x_min":0,"x_max":0,"o":"m 521 965 l 97 965 l 97 146 l 21 146 l 21 0 l 125 0 b 213 39 159 0 189 13 b 250 132 238 65 250 96 l 250 819 l 368 819 l 368 0 l 521 0 z "},"М":{"ha":806,"x_min":0,"x_max":0,"o":"m 403 895 b 380 926 397 906 390 916 b 292 965 355 952 326 965 l 181 965 b 92 927 146 965 117 953 b 56 833 68 902 56 870 l 56 0 l 208 0 l 208 819 l 326 819 l 326 0 l 479 0 l 479 819 l 597 819 l 597 0 l 750 0 l 750 833 b 713 926 750 869 738 900 b 625 965 689 952 659 965 l 514 965 b 426 927 480 965 450 953 b 403 895 416 917 408 907 z "},"Н":{"ha":535,"x_min":0,"x_max":0,"o":"m 326 446 l 326 0 l 479 0 l 479 965 l 326 965 l 326 617 l 208 554 l 208 965 l 56 965 l 56 0 l 208 0 l 208 383 z "},"О":{"ha":535,"x_min":0,"x_max":0,"o":"m 479 833 b 442 927 479 870 467 902 b 354 965 418 953 388 965 l 181 965 b 92 927 146 965 117 953 b 56 833 68 902 56 870 l 56 132 b 92 39 56 96 68 65 b 181 0 117 13 146 0 l 354 0 b 442 38 388 0 418 13 b 479 132 467 64 479 95 z m 326 146 l 208 146 l 208 819 l 326 819 z "},"П":{"ha":535,"x_min":0,"x_max":0,"o":"m 479 965 l 56 965 l 56 0 l 208 0 l 208 819 l 326 819 l 326 0 l 479 0 z "},"Р":{"ha":521,"x_min":0,"x_max":0,"o":"m 326 563 l 208 500 l 208 819 l 326 819 z m 208 0 l 208 329 l 479 468 l 479 833 b 442 927 479 870 467 902 b 354 965 418 953 388 965 l 56 965 l 56 0 z "},"С":{"ha":521,"x_min":0,"x_max":0,"o":"m 326 264 l 326 146 l 208 146 l 208 819 l 326 819 l 326 674 l 479 750 l 479 833 b 442 927 479 870 467 902 b 354 965 418 953 388 965 l 181 965 b 92 927 146 965 117 953 b 56 833 68 902 56 870 l 56 132 b 92 39 56 96 68 65 b 181 0 117 13 146 0 l 354 0 b 442 38 388 0 418 13 b 479 132 467 64 479 95 l 479 340 z "},"Т":{"ha":500,"x_min":0,"x_max":0,"o":"m 174 0 l 326 0 l 326 819 l 479 819 l 479 965 l 21 965 l 21 819 l 174 819 z "},"У":{"ha":535,"x_min":0,"x_max":0,"o":"m 56 965 l 56 313 l 326 451 l 326 146 l 208 146 l 208 257 l 56 181 l 56 132 b 92 39 56 96 68 65 b 181 0 117 13 146 0 l 354 0 b 442 38 388 0 418 13 b 479 132 467 64 479 95 l 479 965 l 326 965 l 326 622 l 208 560 l 208 965 z "},"Ф":{"ha":806,"x_min":0,"x_max":0,"o":"m 597 243 l 479 243 l 479 722 l 597 722 z m 750 736 b 713 830 750 773 738 804 b 625 868 689 855 659 868 l 479 868 l 479 965 l 326 965 l 326 868 l 181 868 b 92 830 146 868 117 855 b 56 736 68 804 56 773 l 56 229 b 92 136 56 193 68 162 b 181 97 117 110 146 97 l 326 97 l 326 0 l 479 0 l 479 97 l 625 97 b 713 135 659 97 689 110 b 750 229 738 161 750 192 z m 326 722 l 326 243 l 208 243 l 208 722 z "},"Х":{"ha":476,"x_min":0,"x_max":0,"o":"m 477 0 l 338 495 l 470 965 l 312 965 l 238 703 l 164 965 l 6 965 l 138 495 l -1 0 l 158 0 l 238 287 l 319 0 z "},"Ц":{"ha":535,"x_min":0,"x_max":0,"o":"m 56 0 l 326 0 l 326 -97 l 479 -97 l 479 965 l 326 965 l 326 146 l 208 146 l 208 965 l 56 965 z "},"Ч":{"ha":521,"x_min":0,"x_max":0,"o":"m 313 965 l 313 507 l 194 507 l 194 965 l 42 965 l 42 493 b 78 399 42 456 54 425 b 167 361 103 374 132 361 l 201 361 b 290 399 236 361 265 374 b 313 431 299 409 307 420 l 313 0 l 465 0 l 465 965 z "},"Ш":{"ha":806,"x_min":0,"x_max":0,"o":"m 56 0 l 750 0 l 750 965 l 597 965 l 597 146 l 479 146 l 479 965 l 326 965 l 326 146 l 208 146 l 208 965 l 56 965 z "},"Щ":{"ha":806,"x_min":0,"x_max":0,"o":"m 56 0 l 597 0 l 597 -97 l 750 -97 l 750 965 l 597 965 l 597 146 l 479 146 l 479 965 l 326 965 l 326 146 l 208 146 l 208 965 l 56 965 z "},"Ъ":{"ha":653,"x_min":0,"x_max":0,"o":"m 472 771 l 326 771 l 326 965 l 21 965 l 21 819 l 174 819 l 174 0 l 472 0 b 560 39 506 0 536 13 b 597 132 585 65 597 96 l 597 639 b 560 733 597 676 585 707 b 472 771 536 758 506 771 z m 326 146 l 326 625 l 442 625 l 442 146 z "},"Ы":{"ha":799,"x_min":0,"x_max":0,"o":"m 590 0 l 743 0 l 743 965 l 590 965 z m 208 625 l 326 625 l 326 146 l 208 146 z m 354 771 l 208 771 l 208 965 l 56 965 l 56 0 l 354 0 b 442 39 388 0 418 13 b 479 132 467 65 479 96 l 479 639 b 442 733 479 676 467 707 b 354 771 418 758 388 771 z "},"Ь":{"ha":535,"x_min":0,"x_max":0,"o":"m 208 625 l 326 625 l 326 146 l 208 146 z m 354 771 l 208 771 l 208 965 l 56 965 l 56 0 l 354 0 b 442 39 388 0 418 13 b 479 132 467 65 479 96 l 479 639 b 442 733 479 676 467 707 b 354 771 418 758 388 771 z "},"Э":{"ha":521,"x_min":0,"x_max":0,"o":"m 313 819 l 313 657 l 153 574 l 153 403 l 313 486 l 313 146 l 194 146 l 194 326 l 42 250 l 42 132 b 78 38 42 95 54 64 b 167 0 103 13 132 0 l 340 0 b 428 39 375 0 404 13 b 465 132 453 65 465 96 l 465 833 b 428 927 465 870 453 902 b 340 965 404 953 375 965 l 167 965 b 78 927 132 965 103 953 b 42 833 54 902 42 870 l 42 671 l 194 747 l 194 819 z "},"Ю":{"ha":806,"x_min":0,"x_max":0,"o":"m 479 146 l 479 819 l 597 819 l 597 146 z m 326 446 l 326 132 b 363 39 326 96 339 65 b 451 0 388 13 417 0 l 625 0 b 713 38 659 0 689 13 b 750 132 738 64 750 95 l 750 833 b 713 927 750 870 738 902 b 625 965 689 953 659 965 l 451 965 b 363 927 417 965 388 953 b 326 833 339 902 326 870 l 326 617 l 208 554 l 208 965 l 56 965 l 56 0 l 208 0 l 208 383 z "},"Я":{"ha":535,"x_min":0,"x_max":0,"o":"m 326 500 l 208 500 l 208 819 l 326 819 z m 128 366 l -35 0 l 131 0 l 289 354 l 326 354 l 326 0 l 479 0 l 479 965 l 181 965 b 92 926 146 965 117 952 b 56 833 68 900 56 869 l 56 486 b 92 392 56 449 68 418 b 128 366 103 381 115 372 z "},"а":{"ha":528,"x_min":0,"x_max":0,"o":"m 181 0 l 208 0 b 297 38 243 0 272 13 b 319 70 306 48 314 59 l 319 0 l 472 0 l 472 639 b 435 733 472 676 460 707 b 347 771 411 758 381 771 l 181 771 b 92 732 146 771 117 758 b 56 639 68 706 56 675 l 56 479 l 208 556 l 208 625 l 319 625 l 319 521 l 56 389 l 56 132 b 92 38 56 95 68 64 b 181 0 117 13 146 0 z m 208 326 l 319 382 l 319 146 l 208 146 z "},"б":{"ha":528,"x_min":0,"x_max":0,"o":"m 347 771 l 319 771 b 231 733 285 771 256 758 b 208 701 222 723 214 712 l 208 819 l 417 819 l 417 965 l 181 965 b 92 927 146 965 117 953 b 56 833 68 902 56 870 l 56 132 b 92 39 56 96 68 65 b 181 0 117 13 146 0 l 347 0 b 435 39 381 0 411 13 b 472 132 460 65 472 96 l 472 639 b 435 733 472 676 460 707 b 347 771 411 758 381 771 z m 208 625 l 319 625 l 319 146 l 208 146 z "},"в":{"ha":528,"x_min":0,"x_max":0,"o":"m 56 0 l 347 0 b 435 38 381 0 411 13 b 472 132 460 64 472 95 l 472 406 l 422 406 b 456 445 437 417 448 430 b 472 524 467 467 472 493 l 472 639 b 435 733 472 676 460 707 b 347 771 411 758 381 771 l 56 771 z m 319 524 l 208 469 l 208 625 l 319 625 z m 319 353 l 319 146 l 208 146 l 208 298 z "},"г":{"ha":431,"x_min":0,"x_max":0,"o":"m 56 771 l 56 0 l 208 0 l 208 625 l 410 625 l 410 771 z "},"д":{"ha":590,"x_min":0,"x_max":0,"o":"m 535 -97 l 535 771 l 361 771 l 21 146 l 21 -97 l 167 -97 l 167 0 l 382 0 l 382 -97 z m 382 146 l 194 146 l 382 514 z "},"е":{"ha":528,"x_min":0,"x_max":0,"o":"m 56 639 l 56 132 b 92 38 56 95 68 64 b 181 0 117 13 146 0 l 347 0 b 435 39 381 0 411 13 b 472 132 460 65 472 96 l 472 361 l 319 285 l 319 146 l 208 146 l 208 319 l 472 451 l 472 639 b 435 733 472 676 460 707 b 347 771 411 758 381 771 l 181 771 b 92 733 146 771 117 758 b 56 639 68 708 56 677 z m 319 514 l 208 458 l 208 625 l 319 625 z "},"ж":{"ha":722,"x_min":0,"x_max":0,"o":"m 438 496 l 438 771 l 285 771 l 285 496 l 156 771 l -14 771 l 172 428 l -28 0 l 139 0 l 285 351 l 285 0 l 438 0 l 438 351 l 583 0 l 750 0 l 550 428 l 736 771 l 566 771 z "},"з":{"ha":514,"x_min":0,"x_max":0,"o":"m 458 132 l 458 438 l 407 438 b 442 477 423 449 434 462 b 458 556 453 499 458 525 l 458 639 b 422 733 458 676 446 707 b 333 771 397 758 368 771 l 167 771 b 78 733 132 771 103 758 b 42 639 54 707 42 676 l 42 486 l 194 563 l 194 625 l 306 625 l 306 521 l 250 493 l 250 354 l 306 382 l 306 146 l 194 146 l 194 319 l 42 243 l 42 132 b 78 38 42 95 54 64 b 167 0 103 13 132 0 l 333 0 b 422 39 368 0 397 13 b 458 132 446 65 458 96 z "},"и":{"ha":569,"x_min":0,"x_max":0,"o":"m 208 354 l 208 771 l 56 771 l 56 0 l 208 0 l 361 417 l 361 0 l 514 0 l 514 771 l 361 771 z "},"й":{"ha":569,"x_min":0,"x_max":0,"o":"m 208 979 l 208 1035 l 104 1035 l 104 979 b 159 878 104 933 122 899 b 285 847 196 858 238 847 b 410 878 332 847 374 858 b 465 979 447 899 465 933 l 465 1035 l 361 1035 l 361 979 z m 208 354 l 208 771 l 56 771 l 56 0 l 208 0 l 361 417 l 361 0 l 514 0 l 514 771 l 361 771 z "},"к":{"ha":493,"x_min":0,"x_max":0,"o":"m 56 0 l 208 0 l 208 351 l 354 0 l 521 0 l 321 428 l 507 771 l 337 771 l 208 496 l 208 771 l 56 771 z "},"л":{"ha":569,"x_min":0,"x_max":0,"o":"m 514 771 l 97 771 l 97 146 l 21 146 l 21 0 l 125 0 b 213 39 159 0 189 13 b 250 132 238 65 250 96 l 250 625 l 361 625 l 361 0 l 514 0 z "},"м":{"ha":792,"x_min":0,"x_max":0,"o":"m 396 700 b 373 732 390 711 382 722 b 285 771 348 758 319 771 l 181 771 b 92 733 146 771 117 758 b 56 639 68 707 56 676 l 56 0 l 208 0 l 208 625 l 319 625 l 319 0 l 472 0 l 472 625 l 583 625 l 583 0 l 736 0 l 736 639 b 699 732 736 675 724 706 b 611 771 675 758 645 771 l 507 771 b 419 733 473 771 443 758 b 396 700 409 723 401 712 z "},"н":{"ha":528,"x_min":0,"x_max":0,"o":"m 319 347 l 319 0 l 472 0 l 472 771 l 319 771 l 319 500 l 208 444 l 208 771 l 56 771 l 56 0 l 208 0 l 208 292 z "},"о":{"ha":528,"x_min":0,"x_max":0,"o":"m 472 639 b 435 733 472 676 460 707 b 347 771 411 758 381 771 l 181 771 b 92 733 146 771 117 758 b 56 639 68 707 56 676 l 56 132 b 92 39 56 96 68 65 b 181 0 117 13 146 0 l 347 0 b 435 38 381 0 411 13 b 472 132 460 64 472 95 z m 319 146 l 208 146 l 208 625 l 319 625 z "},"п":{"ha":528,"x_min":0,"x_max":0,"o":"m 472 771 l 56 771 l 56 0 l 208 0 l 208 625 l 319 625 l 319 0 l 472 0 z "},"р":{"ha":528,"x_min":0,"x_max":0,"o":"m 208 146 l 208 625 l 319 625 l 319 146 z m 208 701 l 208 771 l 56 771 l 56 -194 l 208 -194 l 208 70 b 231 38 214 59 222 48 b 319 0 256 13 285 0 l 347 0 b 435 38 381 0 411 13 b 472 132 460 64 472 95 l 472 639 b 435 732 472 675 460 706 b 347 771 411 758 381 771 l 319 771 b 231 733 285 771 256 758 b 208 701 222 723 214 712 z "},"с":{"ha":514,"x_min":0,"x_max":0,"o":"m 319 257 l 319 146 l 208 146 l 208 625 l 319 625 l 319 479 l 472 556 l 472 639 b 435 733 472 676 460 707 b 347 771 411 758 381 771 l 181 771 b 92 733 146 771 117 758 b 56 639 68 707 56 676 l 56 132 b 92 39 56 96 68 65 b 181 0 117 13 146 0 l 347 0 b 435 38 381 0 411 13 b 472 132 460 64 472 95 l 472 333 z "},"т":{"ha":417,"x_min":0,"x_max":0,"o":"m 132 0 l 285 0 l 285 625 l 396 625 l 396 771 l 21 771 l 21 625 l 132 625 z "},"у":{"ha":528,"x_min":0,"x_max":0,"o":"m 319 771 l 319 361 l 208 306 l 208 771 l 56 771 l 56 76 l 319 208 l 319 -49 l 208 -49 l 208 62 l 56 -14 l 56 -62 b 92 -156 56 -99 68 -130 b 181 -194 117 -181 146 -194 l 347 -194 b 435 -156 381 -194 411 -182 b 472 -62 460 -131 472 -100 l 472 771 z "},"ф":{"ha":792,"x_min":0,"x_max":0,"o":"m 472 1000 l 319 924 l 319 701 b 297 733 314 712 306 723 b 208 771 272 758 243 771 l 181 771 b 92 733 146 771 117 758 b 56 639 68 707 56 676 l 56 132 b 92 39 56 96 68 65 b 181 0 117 13 146 0 l 208 0 b 297 38 243 0 272 13 b 319 70 306 48 314 59 l 319 -194 l 472 -194 l 472 70 b 495 38 478 59 485 48 b 583 0 520 13 549 0 l 611 0 b 699 39 645 0 675 13 b 736 132 724 65 736 96 l 736 639 b 699 733 736 676 724 707 b 611 771 675 758 645 771 l 583 771 b 495 733 549 771 520 758 b 472 701 485 723 478 712 z m 319 146 l 208 146 l 208 625 l 319 625 z m 472 625 l 583 625 l 583 146 l 472 146 z "},"х":{"ha":488,"x_min":0,"x_max":0,"o":"m 488 0 l 326 402 l 482 771 l 318 771 l 244 566 l 169 771 l 6 771 l 162 402 l -1 0 l 162 0 l 244 233 l 326 0 z "},"ц":{"ha":528,"x_min":0,"x_max":0,"o":"m 56 0 l 319 0 l 319 -97 l 472 -97 l 472 771 l 319 771 l 319 146 l 208 146 l 208 771 l 56 771 z "},"ч":{"ha":514,"x_min":0,"x_max":0,"o":"m 306 771 l 306 340 l 194 340 l 194 771 l 42 771 l 42 326 b 78 233 42 289 54 258 b 167 194 103 207 132 194 l 194 194 b 283 233 229 194 258 207 b 306 265 292 242 300 253 l 306 0 l 458 0 l 458 771 z "},"ш":{"ha":792,"x_min":0,"x_max":0,"o":"m 56 0 l 736 0 l 736 771 l 583 771 l 583 146 l 472 146 l 472 771 l 319 771 l 319 146 l 208 146 l 208 771 l 56 771 z "}}}
